# Blender 4.4.1
# www.blender.org
mtllib clear.mtl
o CLE_A_R
v -2.040780 -0.544238 0.290000
v -1.539303 0.562917 0.290000
v -2.040780 -0.544238 -0.290000
v -1.539303 0.562917 -0.290000
v -1.040780 -0.544238 0.290000
v -1.438842 0.562917 0.290000
v -1.040780 -0.544238 -0.290000
v -1.438842 0.562917 -0.290000
v -1.353238 -0.288349 -0.290000
v -1.713561 -0.288349 -0.290000
v -1.705022 -0.288349 0.290000
v -1.348968 -0.288349 0.290000
v -1.767484 -0.187083 -0.290000
v -1.758491 -0.180778 -0.290000
v -1.603646 -0.156043 -0.290000
v -1.423599 -0.156043 -0.290000
v -1.516746 0.312917 -0.290000
v -1.466515 0.312917 -0.290000
v -1.267484 -0.187083 -0.290000
v -1.275739 -0.180778 -0.290000
v -1.267484 -0.187083 0.290000
v -1.516746 0.312917 0.290000
v -1.599834 -0.156043 0.290000
v -1.466515 0.312917 0.290000
v -1.421693 -0.156043 0.290000
v -1.767484 -0.187083 0.290000
vn -0.9109 0.4126 -0.0000
vn -0.0000 -0.0000 -1.0000
vn 0.9410 0.3383 -0.0000
vn -0.0000 -0.0000 1.0000
vn 0.6160 -0.7877 -0.0000
vn -0.0000 1.0000 -0.0000
vn -0.0000 -1.0000 -0.0000
vn -0.6341 -0.7733 0.0042
vn -0.6383 -0.7698 0.0005
vn -0.6388 -0.7694 -0.0000
vn 0.8939 -0.4483 -0.0000
vn -0.9291 -0.3698 -0.0000
vn -0.1830 0.9831 0.0009
vn -0.1861 0.9825 -0.0000
vn -0.1852 0.9827 0.0003
vn 0.1968 0.9804 -0.0001
vn 0.1950 0.9808 -0.0006
vn 0.1956 0.9807 -0.0004
vn 0.6061 -0.7953 -0.0089
vn -0.6336 -0.7737 0.0047
vn -0.1821 0.9833 0.0012
vn 0.1973 0.9803 -0.0000
vt 0.689046 0.181066
vt 0.450935 0.303565
vt 0.447486 0.188293
vt 0.701277 0.314278
vt 0.654212 0.331191
vt 0.649821 0.322220
vt 0.556736 0.403981
vt 0.540521 0.322205
vt 0.574214 0.379850
vt 0.621109 0.562468
vt 0.538352 0.482151
vt 0.802229 0.402837
vt 0.777634 0.446267
vt 0.768537 0.442146
vt 0.782030 0.557397
vt 0.697920 0.541404
vt 0.721946 0.523407
vt 0.432442 0.591103
vt 0.457868 0.730655
vt 0.375001 0.650452
vt 0.715189 0.299944
vt 0.784034 0.394595
vt 0.516247 0.670343
vt 0.482425 0.539775
vt 0.565638 0.619623
vt 0.840492 0.846090
vt 0.955816 0.957307
vt 0.840492 0.957307
vt 0.741543 0.128819
vt 0.634539 0.013496
vt 0.741543 0.013496
vt 0.567092 0.128821
vt 0.533936 0.128820
vt 0.533941 0.013496
vt 0.751531 0.013496
vt 0.751531 0.128819
vt 0.602891 0.128819
vt 0.567842 0.013498
vt 0.603263 0.013496
vt 0.634539 0.128819
vt 0.692495 0.296337
vt 0.538609 0.321150
vt 0.525238 0.339633
vt 0.582722 0.408418
vt 0.582317 0.410443
vt 0.558474 0.347696
vt 0.691469 0.516378
vt 0.802229 0.644505
vt 0.762409 0.570614
vt 0.754211 0.538021
vt 0.797945 0.380261
vt 0.955816 0.846090
vt 0.535926 0.129719
vt 0.632685 0.129728
s 1
f 2/1/1 3/2/1 1/3/1
f 8/4/2 18/5/2 17/6/2
f 9/7/2 14/8/2 16/9/2
f 8/4/3 5/10/3 7/11/3
f 2/12/4 22/13/4 24/14/4
f 26/15/4 12/16/4 25/17/4
f 10/18/5 1/19/5 3/20/5
f 4/21/6 6/22/6 8/4/6
f 11/23/7 9/24/7 12/25/7
f 12/25/8 7/11/9 5/10/10
f 17/26/11 26/27/11 13/28/11
f 18/29/12 21/30/12 24/31/12
f 15/32/13 13/33/14 26/34/15
f 18/29/7 22/35/7 17/36/7
f 16/37/6 23/38/6 25/39/6
f 19/40/16 16/37/17 25/39/18
f 2/1/1 4/41/1 3/2/1
f 13/42/2 14/8/2 10/43/2
f 3/2/2 4/41/2 8/4/2
f 7/11/2 9/7/2 20/44/2
f 7/11/2 20/44/2 19/45/2
f 13/42/2 10/43/2 3/2/2
f 17/6/2 13/42/2 3/2/2
f 8/4/2 7/11/2 19/45/2
f 8/4/2 19/45/2 18/5/2
f 17/6/2 3/2/2 8/4/2
f 16/9/2 20/44/2 9/7/2
f 9/7/2 10/43/2 14/8/2
f 14/8/2 15/46/2 16/9/2
f 8/4/3 6/22/3 5/10/3
f 21/47/4 12/16/4 5/10/4
f 5/10/4 6/22/4 2/12/4
f 1/48/4 11/49/4 26/15/4
f 1/48/4 26/15/4 22/13/4
f 21/47/4 5/10/4 2/12/4
f 24/14/4 21/47/4 2/12/4
f 2/12/4 1/48/4 22/13/4
f 25/17/4 23/50/4 26/15/4
f 26/15/4 11/49/4 12/16/4
f 12/16/4 21/47/4 25/17/4
f 10/18/19 11/23/19 1/19/19
f 4/21/6 2/51/6 6/22/6
f 11/23/7 10/18/7 9/24/7
f 12/25/8 9/24/20 7/11/9
f 17/26/11 22/52/11 26/27/11
f 18/29/12 19/40/12 21/30/12
f 26/34/15 23/38/21 15/32/13
f 15/32/4 14/53/4 13/33/4
f 18/29/7 24/31/7 22/35/7
f 16/37/6 15/32/6 23/38/6
f 25/39/18 21/30/22 19/40/16
f 19/40/4 20/54/4 16/37/4
o CLEA_R
v -2.654774 -0.611137 -0.255181
v -2.654774 0.488863 -0.255181
v -2.654774 -0.611137 0.255181
v -2.654774 0.488863 0.255181
v -3.486751 -0.580278 -0.255181
v -3.539442 0.492984 -0.255181
v -3.486751 -0.580278 0.255181
v -3.539442 0.492984 0.255181
v -2.864438 -0.094054 -0.255181
v -2.860451 -0.094054 0.255181
v -2.855487 0.674754 -0.255181
v -2.875760 0.674754 0.255181
v -3.043979 -0.096768 -0.255181
v -3.043979 -0.102012 0.255181
v -2.886498 0.542219 0.255181
v -2.776778 0.464764 0.255181
v -2.879769 0.221881 0.255181
v -2.784432 0.470671 0.255181
v -2.937048 0.196577 0.255181
v -2.934213 0.194581 0.255181
v -2.971380 0.218732 0.255181
v -3.219112 0.466482 0.255181
v -2.930201 0.196663 0.255181
v -2.776778 0.273165 0.255181
v -3.219112 0.466481 -0.255181
v -2.971380 0.220584 -0.255181
v -2.968546 0.218754 -0.255181
v -2.776778 0.273165 -0.255181
v -2.776778 0.464764 -0.255181
v -2.869480 0.536310 -0.255181
v -2.934213 0.194581 -0.255181
v -2.885622 0.219799 -0.255181
v -2.881458 0.221881 -0.255181
v -2.877908 0.542218 -0.255181
vn 1.0000 -0.0000 -0.0000
vn -0.0000 -0.0000 1.0000
vn -0.7341 0.6790 0.0005
vn -0.7373 0.6756 0.0064
vn -0.7338 0.6794 -0.0000
vn -0.0000 -0.0000 -1.0000
vn -0.9290 -0.3701 -0.0001
vn -0.9266 -0.3759 0.0067
vn -0.9292 -0.3696 -0.0000
vn -0.2635 0.9647 -0.0010
vn -0.2575 0.9662 -0.0094
vn -0.2642 0.9645 -0.0000
vn 0.6154 -0.7882 -0.0006
vn 0.6135 -0.7897 -0.0042
vn 0.6157 -0.7880 -0.0000
vn 0.6795 0.7337 -0.0000
vn -0.7660 -0.6429 -0.0007
vn -0.7681 -0.6403 -0.0058
vn -0.7657 -0.6432 -0.0000
vn -1.0000 -0.0000 -0.0000
vn 0.5757 0.8177 -0.0000
vn -0.4424 0.8968 0.0012
vn -0.4443 0.8959 0.0004
vn -0.4472 0.8944 0.0016
vn 0.2172 -0.9761 0.0032
vn 0.2214 -0.9752 0.0004
vn 0.2167 -0.9762 0.0036
vn -0.4472 0.8944 0.0015
vn -0.6088 -0.7933 0.0001
vn -0.6080 -0.7939 0.0001
vn -0.6101 -0.7923 -0.0000
vn 0.7048 0.7094 0.0004
vn 0.7068 0.7074 0.0023
vn 0.7045 0.7097 -0.0000
vn -0.0001 0.0002 1.0000
vn -0.0000 -0.0004 1.0000
vn -0.0000 -0.0003 1.0000
vn -0.7375 0.6753 0.0069
vn -0.0000 0.0001 -1.0000
vn -0.9267 -0.3757 0.0072
vn -0.2568 0.9664 -0.0102
vn 0.6132 -0.7899 -0.0048
vn 0.6435 0.7650 0.0256
vn -0.7684 -0.6399 -0.0066
vn 0.5424 0.8401 0.0030
vn 0.5422 0.8402 0.0030
vn -0.4457 0.8952 -0.0000
vn 0.2220 -0.9750 -0.0000
vn -0.4606 0.8876 -0.0000
vn -0.6110 -0.7917 -0.0000
vn -0.5740 -0.8188 -0.0097
vn 0.7071 0.7071 0.0026
vt 0.605540 0.636470
vt 0.585575 0.824715
vt 0.517243 0.783748
vt 0.654619 0.771993
vt 0.692004 0.740181
vt 0.780083 0.756523
vt 0.722521 0.671113
vt 0.690264 0.691101
vt 0.688675 0.691418
vt 0.662937 0.793900
vt 0.595832 0.893670
vt 0.575778 0.825554
vt 0.738584 0.898754
vt 0.803489 0.830376
vt 0.745031 0.894603
vt 0.777223 0.946869
vt 0.786211 0.918473
vt 0.786632 0.918141
vt 0.469953 0.856709
vt 0.416027 0.946869
vt 0.395751 0.878818
vt 0.879659 0.724965
vt 0.490428 0.924703
vt 0.905899 0.797924
vt 0.921340 0.711390
vt 0.945378 0.785039
vt 0.687536 0.872583
vt 0.043243 0.013614
vt 0.014206 0.090959
vt 0.014206 0.013614
vt 0.345591 0.891774
vt 0.346115 0.969119
vt 0.339752 0.969119
vt 0.355347 0.891774
vt 0.372783 0.969119
vt 0.355117 0.969119
vt 0.234605 0.891827
vt 0.286342 0.969146
vt 0.233374 0.969174
vt 0.346802 0.891774
vt 0.354412 0.969119
vt 0.215715 0.891787
vt 0.214069 0.969129
vt 0.286302 0.891801
vt 0.339240 0.969119
vt 0.673872 0.677437
vt 0.672246 0.716733
vt 0.681112 0.731841
vt 0.685362 0.739188
vt 0.686006 0.740094
vt 0.686269 0.740008
vt 0.710454 0.690877
vt 0.742829 0.731184
vt 0.744552 0.894912
vt 0.741306 0.906884
vt 0.741756 0.907409
vt 0.746717 0.923730
vt 0.774821 0.929081
vt 0.596985 0.932173
vt 0.691776 0.897891
vt 0.803398 0.924292
vt 0.787814 0.870390
vt 0.043243 0.090959
vt 0.339399 0.891773
vt 0.346117 0.891774
vt 0.372783 0.891774
vt 0.214249 0.891784
vt 0.231816 0.969236
s 1
usemtl マテリアル.001
f 28/55/23 29/56/23 27/57/23
f 36/58/24 47/59/24 34/60/24
f 38/61/24 44/62/24 42/63/24
f 40/64/25 31/65/26 33/66/27
f 57/67/28 32/68/28 52/69/28
f 28/70/28 56/71/28 60/72/28
f 36/73/29 27/74/30 29/75/31
f 38/76/32 32/68/33 34/60/34
f 35/77/35 33/66/36 31/65/37
f 37/78/38 30/79/38 28/80/38
f 39/81/39 34/60/40 32/68/41
f 42/82/42 54/83/42 50/84/42
f 45/85/43 57/86/43 53/87/43
f 43/88/44 54/89/45 59/90/46
f 41/91/47 51/92/48 60/93/49
f 49/94/50 59/90/46 58/95/50
f 44/96/51 60/93/52 55/97/53
f 48/98/54 52/99/55 51/92/56
f 28/55/23 30/100/23 29/56/23
f 40/64/24 33/66/24 36/58/24
f 36/58/24 29/56/24 30/100/24
f 30/100/24 42/63/24 50/101/24
f 50/101/24 43/102/57 49/103/58
f 46/104/24 45/105/59 47/59/24
f 50/101/24 49/103/58 46/104/24
f 36/58/24 30/100/24 50/101/24
f 34/60/24 40/64/24 36/58/24
f 41/106/24 38/61/24 34/60/24
f 48/107/24 41/106/24 34/60/24
f 36/58/24 50/101/24 46/104/24
f 47/59/24 48/107/24 34/60/24
f 36/58/24 46/104/24 47/59/24
f 42/63/24 30/100/24 38/61/24
f 38/61/24 41/106/24 44/62/24
f 40/64/25 39/81/60 31/65/26
f 52/69/28 53/108/28 57/67/28
f 57/67/28 58/109/61 59/110/28
f 54/111/28 55/112/28 28/70/28
f 57/67/28 59/110/28 54/111/28
f 54/111/28 28/70/28 27/113/28
f 35/114/28 31/65/28 39/81/28
f 54/111/28 27/113/28 35/114/28
f 57/67/28 54/111/28 35/114/28
f 35/114/28 39/81/28 32/68/28
f 32/68/28 37/115/28 60/72/28
f 32/68/28 60/72/28 51/116/28
f 57/67/28 35/114/28 32/68/28
f 32/68/28 51/116/28 52/69/28
f 60/72/28 37/115/28 28/70/28
f 28/70/28 55/112/28 56/71/28
f 36/73/29 35/77/62 27/74/30
f 38/76/32 37/78/63 32/68/33
f 35/77/35 36/73/64 33/66/36
f 37/78/65 38/76/65 30/79/65
f 39/81/39 40/64/66 34/60/40
f 42/82/42 55/117/42 54/83/42
f 53/87/67 52/99/67 47/118/68
f 45/85/43 46/119/43 57/86/43
f 53/87/67 47/118/68 45/85/68
f 43/88/44 50/120/69 54/89/45
f 41/91/47 48/98/70 51/92/48
f 58/95/71 57/86/71 46/119/71
f 49/94/50 43/88/44 59/90/46
f 58/95/71 46/119/71 49/94/71
f 55/97/53 42/121/72 44/96/51
f 44/96/73 41/91/73 60/93/73
f 60/93/28 56/122/28 55/97/28
f 48/98/54 47/118/74 52/99/55
o C_LEAR
v 3.451692 -0.489534 -0.250000
v 3.443534 0.397342 -0.250000
v 3.451692 -0.489534 0.250000
v 3.443534 0.397342 0.250000
v 2.537901 -0.512987 -0.250000
v 2.614233 0.525280 -0.250000
v 2.537901 -0.512987 0.250000
v 2.614233 0.525280 0.250000
v 3.507888 0.250513 0.250000
v 3.507888 0.253860 -0.250000
v 3.314947 0.524943 -0.250000
v 3.326231 0.524943 0.250000
v 3.322961 -0.529142 0.250000
v 3.327985 -0.529142 -0.250000
v 3.511917 -0.358087 0.250000
v 3.511838 -0.355618 -0.250000
v 3.339645 0.355792 0.250000
v 3.339645 0.355792 -0.250000
v 3.339645 -0.366017 0.250000
v 3.339645 -0.366017 -0.250000
v 2.651904 -0.420150 0.250000
v 2.651904 -0.420150 -0.250000
v 2.642222 0.464276 0.250000
v 2.642222 0.464276 -0.250000
vn 0.9091 -0.4165 -0.0000
vn -0.0000 -0.0000 1.0000
vn -0.9089 -0.4170 -0.0000
vn -0.0000 -0.0000 -1.0000
vn 0.3049 -0.9524 -0.0000
vn 0.0005 1.0000 -0.0000
vn 0.9159 0.4014 0.0027
vn 0.7043 0.7097 -0.0159
vn -0.0204 -0.9998 -0.0002
vn -1.0000 -0.0000 -0.0000
vn 1.0000 0.0066 -0.0001
vn -0.0785 0.9969 -0.0000
vn -0.6314 0.7754 -0.0000
vn -0.1537 -0.9881 -0.0000
vn 0.9122 -0.4097 -0.0022
vn 0.2941 -0.9558 0.0030
vn 0.9124 0.4092 -0.0000
vn 0.7362 0.6768 -0.0000
vn -0.0206 -0.9998 -0.0000
vn 1.0000 0.0065 -0.0000
vt 0.765564 0.311126
vt 0.840132 0.304717
vt 0.836258 0.324847
vt 0.859854 0.197279
vt 0.868142 0.321996
vt 0.843974 0.341987
vt 0.904436 0.106698
vt 0.952852 0.116406
vt 0.907043 0.114696
vt 0.965910 0.210460
vt 0.986123 0.215107
vt 0.987129 0.327707
vt 0.860770 0.557873
vt 0.924608 0.547453
vt 0.923108 0.563648
vt 0.960852 0.036193
vt 0.956806 0.109585
vt 0.788063 0.203461
vt 0.855634 0.218256
vt 0.908547 0.032124
vt 0.962022 0.017226
vt 0.862325 0.541080
vt 0.933690 0.448924
vt 0.879166 0.196580
vt 0.959101 0.338948
vt 0.769949 0.289266
vt 0.930601 0.429610
vt 0.878301 0.426061
vt 0.871350 0.443177
vt 0.862690 0.173995
vt 0.977744 0.359945
vt 0.987003 0.346503
vt 0.986888 0.236721
vt 0.987129 0.187372
vt 0.792756 0.182358
vt 0.909674 0.013977
s 0
f 61/123/75 75/124/75 63/125/75
f 64/126/76 79/127/76 73/128/76
f 68/129/77 84/130/77 83/131/77
f 78/132/78 62/133/78 76/134/78
f 63/135/79 74/136/79 61/137/79
f 68/129/80 71/138/80 66/139/80
f 70/140/81 64/126/81 69/141/81
f 72/142/82 62/143/82 71/138/82
f 73/144/83 65/145/83 74/136/83
f 77/146/84 80/147/84 79/127/84
f 76/148/85 69/141/85 75/124/85
f 79/127/86 82/149/86 81/150/86
f 81/150/87 65/145/87 67/151/87
f 83/131/88 78/132/88 77/146/88
f 61/123/89 76/148/89 75/124/89
f 73/128/76 63/125/76 75/124/76
f 75/124/76 69/141/76 64/126/76
f 64/126/76 72/152/76 68/129/76
f 68/129/76 83/131/76 77/146/76
f 79/127/76 81/150/76 67/151/76
f 64/126/76 68/129/76 77/146/76
f 79/127/76 67/151/76 73/128/76
f 64/126/76 77/146/76 79/127/76
f 73/128/76 75/124/76 64/126/76
f 68/129/77 66/139/77 84/130/77
f 74/153/78 65/145/78 82/149/78
f 74/153/78 82/149/78 80/147/78
f 76/134/78 61/154/78 74/153/78
f 62/133/78 70/155/78 76/134/78
f 66/139/78 71/156/78 62/133/78
f 78/132/78 84/130/78 66/139/78
f 76/134/78 74/153/78 80/147/78
f 78/132/78 66/139/78 62/133/78
f 76/134/78 80/147/78 78/132/78
f 63/135/90 73/144/90 74/136/90
f 68/129/80 72/142/80 71/138/80
f 70/140/91 62/157/91 64/126/91
f 72/142/92 64/158/92 62/143/92
f 73/144/93 67/151/93 65/145/93
f 77/146/84 78/132/84 80/147/84
f 76/148/94 70/140/94 69/141/94
f 79/127/86 80/147/86 82/149/86
f 81/150/87 82/149/87 65/145/87
f 83/131/88 84/130/88 78/132/88
o C_L_EAR
v 1.915157 -0.520235 -0.250000
v 1.915157 0.526430 -0.250000
v 1.915157 -0.520235 0.250000
v 1.915157 0.526430 0.250000
v 1.024191 -0.520235 -0.250000
v 1.749877 -0.379153 0.250000
v 1.024191 -0.520235 0.250000
v 1.068362 -0.343831 0.250000
v 1.718807 0.478457 -0.250000
v 1.700147 0.478457 0.250000
v 1.068362 -0.343831 -0.250000
v 1.768538 -0.379153 -0.250000
vn 1.0000 -0.0000 -0.0000
vn -0.0000 -0.0000 1.0000
vn -0.9701 0.2429 -0.0000
vn -0.0000 -0.0000 -1.0000
vn -0.0000 -1.0000 -0.0000
vn -0.9976 -0.0578 -0.0372
vn -0.2373 0.9714 -0.0000
vn 0.0518 0.9987 -0.0000
vn -0.9976 -0.0579 -0.0372
vn -0.2178 0.9760 -0.0081
vn 0.0504 0.9987 0.0019
vt 0.317161 0.562902
vt 0.457118 0.371668
vt 0.505494 0.461636
vt 0.415741 0.355578
vt 0.370916 0.211351
vt 0.343448 0.236366
vt 0.302136 0.135827
vt 0.159543 0.075635
vt 0.032167 0.213117
vt 0.150557 0.035049
vt 0.436714 0.013266
vt 0.505494 0.088789
vt 0.043774 0.380473
vt 0.240369 0.330241
vt 0.115369 0.453433
vt 0.082119 0.483765
vt 0.013269 0.408305
vt 0.274668 0.160842
vt 0.268785 0.472934
vt 0.256615 0.429605
vt 0.070998 0.227165
vt 0.168774 0.257281
s 0
f 86/159/95 87/160/95 85/161/95
f 87/160/96 90/162/96 91/163/96
f 92/164/97 89/165/97 91/163/97
f 96/166/98 86/167/98 85/168/98
f 91/163/99 85/169/99 87/170/99
f 93/171/100 90/172/100 94/173/100
f 93/171/101 88/174/101 86/175/101
f 90/172/102 95/176/102 92/164/102
f 86/159/95 88/177/95 87/160/95
f 87/160/96 88/177/96 94/178/96
f 90/162/96 92/164/96 91/163/96
f 87/160/96 94/178/96 90/162/96
f 92/164/97 95/176/97 89/165/97
f 85/168/98 89/165/98 95/176/98
f 96/166/98 93/179/98 86/167/98
f 85/168/98 95/176/98 96/166/98
f 91/163/99 89/165/99 85/169/99
f 93/171/103 96/180/103 90/172/103
f 93/171/104 94/173/104 88/174/104
f 90/172/105 96/180/105 95/176/105
o CL_E_AR
v 0.500825 -0.528533 -0.250000
v 0.500825 0.571467 -0.250000
v 0.500825 -0.528533 0.250000
v 0.500825 0.571467 0.250000
v -0.499175 -0.528533 -0.250000
v -0.499175 0.571467 -0.250000
v -0.499175 -0.528533 0.250000
v -0.499175 0.571467 0.250000
v -0.437826 0.456395 -0.250000
v -0.437826 0.456395 0.250000
v -0.468400 -0.392527 0.250000
v -0.468400 -0.392527 -0.250000
v -0.475228 0.063827 0.250000
v -0.475228 0.063827 -0.250000
v -0.475704 -0.069193 0.250000
v -0.475704 -0.069193 -0.250000
v 0.350480 0.436521 -0.250000
v 0.350480 0.109221 -0.250000
v 0.350480 0.436521 0.250000
v 0.350480 0.109221 0.250000
v 0.358884 -0.086706 0.250000
v 0.358884 -0.392527 0.250000
v 0.358884 -0.086706 -0.250000
v 0.358884 -0.392527 -0.250000
vn -0.0252 -0.9997 -0.0000
vn 1.0000 -0.0000 -0.0000
vn -0.8824 -0.4705 -0.0000
vn -0.0000 -0.0000 1.0000
vn -0.0000 -1.0000 -0.0000
vn -0.0000 1.0000 -0.0000
vn -0.9753 0.2207 -0.0000
vn -0.0210 -0.9998 -0.0000
vn -1.0000 0.0036 -0.0000
vn -0.0000 -0.0000 -1.0000
vn -0.0549 0.9985 -0.0000
vn -1.0000 -0.0000 -0.0000
vt 0.149541 0.875403
vt 0.238905 0.775839
vt 0.178225 0.880491
vt 0.345943 0.784240
vt 0.261584 0.598650
vt 0.345943 0.598650
vt 0.181544 0.892388
vt 0.232305 0.708095
vt 0.231033 0.669131
vt 0.206546 0.494488
vt 0.190557 0.416589
vt 0.224914 0.425773
vt 0.164737 0.966254
vt 0.144611 0.883984
vt 0.200607 0.502272
vt 0.172188 0.485303
vt 0.177196 0.686342
vt 0.176634 0.686622
vt 0.176232 0.686475
vt 0.122108 0.664023
vt 0.119251 0.702965
vt 0.087605 0.776868
vt 0.176794 0.686314
vt 0.115498 0.601012
vt 0.176621 0.497633
vt 0.240331 0.606766
vt 0.110014 0.770041
vt 0.261584 0.784240
vt 0.127804 0.957850
vt 0.094003 0.591432
s 0
f 105/181/106 115/182/106 106/183/106
f 98/184/107 99/185/107 97/186/107
f 104/187/108 105/181/108 106/183/108
f 99/185/109 116/188/109 117/189/109
f 103/190/110 97/191/110 99/192/110
f 100/193/111 102/194/111 104/187/111
f 107/195/112 101/196/112 103/190/112
f 112/197/113 117/189/113 111/198/113
f 109/199/114 112/197/114 111/198/114
f 119/200/115 114/201/115 98/202/115
f 109/199/116 114/201/116 110/203/116
f 115/182/117 114/201/117 116/188/117
f 107/195/111 120/204/111 108/205/111
f 117/189/117 120/204/117 118/206/117
f 105/181/106 113/207/106 115/182/106
f 98/184/107 100/208/107 99/185/107
f 104/187/108 102/194/108 105/181/108
f 100/208/109 104/187/109 106/183/109
f 100/208/109 106/183/109 115/182/109
f 107/195/109 103/190/109 99/185/109
f 118/206/109 107/195/109 99/185/109
f 99/185/109 100/208/109 115/182/109
f 116/188/109 109/199/109 111/198/109
f 99/185/109 115/182/109 116/188/109
f 117/189/109 118/206/109 99/185/109
f 116/188/109 111/198/109 117/189/109
f 103/190/110 101/196/110 97/191/110
f 100/193/111 98/209/111 102/194/111
f 107/195/112 108/205/112 101/196/112
f 112/197/113 119/200/113 117/189/113
f 109/199/114 110/203/114 112/197/114
f 97/210/115 101/196/115 108/205/115
f 97/210/115 108/205/115 120/204/115
f 105/181/115 102/194/115 98/202/115
f 113/207/115 105/181/115 98/202/115
f 98/202/115 97/210/115 120/204/115
f 119/200/115 112/197/115 110/203/115
f 98/202/115 120/204/115 119/200/115
f 114/201/115 113/207/115 98/202/115
f 119/200/115 110/203/115 114/201/115
f 109/199/116 116/188/116 114/201/116
f 115/182/117 113/207/117 114/201/117
f 107/195/111 118/206/111 120/204/111
f 117/189/117 119/200/117 120/204/117
