# Blender 4.4.1
# www.blender.org
mtllib player.mtl
o 立方体
v 0.620000 -0.494530 -0.352829
v 0.373268 0.672113 -0.199252
v 0.620000 -0.494530 0.558702
v 0.373268 0.672113 0.431223
v -0.620000 -0.494530 -0.352829
v -0.373268 0.672113 -0.199252
v -0.620000 -0.494530 0.558702
v -0.373268 0.672113 0.431223
v 0.084246 -0.494530 -0.760000
v -0.084246 -0.494530 -0.760000
v -0.043236 0.672113 -0.457554
v 0.043236 0.672113 -0.457554
v -0.451661 -0.494530 0.638537
v 0.451661 -0.494530 0.638537
v 0.351248 0.672113 0.457554
v -0.351248 0.672113 0.457554
v 0.620000 0.445470 -0.352829
v 0.620000 0.445470 0.558702
v -0.620000 0.445470 0.558702
v -0.620000 0.445470 -0.352829
v 0.084246 0.445470 -0.760000
v -0.451661 0.445470 0.638537
v -0.084246 0.445470 -0.760000
v 0.451661 0.445470 0.638537
v 0.464011 0.585065 -0.255735
v 0.464011 0.585065 0.478107
v -0.464011 0.585065 0.478107
v -0.464011 0.585065 -0.255735
v 0.058319 0.585065 -0.568788
v -0.388178 0.585065 0.568788
v -0.058319 0.585065 -0.568788
v 0.388178 0.585065 0.568788
vn 1.0000 -0.0000 -0.0000
vn -1.0000 -0.0000 -0.0000
vn 0.6051 -0.0000 -0.7962
vn -0.0000 1.0000 -0.0000
vn -0.0000 -1.0000 -0.0000
vn -0.6051 -0.0000 -0.7962
vn -0.0000 -0.0000 -1.0000
vn -0.4285 -0.0000 0.9035
vn 0.4285 -0.0000 0.9035
vn -0.0000 -0.0000 1.0000
vn 0.6669 0.7452 -0.0000
vn -0.6669 0.7452 -0.0000
vn 0.3893 0.7695 -0.5063
vn 0.3833 0.7745 -0.5032
vn 0.3915 0.7677 -0.5074
vn -0.6375 0.5563 0.5331
vn -0.3893 0.7695 -0.5063
vn -0.3833 0.7745 -0.5032
vn -0.3817 0.7759 -0.5023
vn -0.0000 0.8077 -0.5896
vn 0.3029 0.7073 0.6387
vn -0.0000 0.4470 0.8946
vn 0.6923 0.7216 -0.0000
vn -0.6923 0.7216 -0.0000
vn 0.4119 0.7439 -0.5263
vn -0.5046 0.7532 0.4219
vn -0.5046 0.7532 0.4220
vn -0.4008 0.7548 -0.5194
vn -0.0000 0.7875 -0.6163
vn 0.5046 0.7532 0.4219
vn -0.0000 0.7875 0.6163
vn 0.3817 0.7759 -0.5023
vn -0.3029 0.7073 0.6387
vn -0.3915 0.7677 -0.5074
vn 0.6375 0.5563 0.5331
vn 0.4008 0.7548 -0.5194
vn -0.4119 0.7439 -0.5263
vn 0.5046 0.7532 0.4220
vt 0.345829 0.334044
vt 0.319096 0.006867
vt 0.470475 0.081616
vt 0.249825 0.722284
vt 0.470475 0.903651
vt 0.302357 0.954395
vt 0.657423 0.333526
vt 0.522904 0.068913
vt 0.657423 0.068913
vt 0.550867 0.947791
vt 0.621295 0.793066
vt 0.710176 0.838033
vt 0.558565 0.434109
vt 0.788134 0.548438
vt 0.717251 0.698722
vt 0.827898 0.333526
vt 0.693379 0.068913
vt 0.827898 0.068913
vt 0.693379 0.333526
vt 0.262828 0.962604
vt 0.217837 0.725703
vt 0.044496 0.729200
vt 0.028056 0.993133
vt 0.006867 0.729199
vt 0.066927 0.989932
vt 0.305576 0.375489
vt 0.194450 0.259295
vt 0.325733 0.604918
vt 0.226621 0.683076
vt 0.406773 0.463668
vt 0.352601 0.474225
vt 0.206898 0.688748
vt 0.410152 0.501681
vt 0.372683 0.640583
vt 0.354974 0.500728
vt 0.035338 0.683550
vt 0.056016 0.690391
vt 0.281202 0.400511
vt 0.183559 0.314882
vt 0.298030 0.585646
vt 0.210645 0.655928
vt 0.319748 0.480699
vt 0.204332 0.658055
vt 0.321506 0.500221
vt 0.054631 0.657851
vt 0.060613 0.660363
vt 0.522904 0.333526
vt 0.710176 0.947791
vt 0.705477 0.952375
vt 0.555566 0.952375
vt 0.550867 0.838033
vt 0.639748 0.793066
vt 0.558565 0.698722
vt 0.544667 0.662799
vt 0.544667 0.470032
vt 0.717251 0.434109
vt 0.788134 0.584393
vt 0.176549 0.348527
s 1
usemtl マテリアル
f 17/1/1 3/2/1 1/3/1
f 19/4/2 5/5/2 7/6/2
f 21/7/3 1/8/3 9/9/3
f 4/10/4 12/11/4 6/12/4
f 7/13/5 10/14/5 1/15/5
f 20/16/6 10/17/6 5/18/6
f 23/19/7 9/9/7 10/17/7
f 19/4/8 13/20/8 22/21/8
f 24/22/9 3/23/9 18/24/9
f 22/21/10 14/25/10 24/22/10
f 25/26/11 18/27/11 17/1/11
f 28/28/12 19/4/12 27/29/12
f 25/26/13 21/30/14 29/31/15
f 27/29/16 22/21/16 30/32/16
f 28/28/17 23/33/18 20/34/19
f 29/31/20 23/33/20 31/35/20
f 26/36/21 24/22/21 18/24/21
f 30/32/22 24/22/22 32/37/22
f 2/38/23 26/39/23 25/26/23
f 6/40/24 27/29/24 8/41/24
f 2/38/25 29/31/25 12/42/25
f 8/41/26 30/32/26 16/43/27
f 6/40/28 31/35/28 28/28/28
f 12/42/29 31/35/29 11/44/29
f 4/45/30 32/37/30 26/36/30
f 16/43/31 32/37/31 15/46/31
f 17/1/1 18/27/1 3/2/1
f 19/4/2 20/34/2 5/5/2
f 21/7/3 17/47/3 1/8/3
f 6/12/4 8/48/4 16/49/4
f 16/49/4 15/50/4 4/10/4
f 4/10/4 2/51/4 12/11/4
f 12/11/4 11/52/4 6/12/4
f 6/12/4 16/49/4 4/10/4
f 1/15/5 3/53/5 14/54/5
f 14/54/5 13/55/5 7/13/5
f 7/13/5 5/56/5 10/14/5
f 10/14/5 9/57/5 1/15/5
f 1/15/5 14/54/5 7/13/5
f 20/16/6 23/19/6 10/17/6
f 23/19/7 21/7/7 9/9/7
f 19/4/8 7/6/8 13/20/8
f 24/22/9 14/25/9 3/23/9
f 22/21/10 13/20/10 14/25/10
f 25/26/11 26/39/11 18/27/11
f 28/28/12 20/34/12 19/4/12
f 25/26/13 17/1/32 21/30/14
f 27/29/33 19/4/33 22/21/33
f 28/28/17 31/35/34 23/33/18
f 29/31/20 21/30/20 23/33/20
f 26/36/35 32/37/35 24/22/35
f 30/32/22 22/21/22 24/22/22
f 2/38/23 4/58/23 26/39/23
f 6/40/24 28/28/24 27/29/24
f 2/38/36 25/26/36 29/31/36
f 8/41/26 27/29/26 30/32/26
f 6/40/37 11/44/37 31/35/37
f 12/42/29 29/31/29 31/35/29
f 4/45/30 15/46/38 32/37/30
f 16/43/31 30/32/31 32/37/31
