# Blender 4.4.1
# www.blender.org
mtllib particle.mtl
o 球
v 0.000000 0.207867 -0.138893
v 0.000000 0.138893 -0.207867
v 0.000000 0.048773 -0.245196
v 0.000000 0.000000 -0.250000
v 0.000000 -0.048773 -0.245196
v 0.000000 -0.138893 -0.207867
v 0.009515 0.245196 -0.047835
v 0.018664 0.230970 -0.093833
v 0.027097 0.207867 -0.136224
v 0.034487 0.176777 -0.173380
v 0.040553 0.138893 -0.203873
v 0.045060 0.095671 -0.226532
v 0.047835 0.048773 -0.240485
v 0.048773 0.000000 -0.245196
v 0.047835 -0.048773 -0.240485
v 0.045060 -0.095671 -0.226532
v 0.040553 -0.138893 -0.203873
v 0.034487 -0.176777 -0.173380
v 0.027097 -0.207867 -0.136224
v 0.018664 -0.230970 -0.093833
v 0.009515 -0.245196 -0.047835
v 0.018664 0.245196 -0.045060
v 0.036612 0.230970 -0.088388
v 0.053152 0.207867 -0.128320
v 0.067650 0.176777 -0.163320
v 0.079547 0.138893 -0.192044
v 0.088388 0.095671 -0.213388
v 0.093833 0.048773 -0.226532
v 0.095671 0.000000 -0.230970
v 0.093833 -0.048773 -0.226532
v 0.088388 -0.095671 -0.213388
v 0.079547 -0.138893 -0.192044
v 0.067650 -0.176777 -0.163320
v 0.053152 -0.207867 -0.128320
v 0.036612 -0.230970 -0.088388
v 0.018664 -0.245196 -0.045060
v 0.027097 0.245196 -0.040553
v 0.053152 0.230970 -0.079547
v 0.077165 0.207867 -0.115485
v 0.098212 0.176777 -0.146985
v 0.115485 0.138893 -0.172835
v 0.128320 0.095671 -0.192044
v 0.136224 0.048773 -0.203873
v 0.138893 0.000000 -0.207867
v 0.136224 -0.048773 -0.203873
v 0.128320 -0.095671 -0.192044
v 0.115485 -0.138893 -0.172835
v 0.098212 -0.176777 -0.146985
v 0.077165 -0.207867 -0.115485
v 0.053152 -0.230970 -0.079547
v 0.027097 -0.245196 -0.040553
v 0.034487 0.245196 -0.034487
v 0.067650 0.230970 -0.067650
v 0.098212 0.207867 -0.098212
v 0.125000 0.176777 -0.125000
v 0.146985 0.138893 -0.146984
v 0.163320 0.095671 -0.163320
v 0.173380 0.048773 -0.173380
v 0.176777 0.000000 -0.176777
v 0.173380 -0.048773 -0.173380
v 0.163320 -0.095671 -0.163320
v 0.146985 -0.138893 -0.146984
v 0.125000 -0.176777 -0.125000
v 0.098212 -0.207867 -0.098212
v 0.067650 -0.230970 -0.067650
v 0.034487 -0.245196 -0.034487
v 0.040553 0.245196 -0.027097
v 0.079547 0.230970 -0.053152
v 0.115485 0.207867 -0.077165
v 0.146985 0.176777 -0.098212
v 0.172836 0.138893 -0.115485
v 0.192045 0.095671 -0.128320
v 0.203873 0.048773 -0.136224
v 0.207868 0.000000 -0.138893
v 0.203873 -0.048773 -0.136224
v 0.192045 -0.095671 -0.128320
v 0.172836 -0.138893 -0.115485
v 0.146985 -0.176777 -0.098212
v 0.115485 -0.207867 -0.077165
v 0.079547 -0.230970 -0.053152
v 0.040553 -0.245196 -0.027097
v 0.000000 0.250000 0.000000
v 0.045060 0.245196 -0.018664
v 0.088388 0.230970 -0.036612
v 0.128320 0.207867 -0.053152
v 0.163320 0.176777 -0.067650
v 0.192045 0.138893 -0.079547
v 0.213388 0.095671 -0.088388
v 0.226532 0.048773 -0.093833
v 0.230970 0.000000 -0.095671
v 0.226532 -0.048773 -0.093833
v 0.213388 -0.095671 -0.088388
v 0.192045 -0.138893 -0.079547
v 0.163320 -0.176777 -0.067650
v 0.128320 -0.207867 -0.053152
v 0.088388 -0.230970 -0.036612
v 0.045060 -0.245196 -0.018664
v 0.047835 0.245196 -0.009515
v 0.093833 0.230970 -0.018664
v 0.136224 0.207867 -0.027097
v 0.173380 0.176777 -0.034487
v 0.203873 0.138893 -0.040553
v 0.226532 0.095671 -0.045060
v 0.240485 0.048773 -0.047835
v 0.245196 0.000000 -0.048773
v 0.240485 -0.048773 -0.047835
v 0.226532 -0.095671 -0.045060
v 0.203873 -0.138893 -0.040553
v 0.173380 -0.176777 -0.034487
v 0.136224 -0.207867 -0.027097
v 0.093833 -0.230970 -0.018664
v 0.047835 -0.245196 -0.009515
v 0.048773 0.245196 0.000000
v 0.095671 0.230970 0.000000
v 0.138893 0.207867 0.000000
v 0.176777 0.176777 0.000000
v 0.207867 0.138893 0.000000
v 0.230970 0.095671 0.000000
v 0.245196 0.048773 0.000000
v 0.250000 0.000000 0.000000
v 0.245196 -0.048773 -0.000000
v 0.230970 -0.095671 -0.000000
v 0.207867 -0.138893 -0.000000
v 0.176777 -0.176777 -0.000000
v 0.138893 -0.207867 -0.000000
v 0.095671 -0.230970 -0.000000
v 0.048773 -0.245196 -0.000000
v 0.047835 0.245196 0.009515
v 0.093833 0.230970 0.018664
v 0.136224 0.207867 0.027097
v 0.173380 0.176777 0.034487
v 0.203873 0.138893 0.040553
v 0.226532 0.095671 0.045060
v 0.240485 0.048773 0.047835
v 0.245196 -0.000000 0.048773
v 0.240485 -0.048773 0.047835
v 0.226532 -0.095671 0.045060
v 0.203873 -0.138893 0.040553
v 0.173380 -0.176777 0.034487
v 0.136224 -0.207867 0.027097
v 0.093833 -0.230970 0.018664
v 0.047835 -0.245196 0.009515
v 0.045060 0.245196 0.018664
v 0.088388 0.230970 0.036612
v 0.128320 0.207867 0.053152
v 0.163320 0.176777 0.067650
v 0.192044 0.138893 0.079547
v 0.213388 0.095671 0.088388
v 0.226532 0.048773 0.093833
v 0.230970 -0.000000 0.095671
v 0.226532 -0.048773 0.093833
v 0.213388 -0.095671 0.088388
v 0.192044 -0.138893 0.079547
v 0.163320 -0.176777 0.067650
v 0.128320 -0.207867 0.053152
v 0.088388 -0.230970 0.036612
v 0.045060 -0.245196 0.018664
v 0.040553 0.245196 0.027097
v 0.079547 0.230970 0.053152
v 0.115485 0.207867 0.077165
v 0.146985 0.176777 0.098212
v 0.172835 0.138893 0.115485
v 0.192045 0.095671 0.128320
v 0.203873 0.048773 0.136224
v 0.207867 -0.000000 0.138893
v 0.203873 -0.048773 0.136224
v 0.192045 -0.095671 0.128320
v 0.172835 -0.138893 0.115485
v 0.146985 -0.176777 0.098212
v 0.115485 -0.207867 0.077165
v 0.079547 -0.230970 0.053152
v 0.040553 -0.245196 0.027097
v 0.034487 0.245196 0.034487
v 0.067650 0.230970 0.067650
v 0.098212 0.207867 0.098212
v 0.125000 0.176777 0.125000
v 0.146984 0.138893 0.146984
v 0.163320 0.095671 0.163320
v 0.173380 0.048773 0.173380
v 0.176777 -0.000000 0.176777
v 0.173380 -0.048773 0.173380
v 0.163320 -0.095671 0.163320
v 0.146984 -0.138893 0.146984
v 0.125000 -0.176777 0.125000
v 0.098212 -0.207867 0.098212
v 0.067650 -0.230970 0.067650
v 0.034487 -0.245196 0.034487
v 0.027097 0.245196 0.040553
v 0.053152 0.230970 0.079547
v 0.077165 0.207867 0.115485
v 0.098212 0.176777 0.146984
v 0.115485 0.138893 0.172835
v 0.128320 0.095671 0.192044
v 0.136224 0.048773 0.203873
v 0.138893 -0.000000 0.207867
v 0.136224 -0.048773 0.203873
v 0.128320 -0.095671 0.192044
v 0.115485 -0.138893 0.172835
v 0.098212 -0.176777 0.146984
v 0.077165 -0.207867 0.115485
v 0.053152 -0.230970 0.079547
v 0.027097 -0.245196 0.040553
v 0.018664 0.245196 0.045060
v 0.036612 0.230970 0.088388
v 0.053152 0.207867 0.128320
v 0.067650 0.176777 0.163320
v 0.079547 0.138893 0.192044
v 0.088388 0.095671 0.213388
v 0.093833 0.048773 0.226532
v 0.095671 -0.000000 0.230970
v 0.093833 -0.048773 0.226532
v 0.088388 -0.095671 0.213388
v 0.079547 -0.138893 0.192044
v 0.067650 -0.176777 0.163320
v 0.053152 -0.207867 0.128320
v 0.036612 -0.230970 0.088388
v 0.018664 -0.245196 0.045060
v 0.009515 0.245196 0.047835
v 0.018664 0.230970 0.093833
v 0.027097 0.207867 0.136224
v 0.034487 0.176777 0.173380
v 0.040553 0.138893 0.203873
v 0.045060 0.095671 0.226532
v 0.047835 0.048773 0.240485
v 0.048773 -0.000000 0.245196
v 0.047835 -0.048773 0.240485
v 0.045060 -0.095671 0.226532
v 0.040553 -0.138893 0.203873
v 0.034487 -0.176777 0.173380
v 0.027097 -0.207867 0.136224
v 0.018664 -0.230970 0.093833
v 0.009515 -0.245196 0.047835
v 0.000000 0.245196 0.048773
v 0.000000 0.230970 0.095671
v 0.000000 0.207867 0.138893
v 0.000000 0.176777 0.176777
v 0.000000 0.138893 0.207867
v 0.000000 0.095671 0.230970
v 0.000000 0.048773 0.245196
v 0.000000 -0.000000 0.250000
v 0.000000 -0.048773 0.245196
v 0.000000 -0.095671 0.230970
v 0.000000 -0.138893 0.207867
v 0.000000 -0.176777 0.176777
v 0.000000 -0.207867 0.138893
v 0.000000 -0.230970 0.095671
v 0.000000 -0.245196 0.048773
v -0.009515 0.245196 0.047835
v -0.018664 0.230970 0.093833
v -0.027097 0.207867 0.136224
v -0.034487 0.176777 0.173380
v -0.040553 0.138893 0.203873
v -0.045060 0.095671 0.226532
v -0.047835 0.048773 0.240485
v -0.048773 -0.000000 0.245196
v -0.047835 -0.048773 0.240485
v -0.045060 -0.095671 0.226532
v -0.040553 -0.138893 0.203873
v -0.034487 -0.176777 0.173380
v -0.027097 -0.207867 0.136224
v -0.018664 -0.230970 0.093833
v -0.009515 -0.245196 0.047835
v -0.018664 0.245196 0.045060
v -0.036612 0.230970 0.088388
v -0.053152 0.207867 0.128320
v -0.067650 0.176777 0.163320
v -0.079547 0.138893 0.192044
v -0.088388 0.095671 0.213388
v -0.093833 0.048773 0.226532
v -0.095671 -0.000000 0.230970
v -0.093833 -0.048773 0.226532
v -0.088388 -0.095671 0.213388
v -0.079547 -0.138893 0.192044
v -0.067650 -0.176777 0.163320
v -0.053152 -0.207867 0.128320
v -0.036612 -0.230970 0.088388
v -0.018664 -0.245196 0.045060
v -0.027097 0.245196 0.040553
v -0.053152 0.230970 0.079547
v -0.077165 0.207867 0.115485
v -0.098212 0.176777 0.146984
v -0.115485 0.138893 0.172835
v -0.128320 0.095671 0.192044
v -0.136224 0.048773 0.203873
v -0.138893 -0.000000 0.207867
v -0.136224 -0.048773 0.203873
v -0.128320 -0.095671 0.192044
v -0.115485 -0.138893 0.172835
v -0.098212 -0.176777 0.146984
v -0.077165 -0.207867 0.115485
v -0.053152 -0.230970 0.079547
v -0.027097 -0.245196 0.040553
v -0.034487 0.245196 0.034487
v -0.067650 0.230970 0.067650
v -0.098212 0.207867 0.098212
v -0.125000 0.176777 0.125000
v -0.146984 0.138893 0.146984
v -0.163320 0.095671 0.163320
v -0.173380 0.048773 0.173380
v -0.176777 -0.000000 0.176777
v -0.173380 -0.048773 0.173380
v -0.163320 -0.095671 0.163320
v -0.146984 -0.138893 0.146984
v -0.125000 -0.176777 0.125000
v -0.098212 -0.207867 0.098212
v -0.067650 -0.230970 0.067650
v -0.034487 -0.245196 0.034487
v 0.000000 -0.250000 -0.000000
v -0.040553 0.245196 0.027097
v -0.079547 0.230970 0.053152
v -0.115485 0.207867 0.077165
v -0.146985 0.176777 0.098212
v -0.172835 0.138893 0.115485
v -0.192044 0.095671 0.128320
v -0.203873 0.048773 0.136224
v -0.207867 -0.000000 0.138892
v -0.203873 -0.048773 0.136224
v -0.192044 -0.095671 0.128320
v -0.172835 -0.138893 0.115485
v -0.146985 -0.176777 0.098212
v -0.115485 -0.207867 0.077165
v -0.079547 -0.230970 0.053152
v -0.040553 -0.245196 0.027097
v -0.045060 0.245196 0.018664
v -0.088388 0.230970 0.036612
v -0.128320 0.207867 0.053152
v -0.163320 0.176777 0.067650
v -0.192044 0.138893 0.079547
v -0.213388 0.095671 0.088388
v -0.226532 0.048773 0.093833
v -0.230970 -0.000000 0.095671
v -0.226532 -0.048773 0.093833
v -0.213388 -0.095671 0.088388
v -0.192044 -0.138893 0.079547
v -0.163320 -0.176777 0.067650
v -0.128320 -0.207867 0.053152
v -0.088388 -0.230970 0.036612
v -0.045060 -0.245196 0.018664
v -0.047835 0.245196 0.009515
v -0.093833 0.230970 0.018664
v -0.136224 0.207867 0.027097
v -0.173380 0.176777 0.034487
v -0.203873 0.138893 0.040553
v -0.226532 0.095671 0.045060
v -0.240485 0.048773 0.047835
v -0.245196 -0.000000 0.048772
v -0.240485 -0.048773 0.047835
v -0.226532 -0.095671 0.045060
v -0.203873 -0.138893 0.040553
v -0.173380 -0.176777 0.034487
v -0.136224 -0.207867 0.027097
v -0.093833 -0.230970 0.018664
v -0.047835 -0.245196 0.009515
v -0.048773 0.245196 0.000000
v -0.095671 0.230970 0.000000
v -0.138893 0.207867 0.000000
v -0.176777 0.176777 0.000000
v -0.207867 0.138893 0.000000
v -0.230970 0.095671 0.000000
v -0.245196 0.048773 0.000000
v -0.250000 0.000000 0.000000
v -0.245196 -0.048773 -0.000000
v -0.230970 -0.095671 -0.000000
v -0.207867 -0.138893 -0.000000
v -0.176777 -0.176777 -0.000000
v -0.138893 -0.207867 -0.000000
v -0.095671 -0.230970 -0.000000
v -0.048773 -0.245196 -0.000000
v -0.047835 0.245196 -0.009515
v -0.093833 0.230970 -0.018664
v -0.136224 0.207867 -0.027097
v -0.173380 0.176777 -0.034487
v -0.203873 0.138893 -0.040553
v -0.226532 0.095671 -0.045060
v -0.240485 0.048773 -0.047835
v -0.245196 0.000000 -0.048773
v -0.240485 -0.048773 -0.047835
v -0.226532 -0.095671 -0.045060
v -0.203873 -0.138893 -0.040553
v -0.173380 -0.176777 -0.034487
v -0.136224 -0.207867 -0.027097
v -0.093833 -0.230970 -0.018664
v -0.047835 -0.245196 -0.009515
v -0.045060 0.245196 -0.018664
v -0.088388 0.230970 -0.036612
v -0.128320 0.207867 -0.053152
v -0.163320 0.176777 -0.067650
v -0.192044 0.138893 -0.079547
v -0.213388 0.095671 -0.088388
v -0.226532 0.048773 -0.093833
v -0.230970 0.000000 -0.095671
v -0.226532 -0.048773 -0.093833
v -0.213388 -0.095671 -0.088388
v -0.192044 -0.138893 -0.079547
v -0.163320 -0.176777 -0.067650
v -0.128320 -0.207867 -0.053152
v -0.088388 -0.230970 -0.036612
v -0.045060 -0.245196 -0.018664
v -0.040553 0.245196 -0.027097
v -0.079547 0.230970 -0.053152
v -0.115485 0.207867 -0.077165
v -0.146984 0.176777 -0.098212
v -0.172835 0.138893 -0.115485
v -0.192044 0.095671 -0.128320
v -0.203873 0.048773 -0.136224
v -0.207867 0.000000 -0.138893
v -0.203873 -0.048773 -0.136224
v -0.192044 -0.095671 -0.128320
v -0.172835 -0.138893 -0.115485
v -0.146984 -0.176777 -0.098212
v -0.115485 -0.207867 -0.077165
v -0.079547 -0.230970 -0.053152
v -0.040553 -0.245196 -0.027097
v -0.034487 0.245196 -0.034487
v -0.067650 0.230970 -0.067650
v -0.098212 0.207867 -0.098212
v -0.125000 0.176777 -0.125000
v -0.146984 0.138893 -0.146984
v -0.163320 0.095671 -0.163320
v -0.173380 0.048773 -0.173380
v -0.176777 0.000000 -0.176777
v -0.173380 -0.048773 -0.173380
v -0.163320 -0.095671 -0.163320
v -0.146984 -0.138893 -0.146984
v -0.125000 -0.176777 -0.125000
v -0.098212 -0.207867 -0.098212
v -0.067650 -0.230970 -0.067650
v -0.034487 -0.245196 -0.034487
v -0.027097 0.245196 -0.040553
v -0.053152 0.230970 -0.079547
v -0.077164 0.207867 -0.115485
v -0.098212 0.176777 -0.146984
v -0.115485 0.138893 -0.172835
v -0.128320 0.095671 -0.192044
v -0.136224 0.048773 -0.203873
v -0.138892 0.000000 -0.207867
v -0.136224 -0.048773 -0.203873
v -0.128320 -0.095671 -0.192044
v -0.115485 -0.138893 -0.172835
v -0.098212 -0.176777 -0.146984
v -0.077164 -0.207867 -0.115485
v -0.053152 -0.230970 -0.079547
v -0.027097 -0.245196 -0.040553
v -0.018664 0.245196 -0.045060
v -0.036612 0.230970 -0.088388
v -0.053152 0.207867 -0.128320
v -0.067650 0.176777 -0.163320
v -0.079547 0.138893 -0.192044
v -0.088388 0.095671 -0.213388
v -0.093833 0.048773 -0.226532
v -0.095671 0.000000 -0.230970
v -0.093833 -0.048773 -0.226532
v -0.088388 -0.095671 -0.213388
v -0.079547 -0.138893 -0.192044
v -0.067650 -0.176777 -0.163320
v -0.053152 -0.207867 -0.128320
v -0.036612 -0.230970 -0.088388
v -0.018664 -0.245196 -0.045060
v -0.009515 0.245196 -0.047835
v -0.018664 0.230970 -0.093833
v -0.027097 0.207867 -0.136224
v -0.034487 0.176777 -0.173380
v -0.040553 0.138893 -0.203873
v -0.045060 0.095671 -0.226532
v -0.047835 0.048773 -0.240485
v -0.048772 0.000000 -0.245196
v -0.047835 -0.048773 -0.240485
v -0.045060 -0.095671 -0.226532
v -0.040553 -0.138893 -0.203873
v -0.034487 -0.176777 -0.173380
v -0.027097 -0.207867 -0.136224
v -0.018664 -0.230970 -0.093833
v -0.009515 -0.245196 -0.047835
v 0.000000 0.245196 -0.048773
v 0.000000 0.230970 -0.095671
v 0.000000 0.176777 -0.176777
v 0.000000 0.095671 -0.230970
v 0.000000 -0.095671 -0.230970
v 0.000000 -0.176777 -0.176777
v 0.000000 -0.207867 -0.138892
v 0.000000 -0.230970 -0.095671
v 0.000000 -0.245196 -0.048773
vn 0.0938 0.2890 -0.9527
vn 0.0286 -0.9566 -0.2902
vn 0.0975 0.0975 -0.9904
vn 0.0976 0.0976 -0.9904
vn 0.0097 0.9951 -0.0980
vn 0.0097 -0.9951 -0.0980
vn 0.0975 -0.0975 -0.9904
vn 0.0975 -0.0976 -0.9904
vn 0.0286 0.9566 -0.2902
vn 0.0938 -0.2890 -0.9527
vn 0.0464 0.8810 -0.4709
vn 0.0865 -0.4696 -0.8786
vn 0.0624 0.7715 -0.6332
vn 0.0759 -0.6326 -0.7708
vn 0.0759 0.6326 -0.7708
vn 0.0624 -0.7715 -0.6331
vn 0.0623 -0.7715 -0.6331
vn 0.0865 0.4696 -0.8786
vn 0.0464 -0.8810 -0.4709
vn 0.2563 0.4696 -0.8448
vn 0.1374 -0.8810 -0.4528
vn 0.2779 0.2890 -0.9161
vn 0.0846 -0.9566 -0.2790
vn 0.2889 0.0975 -0.9524
vn 0.0286 0.9951 -0.0943
vn 0.0286 -0.9951 -0.0943
vn 0.2889 -0.0975 -0.9524
vn 0.0846 0.9566 -0.2790
vn 0.2779 -0.2890 -0.9161
vn 0.1374 0.8810 -0.4528
vn 0.2563 -0.4696 -0.8448
vn 0.1847 0.7715 -0.6088
vn 0.2248 -0.6326 -0.7412
vn 0.2248 0.6326 -0.7412
vn 0.1847 -0.7715 -0.6088
vn 0.4513 -0.2890 -0.8443
vn 0.2231 0.8810 -0.4173
vn 0.2230 0.8810 -0.4173
vn 0.4162 -0.4696 -0.7786
vn 0.2999 0.7715 -0.5611
vn 0.3651 -0.6326 -0.6831
vn 0.3651 0.6326 -0.6831
vn 0.2999 -0.7715 -0.5611
vn 0.4162 0.4696 -0.7786
vn 0.2231 -0.8810 -0.4173
vn 0.4513 0.2890 -0.8443
vn 0.1374 -0.9566 -0.2571
vn 0.4692 0.0975 -0.8777
vn 0.0464 0.9951 -0.0869
vn 0.0464 -0.9951 -0.0869
vn 0.4692 -0.0975 -0.8777
vn 0.1374 0.9566 -0.2571
vn 0.3002 -0.8810 -0.3658
vn 0.6073 0.2890 -0.7400
vn 0.1850 -0.9566 -0.2254
vn 0.6314 0.0976 -0.7693
vn 0.0625 0.9951 -0.0761
vn 0.0625 -0.9951 -0.0761
vn 0.6314 -0.0976 -0.7693
vn 0.6314 -0.0975 -0.7693
vn 0.1850 0.9566 -0.2254
vn 0.6073 -0.2890 -0.7400
vn 0.3002 0.8810 -0.3658
vn 0.5601 -0.4696 -0.6825
vn 0.4036 0.7715 -0.4918
vn 0.4913 -0.6326 -0.5987
vn 0.4914 -0.6326 -0.5987
vn 0.4913 0.6326 -0.5987
vn 0.4036 -0.7715 -0.4918
vn 0.5601 0.4696 -0.6825
vn 0.3658 0.8810 -0.3002
vn 0.6825 -0.4696 -0.5601
vn 0.4918 0.7715 -0.4036
vn 0.5987 -0.6326 -0.4913
vn 0.5987 -0.6326 -0.4914
vn 0.5987 0.6326 -0.4913
vn 0.4918 -0.7715 -0.4036
vn 0.6825 0.4696 -0.5601
vn 0.3658 -0.8810 -0.3002
vn 0.7400 0.2890 -0.6073
vn 0.2254 -0.9566 -0.1850
vn 0.7693 0.0976 -0.6314
vn 0.0761 0.9951 -0.0625
vn 0.0761 -0.9951 -0.0625
vn 0.7693 -0.0976 -0.6314
vn 0.2254 0.9566 -0.1850
vn 0.2254 0.9566 -0.1849
vn 0.7400 -0.2890 -0.6073
vn 0.8443 0.2890 -0.4513
vn 0.2571 -0.9566 -0.1374
vn 0.8777 0.0976 -0.4691
vn 0.8777 0.0975 -0.4691
vn 0.0869 0.9951 -0.0464
vn 0.0869 -0.9951 -0.0464
vn 0.8777 -0.0976 -0.4691
vn 0.8777 -0.0976 -0.4692
vn 0.2571 0.9566 -0.1374
vn 0.8443 -0.2890 -0.4513
vn 0.4173 0.8810 -0.2231
vn 0.4173 0.8810 -0.2230
vn 0.7786 -0.4696 -0.4162
vn 0.5611 0.7715 -0.2999
vn 0.6831 -0.6326 -0.3651
vn 0.6831 0.6326 -0.3651
vn 0.5611 -0.7715 -0.2999
vn 0.7786 0.4696 -0.4162
vn 0.4173 -0.8810 -0.2231
vn 0.8449 -0.4696 -0.2563
vn 0.6088 0.7715 -0.1847
vn 0.7412 -0.6326 -0.2248
vn 0.7412 0.6326 -0.2248
vn 0.6088 -0.7715 -0.1847
vn 0.8449 0.4696 -0.2563
vn 0.4528 -0.8810 -0.1374
vn 0.9161 0.2890 -0.2779
vn 0.2790 -0.9566 -0.0846
vn 0.9524 0.0975 -0.2889
vn 0.0943 0.9951 -0.0286
vn 0.0943 -0.9951 -0.0286
vn 0.9524 -0.0975 -0.2889
vn 0.2790 0.9566 -0.0846
vn 0.9161 -0.2890 -0.2779
vn 0.4528 0.8810 -0.1374
vn 0.2902 -0.9566 -0.0286
vn 0.2901 -0.9566 -0.0286
vn 0.9904 0.0975 -0.0975
vn 0.9904 0.0976 -0.0976
vn 0.0980 0.9951 -0.0097
vn 0.0980 -0.9951 -0.0097
vn 0.9904 -0.0975 -0.0975
vn 0.2902 0.9566 -0.0286
vn 0.9527 -0.2890 -0.0938
vn 0.4709 0.8810 -0.0464
vn 0.8786 -0.4696 -0.0865
vn 0.6332 0.7715 -0.0624
vn 0.7708 -0.6326 -0.0759
vn 0.7708 0.6326 -0.0759
vn 0.6332 -0.7715 -0.0624
vn 0.8786 0.4696 -0.0865
vn 0.4709 -0.8810 -0.0464
vn 0.9527 0.2890 -0.0938
vn 0.7708 -0.6326 0.0759
vn 0.7708 0.6326 0.0759
vn 0.6332 -0.7715 0.0624
vn 0.8786 0.4696 0.0865
vn 0.4709 -0.8810 0.0464
vn 0.9527 0.2890 0.0938
vn 0.2902 -0.9566 0.0286
vn 0.9904 0.0975 0.0975
vn 0.9904 0.0975 0.0976
vn 0.0980 0.9951 0.0097
vn 0.0980 -0.9951 0.0097
vn 0.9904 -0.0975 0.0975
vn 0.9904 -0.0976 0.0975
vn 0.2902 0.9566 0.0286
vn 0.9527 -0.2890 0.0938
vn 0.4709 0.8810 0.0464
vn 0.8786 -0.4696 0.0865
vn 0.6332 0.7715 0.0624
vn 0.0943 0.9951 0.0286
vn 0.0943 -0.9951 0.0286
vn 0.9524 -0.0975 0.2889
vn 0.2790 0.9566 0.0846
vn 0.9161 -0.2890 0.2779
vn 0.4528 0.8810 0.1374
vn 0.8448 -0.4696 0.2563
vn 0.6088 0.7715 0.1847
vn 0.7412 -0.6326 0.2248
vn 0.7412 0.6326 0.2248
vn 0.6088 -0.7715 0.1847
vn 0.8448 0.4696 0.2563
vn 0.4528 -0.8810 0.1374
vn 0.9161 0.2890 0.2779
vn 0.2790 -0.9566 0.0846
vn 0.9524 0.0975 0.2889
vn 0.6831 0.6326 0.3651
vn 0.5611 -0.7715 0.2999
vn 0.7786 0.4696 0.4162
vn 0.4173 -0.8810 0.2231
vn 0.8443 0.2890 0.4513
vn 0.2571 -0.9566 0.1374
vn 0.8777 0.0975 0.4692
vn 0.0869 0.9951 0.0464
vn 0.0869 -0.9951 0.0464
vn 0.8777 -0.0975 0.4692
vn 0.2571 0.9566 0.1374
vn 0.8443 -0.2890 0.4513
vn 0.4173 0.8810 0.2231
vn 0.4173 0.8810 0.2230
vn 0.7786 -0.4696 0.4162
vn 0.5611 0.7715 0.2999
vn 0.6831 -0.6326 0.3651
vn 0.7693 -0.0976 0.6314
vn 0.2254 0.9566 0.1850
vn 0.7400 -0.2890 0.6073
vn 0.3658 0.8810 0.3002
vn 0.6825 -0.4696 0.5601
vn 0.4918 0.7715 0.4036
vn 0.5987 -0.6326 0.4914
vn 0.5987 0.6326 0.4914
vn 0.4918 -0.7715 0.4036
vn 0.6825 0.4696 0.5601
vn 0.6824 0.4696 0.5601
vn 0.3658 -0.8810 0.3002
vn 0.7400 0.2890 0.6073
vn 0.2254 -0.9566 0.1850
vn 0.7693 0.0976 0.6314
vn 0.0761 0.9951 0.0625
vn 0.0761 -0.9951 0.0625
vn 0.4036 -0.7715 0.4918
vn 0.5601 0.4696 0.6825
vn 0.3002 -0.8810 0.3658
vn 0.6073 0.2890 0.7400
vn 0.1850 -0.9566 0.2254
vn 0.6314 0.0976 0.7693
vn 0.6314 0.0975 0.7693
vn 0.0625 0.9951 0.0761
vn 0.0625 -0.9951 0.0761
vn 0.6314 -0.0976 0.7693
vn 0.1850 0.9566 0.2254
vn 0.6073 -0.2890 0.7400
vn 0.3002 0.8810 0.3658
vn 0.5601 -0.4696 0.6825
vn 0.4036 0.7715 0.4918
vn 0.4913 -0.6326 0.5987
vn 0.4913 0.6326 0.5987
vn 0.1374 0.9566 0.2571
vn 0.4513 -0.2890 0.8443
vn 0.2231 0.8810 0.4173
vn 0.2230 0.8810 0.4173
vn 0.4162 -0.4696 0.7786
vn 0.2999 0.7715 0.5611
vn 0.3651 -0.6326 0.6831
vn 0.3651 0.6326 0.6831
vn 0.2999 -0.7715 0.5611
vn 0.4162 0.4696 0.7786
vn 0.2231 -0.8810 0.4173
vn 0.4513 0.2890 0.8443
vn 0.1374 -0.9566 0.2571
vn 0.4692 0.0975 0.8777
vn 0.0464 0.9951 0.0869
vn 0.0464 -0.9951 0.0869
vn 0.4692 -0.0975 0.8777
vn 0.2563 0.4696 0.8448
vn 0.1374 -0.8810 0.4528
vn 0.2779 0.2890 0.9161
vn 0.0846 -0.9566 0.2790
vn 0.2889 0.0975 0.9524
vn 0.0286 0.9951 0.0943
vn 0.0286 -0.9951 0.0943
vn 0.2889 -0.0975 0.9524
vn 0.0846 0.9566 0.2790
vn 0.2779 -0.2890 0.9161
vn 0.1374 0.8810 0.4528
vn 0.2563 -0.4696 0.8448
vn 0.1847 0.7715 0.6088
vn 0.2248 -0.6326 0.7412
vn 0.2248 0.6326 0.7412
vn 0.1847 -0.7715 0.6088
vn 0.0938 -0.2890 0.9527
vn 0.0464 0.8810 0.4709
vn 0.0865 -0.4696 0.8786
vn 0.0624 0.7715 0.6332
vn 0.0759 -0.6326 0.7708
vn 0.0759 0.6326 0.7708
vn 0.0624 -0.7715 0.6332
vn 0.0865 0.4696 0.8786
vn 0.0464 -0.8810 0.4709
vn 0.0938 0.2890 0.9527
vn 0.0286 -0.9566 0.2902
vn 0.0975 0.0975 0.9904
vn 0.0976 0.0976 0.9904
vn 0.0097 0.9951 0.0980
vn 0.0097 -0.9951 0.0980
vn 0.0975 -0.0975 0.9904
vn 0.0286 0.9566 0.2902
vn -0.0464 -0.8810 0.4709
vn -0.0938 0.2890 0.9527
vn -0.0286 -0.9566 0.2902
vn -0.0975 0.0975 0.9904
vn -0.0976 0.0975 0.9904
vn -0.0097 0.9951 0.0980
vn -0.0097 -0.9951 0.0980
vn -0.0975 -0.0975 0.9904
vn -0.0975 -0.0976 0.9904
vn -0.0286 0.9566 0.2902
vn -0.0938 -0.2890 0.9527
vn -0.0464 0.8810 0.4709
vn -0.0865 -0.4696 0.8786
vn -0.0624 0.7715 0.6332
vn -0.0759 -0.6326 0.7708
vn -0.0759 0.6326 0.7708
vn -0.0624 -0.7715 0.6332
vn -0.0865 0.4696 0.8786
vn -0.2563 -0.4696 0.8448
vn -0.1847 0.7715 0.6088
vn -0.2248 -0.6326 0.7412
vn -0.2248 0.6326 0.7412
vn -0.1847 -0.7715 0.6088
vn -0.2563 0.4696 0.8448
vn -0.1374 -0.8810 0.4528
vn -0.2779 0.2890 0.9161
vn -0.0846 -0.9566 0.2790
vn -0.2889 0.0975 0.9524
vn -0.0286 0.9951 0.0943
vn -0.0286 -0.9951 0.0943
vn -0.2889 -0.0975 0.9524
vn -0.0846 0.9566 0.2790
vn -0.2779 -0.2890 0.9161
vn -0.1374 0.8810 0.4528
vn -0.1374 -0.9566 0.2571
vn -0.4692 0.0975 0.8777
vn -0.0464 0.9951 0.0869
vn -0.0464 -0.9951 0.0869
vn -0.4692 -0.0975 0.8777
vn -0.1374 0.9566 0.2571
vn -0.4513 -0.2890 0.8443
vn -0.2231 0.8810 0.4173
vn -0.2230 0.8810 0.4173
vn -0.4162 -0.4696 0.7786
vn -0.2999 0.7715 0.5611
vn -0.3651 -0.6326 0.6831
vn -0.3651 0.6326 0.6831
vn -0.2999 -0.7715 0.5611
vn -0.4162 0.4696 0.7786
vn -0.2231 -0.8810 0.4173
vn -0.4513 0.2890 0.8443
vn -0.4036 0.7715 0.4918
vn -0.4913 -0.6326 0.5987
vn -0.4913 0.6326 0.5987
vn -0.4914 0.6326 0.5987
vn -0.4036 -0.7715 0.4918
vn -0.5601 0.4696 0.6825
vn -0.3002 -0.8810 0.3658
vn -0.6073 0.2890 0.7400
vn -0.1850 -0.9566 0.2254
vn -0.6314 0.0976 0.7693
vn -0.0625 0.9951 0.0761
vn -0.0625 -0.9951 0.0761
vn -0.6314 -0.0976 0.7693
vn -0.1850 0.9566 0.2254
vn -0.6073 -0.2890 0.7400
vn -0.3002 0.8810 0.3658
vn -0.5601 -0.4696 0.6825
vn -0.7693 0.0975 0.6314
vn -0.0761 0.9951 0.0625
vn -0.0761 -0.9951 0.0625
vn -0.7693 -0.0975 0.6314
vn -0.7693 -0.0976 0.6314
vn -0.2254 0.9566 0.1850
vn -0.2254 0.9566 0.1849
vn -0.7400 -0.2890 0.6073
vn -0.3658 0.8810 0.3002
vn -0.6825 -0.4696 0.5601
vn -0.4918 0.7715 0.4036
vn -0.5987 -0.6326 0.4914
vn -0.5987 0.6326 0.4914
vn -0.4918 -0.7715 0.4036
vn -0.6825 0.4696 0.5601
vn -0.3658 -0.8810 0.3002
vn -0.7400 0.2890 0.6073
vn -0.2254 -0.9566 0.1850
vn -0.6831 -0.6326 0.3651
vn -0.6831 0.6326 0.3651
vn -0.5611 -0.7715 0.2999
vn -0.7786 0.4696 0.4162
vn -0.4173 -0.8810 0.2231
vn -0.8443 0.2890 0.4513
vn -0.2571 -0.9566 0.1374
vn -0.8777 0.0975 0.4692
vn -0.0869 0.9951 0.0464
vn -0.0869 -0.9951 0.0464
vn -0.8777 -0.0975 0.4692
vn -0.2571 0.9566 0.1374
vn -0.8443 -0.2890 0.4513
vn -0.4173 0.8810 0.2231
vn -0.4173 0.8810 0.2230
vn -0.7786 -0.4696 0.4162
vn -0.5611 0.7715 0.2999
vn -0.0943 0.9951 0.0286
vn -0.0943 -0.9951 0.0286
vn -0.9524 -0.0975 0.2889
vn -0.2790 0.9566 0.0846
vn -0.9161 -0.2890 0.2779
vn -0.4528 0.8810 0.1374
vn -0.8448 -0.4696 0.2563
vn -0.6088 0.7715 0.1847
vn -0.7412 -0.6326 0.2248
vn -0.7412 0.6326 0.2248
vn -0.6088 -0.7715 0.1847
vn -0.8448 0.4696 0.2563
vn -0.4528 -0.8810 0.1374
vn -0.9161 0.2890 0.2779
vn -0.2790 -0.9566 0.0846
vn -0.9524 0.0975 0.2889
vn -0.7708 0.6326 0.0759
vn -0.6332 -0.7715 0.0624
vn -0.8786 0.4696 0.0865
vn -0.4709 -0.8810 0.0464
vn -0.9527 0.2890 0.0938
vn -0.2902 -0.9566 0.0286
vn -0.2901 -0.9566 0.0286
vn -0.9904 0.0975 0.0976
vn -0.9904 0.0976 0.0976
vn -0.0980 0.9951 0.0097
vn -0.0980 -0.9951 0.0097
vn -0.9904 -0.0975 0.0976
vn -0.9904 -0.0975 0.0975
vn -0.2902 0.9566 0.0286
vn -0.9527 -0.2890 0.0938
vn -0.4709 0.8810 0.0464
vn -0.8786 -0.4696 0.0865
vn -0.6332 0.7715 0.0624
vn -0.7708 -0.6326 0.0759
vn -0.9904 -0.0975 -0.0975
vn -0.9904 -0.0976 -0.0975
vn -0.2902 0.9566 -0.0286
vn -0.9527 -0.2890 -0.0938
vn -0.4709 0.8810 -0.0464
vn -0.8786 -0.4696 -0.0865
vn -0.6332 0.7715 -0.0624
vn -0.7708 -0.6326 -0.0759
vn -0.7708 0.6326 -0.0759
vn -0.6332 -0.7715 -0.0624
vn -0.8786 0.4696 -0.0865
vn -0.4709 -0.8810 -0.0464
vn -0.9527 0.2890 -0.0938
vn -0.2902 -0.9566 -0.0286
vn -0.9904 0.0975 -0.0975
vn -0.9904 0.0975 -0.0976
vn -0.0980 0.9951 -0.0097
vn -0.0980 -0.9951 -0.0097
vn -0.6088 -0.7715 -0.1847
vn -0.8448 0.4696 -0.2563
vn -0.4528 -0.8810 -0.1374
vn -0.9161 0.2890 -0.2779
vn -0.2790 -0.9566 -0.0846
vn -0.9524 0.0975 -0.2889
vn -0.0943 0.9951 -0.0286
vn -0.0943 -0.9951 -0.0286
vn -0.9524 -0.0975 -0.2889
vn -0.2790 0.9566 -0.0846
vn -0.9161 -0.2890 -0.2779
vn -0.4528 0.8810 -0.1374
vn -0.8448 -0.4696 -0.2563
vn -0.6088 0.7715 -0.1847
vn -0.7412 -0.6326 -0.2248
vn -0.7412 0.6326 -0.2248
vn -0.8443 -0.2890 -0.4513
vn -0.4173 0.8810 -0.2231
vn -0.4173 0.8810 -0.2230
vn -0.7786 -0.4696 -0.4162
vn -0.5611 0.7715 -0.2999
vn -0.6831 -0.6326 -0.3651
vn -0.6831 0.6326 -0.3651
vn -0.5611 -0.7715 -0.2999
vn -0.7786 0.4696 -0.4162
vn -0.4173 -0.8810 -0.2231
vn -0.8443 0.2890 -0.4513
vn -0.2571 -0.9566 -0.1374
vn -0.8777 0.0975 -0.4692
vn -0.0869 0.9951 -0.0464
vn -0.0869 -0.9951 -0.0464
vn -0.8777 -0.0975 -0.4692
vn -0.2571 0.9566 -0.1374
vn -0.3658 -0.8810 -0.3002
vn -0.7400 0.2890 -0.6073
vn -0.2254 -0.9566 -0.1850
vn -0.7693 0.0976 -0.6314
vn -0.0761 0.9951 -0.0625
vn -0.0761 -0.9951 -0.0625
vn -0.7693 -0.0976 -0.6314
vn -0.7693 -0.0975 -0.6314
vn -0.2254 0.9566 -0.1850
vn -0.7400 -0.2890 -0.6073
vn -0.3658 0.8810 -0.3002
vn -0.6825 -0.4696 -0.5601
vn -0.4918 0.7715 -0.4036
vn -0.5987 -0.6326 -0.4913
vn -0.5987 0.6326 -0.4913
vn -0.5987 0.6326 -0.4914
vn -0.4918 -0.7715 -0.4036
vn -0.6825 0.4696 -0.5601
vn -0.3002 0.8810 -0.3658
vn -0.5601 -0.4696 -0.6825
vn -0.4036 0.7715 -0.4918
vn -0.4913 -0.6326 -0.5987
vn -0.4913 0.6326 -0.5987
vn -0.4036 -0.7715 -0.4918
vn -0.5601 0.4696 -0.6825
vn -0.3002 -0.8810 -0.3658
vn -0.6073 0.2890 -0.7400
vn -0.1850 -0.9566 -0.2254
vn -0.6314 0.0975 -0.7693
vn -0.0625 0.9951 -0.0761
vn -0.0625 -0.9951 -0.0761
vn -0.6314 -0.0975 -0.7693
vn -0.6314 -0.0976 -0.7693
vn -0.1850 0.9566 -0.2254
vn -0.1849 0.9566 -0.2254
vn -0.6073 -0.2890 -0.7400
vn -0.4513 0.2890 -0.8443
vn -0.1374 -0.9566 -0.2571
vn -0.4692 0.0975 -0.8777
vn -0.0464 0.9951 -0.0869
vn -0.0464 -0.9951 -0.0869
vn -0.4692 -0.0975 -0.8777
vn -0.1374 0.9566 -0.2571
vn -0.4513 -0.2890 -0.8443
vn -0.2231 0.8810 -0.4173
vn -0.4162 -0.4696 -0.7786
vn -0.2999 0.7715 -0.5611
vn -0.3651 -0.6326 -0.6831
vn -0.3651 0.6326 -0.6831
vn -0.2999 -0.7715 -0.5611
vn -0.4162 0.4696 -0.7786
vn -0.2231 -0.8810 -0.4173
vn -0.2563 -0.4696 -0.8448
vn -0.1847 0.7715 -0.6088
vn -0.2248 -0.6326 -0.7412
vn -0.2248 0.6326 -0.7412
vn -0.1847 -0.7715 -0.6088
vn -0.2563 0.4696 -0.8448
vn -0.1374 -0.8810 -0.4528
vn -0.2779 0.2890 -0.9161
vn -0.0846 -0.9566 -0.2790
vn -0.2889 0.0975 -0.9524
vn -0.0286 0.9951 -0.0943
vn -0.0286 -0.9951 -0.0943
vn -0.2889 -0.0975 -0.9524
vn -0.0846 0.9566 -0.2790
vn -0.2779 -0.2890 -0.9161
vn -0.1374 0.8810 -0.4528
vn -0.0286 -0.9566 -0.2902
vn -0.0286 -0.9566 -0.2901
vn -0.0975 0.0975 -0.9904
vn -0.0976 0.0976 -0.9904
vn -0.0097 0.9951 -0.0980
vn -0.0097 -0.9951 -0.0980
vn -0.0975 -0.0975 -0.9904
vn -0.0286 0.9566 -0.2902
vn -0.0938 -0.2890 -0.9527
vn -0.0464 0.8810 -0.4709
vn -0.0865 -0.4696 -0.8786
vn -0.0624 0.7715 -0.6332
vn -0.0759 -0.6326 -0.7708
vn -0.0759 0.6326 -0.7708
vn -0.0624 -0.7715 -0.6331
vn -0.0623 -0.7715 -0.6331
vn -0.0865 0.4696 -0.8786
vn -0.0464 -0.8810 -0.4709
vn -0.0938 0.2890 -0.9527
vn 0.0976 -0.0975 -0.9904
vn 0.0624 -0.7715 -0.6332
vn 0.2230 -0.8810 -0.4173
vn 0.1849 -0.9566 -0.2254
vn 0.4914 0.6326 -0.5987
vn 0.5987 0.6326 -0.4914
vn 0.8777 0.0976 -0.4692
vn 0.8777 -0.0975 -0.4691
vn 0.9904 -0.0976 -0.0976
vn 0.2901 0.9566 -0.0286
vn 0.9904 0.0976 0.0975
vn 0.9904 -0.0975 0.0976
vn 0.2901 0.9566 0.0286
vn 0.4173 -0.8810 0.2230
vn 0.6824 -0.4696 0.5601
vn 0.7693 0.0975 0.6314
vn 0.2230 -0.8810 0.4173
vn 0.0976 -0.0976 0.9904
vn -0.0975 0.0976 0.9904
vn -0.0976 -0.0975 0.9904
vn -0.0286 0.9566 0.2901
vn -0.2230 -0.8810 0.4173
vn -0.4914 -0.6326 0.5987
vn -0.6314 0.0975 0.7693
vn -0.7693 0.0976 0.6314
vn -0.9904 0.0975 0.0975
vn -0.9904 -0.0976 0.0976
vn -0.9904 -0.0975 -0.0976
vn -0.2901 0.9566 -0.0286
vn -0.9904 0.0976 -0.0975
vn -0.2254 -0.9566 -0.1849
vn -0.7693 0.0975 -0.6314
vn -0.5987 -0.6326 -0.4914
vn -0.6314 0.0976 -0.7693
vn -0.0976 -0.0976 -0.9904
vn -0.0286 0.9566 -0.2901
vn -0.0624 -0.7715 -0.6332
vt 0.750000 0.562500
vt 0.718750 0.625000
vt 0.718750 0.562500
vt 0.750000 0.125000
vt 0.718750 0.062500
vt 0.750000 0.062500
vt 0.718750 0.500000
vt 0.750000 0.500000
vt 0.750000 0.937500
vt 0.734375 1.000000
vt 0.718750 0.937500
vt 0.734375 0.000000
vt 0.718750 0.437500
vt 0.750000 0.437500
vt 0.750000 0.875000
vt 0.718750 0.875000
vt 0.718750 0.375000
vt 0.750000 0.375000
vt 0.750000 0.812500
vt 0.718750 0.812500
vt 0.718750 0.312500
vt 0.750000 0.312500
vt 0.750000 0.750000
vt 0.718750 0.750000
vt 0.718750 0.250000
vt 0.750000 0.250000
vt 0.750000 0.687500
vt 0.718750 0.687500
vt 0.718750 0.187500
vt 0.750000 0.187500
vt 0.750000 0.625000
vt 0.718750 0.125000
vt 0.687500 0.625000
vt 0.687500 0.187500
vt 0.687500 0.125000
vt 0.687500 0.562500
vt 0.687500 0.062500
vt 0.687500 0.500000
vt 0.703125 1.000000
vt 0.687500 0.937500
vt 0.703125 0.000000
vt 0.687500 0.437500
vt 0.687500 0.875000
vt 0.687500 0.375000
vt 0.687500 0.812500
vt 0.687500 0.312500
vt 0.687500 0.750000
vt 0.687500 0.250000
vt 0.687500 0.687500
vt 0.656250 0.375000
vt 0.656250 0.812500
vt 0.656250 0.312500
vt 0.656250 0.750000
vt 0.656250 0.250000
vt 0.656250 0.687500
vt 0.656250 0.187500
vt 0.656250 0.625000
vt 0.656250 0.125000
vt 0.656250 0.562500
vt 0.656250 0.062500
vt 0.656250 0.500000
vt 0.671875 1.000000
vt 0.656250 0.937500
vt 0.671875 0.000000
vt 0.656250 0.437500
vt 0.656250 0.875000
vt 0.625000 0.125000
vt 0.625000 0.625000
vt 0.625000 0.562500
vt 0.625000 0.062500
vt 0.625000 0.500000
vt 0.640625 1.000000
vt 0.625000 0.937500
vt 0.640625 0.000000
vt 0.625000 0.437500
vt 0.625000 0.875000
vt 0.625000 0.375000
vt 0.625000 0.812500
vt 0.625000 0.312500
vt 0.625000 0.750000
vt 0.625000 0.250000
vt 0.625000 0.687500
vt 0.625000 0.187500
vt 0.593750 0.812500
vt 0.593750 0.375000
vt 0.593750 0.312500
vt 0.593750 0.750000
vt 0.593750 0.250000
vt 0.593750 0.687500
vt 0.593750 0.187500
vt 0.593750 0.625000
vt 0.593750 0.125000
vt 0.593750 0.562500
vt 0.593750 0.062500
vt 0.593750 0.500000
vt 0.609375 1.000000
vt 0.593750 0.937500
vt 0.609375 0.000000
vt 0.593750 0.437500
vt 0.593750 0.875000
vt 0.562500 0.625000
vt 0.562500 0.562500
vt 0.562500 0.125000
vt 0.562500 0.062500
vt 0.562500 0.500000
vt 0.578125 1.000000
vt 0.562500 0.937500
vt 0.578125 0.000000
vt 0.562500 0.437500
vt 0.562500 0.875000
vt 0.562500 0.375000
vt 0.562500 0.812500
vt 0.562500 0.312500
vt 0.562500 0.750000
vt 0.562500 0.250000
vt 0.562500 0.687500
vt 0.562500 0.187500
vt 0.531250 0.375000
vt 0.531250 0.312500
vt 0.531250 0.750000
vt 0.531250 0.250000
vt 0.531250 0.687500
vt 0.531250 0.187500
vt 0.531250 0.625000
vt 0.531250 0.125000
vt 0.531250 0.562500
vt 0.531250 0.062500
vt 0.531250 0.500000
vt 0.546875 1.000000
vt 0.531250 0.937500
vt 0.546875 0.000000
vt 0.531250 0.437500
vt 0.531250 0.875000
vt 0.531250 0.812500
vt 0.500000 0.062500
vt 0.500000 0.562500
vt 0.500000 0.500000
vt 0.515625 1.000000
vt 0.500000 0.937500
vt 0.515625 0.000000
vt 0.500000 0.437500
vt 0.500000 0.875000
vt 0.500000 0.375000
vt 0.500000 0.812500
vt 0.500000 0.312500
vt 0.500000 0.750000
vt 0.500000 0.250000
vt 0.500000 0.687500
vt 0.500000 0.187500
vt 0.500000 0.625000
vt 0.500000 0.125000
vt 0.468750 0.250000
vt 0.468750 0.750000
vt 0.468750 0.687500
vt 0.468750 0.187500
vt 0.468750 0.625000
vt 0.468750 0.125000
vt 0.468750 0.562500
vt 0.468750 0.062500
vt 0.468750 0.500000
vt 0.484375 1.000000
vt 0.468750 0.937500
vt 0.484375 0.000000
vt 0.468750 0.437500
vt 0.468750 0.875000
vt 0.468750 0.375000
vt 0.468750 0.812500
vt 0.468750 0.312500
vt 0.453125 1.000000
vt 0.437500 0.937500
vt 0.453125 0.000000
vt 0.437500 0.062500
vt 0.437500 0.437500
vt 0.437500 0.875000
vt 0.437500 0.375000
vt 0.437500 0.812500
vt 0.437500 0.312500
vt 0.437500 0.750000
vt 0.437500 0.250000
vt 0.437500 0.687500
vt 0.437500 0.187500
vt 0.437500 0.625000
vt 0.437500 0.125000
vt 0.437500 0.562500
vt 0.437500 0.500000
vt 0.406250 0.750000
vt 0.406250 0.687500
vt 0.406250 0.250000
vt 0.406250 0.187500
vt 0.406250 0.625000
vt 0.406250 0.125000
vt 0.406250 0.562500
vt 0.406250 0.062500
vt 0.406250 0.500000
vt 0.421875 1.000000
vt 0.406250 0.937500
vt 0.421875 0.000000
vt 0.406250 0.437500
vt 0.406250 0.875000
vt 0.406250 0.375000
vt 0.406250 0.812500
vt 0.406250 0.312500
vt 0.375000 0.437500
vt 0.375000 0.875000
vt 0.375000 0.375000
vt 0.375000 0.812500
vt 0.375000 0.312500
vt 0.375000 0.750000
vt 0.375000 0.250000
vt 0.375000 0.687500
vt 0.375000 0.187500
vt 0.375000 0.625000
vt 0.375000 0.125000
vt 0.375000 0.562500
vt 0.375000 0.062500
vt 0.375000 0.500000
vt 0.390625 1.000000
vt 0.375000 0.937500
vt 0.390625 0.000000
vt 0.343750 0.250000
vt 0.343750 0.187500
vt 0.343750 0.625000
vt 0.343750 0.125000
vt 0.343750 0.562500
vt 0.343750 0.062500
vt 0.343750 0.500000
vt 0.359375 1.000000
vt 0.343750 0.937500
vt 0.359375 0.000000
vt 0.343750 0.437500
vt 0.343750 0.875000
vt 0.343750 0.375000
vt 0.343750 0.812500
vt 0.343750 0.312500
vt 0.343750 0.750000
vt 0.343750 0.687500
vt 0.312500 0.875000
vt 0.312500 0.375000
vt 0.312500 0.812500
vt 0.312500 0.312500
vt 0.312500 0.750000
vt 0.312500 0.250000
vt 0.312500 0.687500
vt 0.312500 0.187500
vt 0.312500 0.625000
vt 0.312500 0.125000
vt 0.312500 0.562500
vt 0.312500 0.062500
vt 0.312500 0.500000
vt 0.328125 1.000000
vt 0.312500 0.937500
vt 0.328125 0.000000
vt 0.312500 0.437500
vt 0.281250 0.625000
vt 0.281250 0.125000
vt 0.281250 0.562500
vt 0.281250 0.062500
vt 0.281250 0.500000
vt 0.296875 1.000000
vt 0.281250 0.937500
vt 0.296875 0.000000
vt 0.281250 0.437500
vt 0.281250 0.875000
vt 0.281250 0.375000
vt 0.281250 0.812500
vt 0.281250 0.312500
vt 0.281250 0.750000
vt 0.281250 0.250000
vt 0.281250 0.687500
vt 0.281250 0.187500
vt 0.250000 0.375000
vt 0.250000 0.875000
vt 0.250000 0.812500
vt 0.250000 0.312500
vt 0.250000 0.750000
vt 0.250000 0.250000
vt 0.250000 0.687500
vt 0.250000 0.187500
vt 0.250000 0.625000
vt 0.250000 0.125000
vt 0.250000 0.562500
vt 0.250000 0.062500
vt 0.250000 0.500000
vt 0.265625 1.000000
vt 0.250000 0.937500
vt 0.265625 0.000000
vt 0.250000 0.437500
vt 0.218750 0.125000
vt 0.218750 0.625000
vt 0.218750 0.562500
vt 0.218750 0.062500
vt 0.218750 0.500000
vt 0.234375 1.000000
vt 0.218750 0.937500
vt 0.234375 0.000000
vt 0.218750 0.437500
vt 0.218750 0.875000
vt 0.218750 0.375000
vt 0.218750 0.812500
vt 0.218750 0.312500
vt 0.218750 0.750000
vt 0.218750 0.250000
vt 0.218750 0.687500
vt 0.218750 0.187500
vt 0.187500 0.375000
vt 0.187500 0.312500
vt 0.187500 0.750000
vt 0.187500 0.250000
vt 0.187500 0.687500
vt 0.187500 0.187500
vt 0.187500 0.625000
vt 0.187500 0.125000
vt 0.187500 0.562500
vt 0.187500 0.062500
vt 0.187500 0.500000
vt 0.203125 1.000000
vt 0.187500 0.937500
vt 0.203125 0.000000
vt 0.187500 0.437500
vt 0.187500 0.875000
vt 0.187500 0.812500
vt 0.156250 0.125000
vt 0.156250 0.062500
vt 0.156250 0.562500
vt 0.156250 0.500000
vt 0.171875 1.000000
vt 0.156250 0.937500
vt 0.171875 0.000000
vt 0.156250 0.437500
vt 0.156250 0.875000
vt 0.156250 0.375000
vt 0.156250 0.812500
vt 0.156250 0.312500
vt 0.156250 0.750000
vt 0.156250 0.250000
vt 0.156250 0.687500
vt 0.156250 0.187500
vt 0.156250 0.625000
vt 0.125000 0.750000
vt 0.125000 0.250000
vt 0.125000 0.687500
vt 0.125000 0.187500
vt 0.125000 0.625000
vt 0.125000 0.125000
vt 0.125000 0.562500
vt 0.125000 0.062500
vt 0.125000 0.500000
vt 0.140625 1.000000
vt 0.125000 0.937500
vt 0.140625 0.000000
vt 0.125000 0.437500
vt 0.125000 0.875000
vt 0.125000 0.375000
vt 0.125000 0.812500
vt 0.125000 0.312500
vt 0.093750 0.562500
vt 0.093750 0.500000
vt 0.109375 1.000000
vt 0.093750 0.937500
vt 0.109375 0.000000
vt 0.093750 0.062500
vt 0.093750 0.437500
vt 0.093750 0.875000
vt 0.093750 0.375000
vt 0.093750 0.812500
vt 0.093750 0.312500
vt 0.093750 0.750000
vt 0.093750 0.250000
vt 0.093750 0.687500
vt 0.093750 0.187500
vt 0.093750 0.625000
vt 0.093750 0.125000
vt 0.062500 0.250000
vt 0.062500 0.687500
vt 0.062500 0.187500
vt 0.062500 0.625000
vt 0.062500 0.125000
vt 0.062500 0.562500
vt 0.062500 0.062500
vt 0.062500 0.500000
vt 0.078125 1.000000
vt 0.062500 0.937500
vt 0.078125 0.000000
vt 0.062500 0.437500
vt 0.062500 0.875000
vt 0.062500 0.375000
vt 0.062500 0.812500
vt 0.062500 0.312500
vt 0.062500 0.750000
vt 0.046875 1.000000
vt 0.031250 0.937500
vt 0.046875 0.000000
vt 0.031250 0.062500
vt 0.031250 0.437500
vt 0.031250 0.875000
vt 0.031250 0.375000
vt 0.031250 0.812500
vt 0.031250 0.312500
vt 0.031250 0.750000
vt 0.031250 0.250000
vt 0.031250 0.687500
vt 0.031250 0.187500
vt 0.031250 0.625000
vt 0.031250 0.125000
vt 0.031250 0.562500
vt 0.031250 0.500000
vt 0.000000 0.750000
vt 0.000000 0.687500
vt 0.000000 0.250000
vt 0.000000 0.187500
vt 0.000000 0.625000
vt 0.000000 0.125000
vt 0.000000 0.562500
vt 0.000000 0.062500
vt 0.000000 0.500000
vt 0.015625 1.000000
vt 0.000000 0.937500
vt 0.015625 0.000000
vt 0.000000 0.437500
vt 0.000000 0.875000
vt 0.000000 0.375000
vt 0.000000 0.812500
vt 0.000000 0.312500
vt 1.000000 0.500000
vt 0.968750 0.437500
vt 1.000000 0.437500
vt 1.000000 0.937500
vt 0.968750 0.875000
vt 1.000000 0.875000
vt 0.968750 0.375000
vt 1.000000 0.375000
vt 1.000000 0.812500
vt 0.968750 0.812500
vt 1.000000 0.312500
vt 0.968750 0.312500
vt 0.968750 0.750000
vt 1.000000 0.750000
vt 0.968750 0.250000
vt 1.000000 0.250000
vt 1.000000 0.687500
vt 0.968750 0.687500
vt 1.000000 0.187500
vt 0.968750 0.187500
vt 0.968750 0.625000
vt 1.000000 0.625000
vt 0.968750 0.125000
vt 1.000000 0.125000
vt 1.000000 0.562500
vt 0.968750 0.562500
vt 0.968750 0.062500
vt 1.000000 0.062500
vt 0.968750 0.500000
vt 0.984375 1.000000
vt 0.968750 0.937500
vt 0.984375 0.000000
vt 0.937500 0.250000
vt 0.937500 0.187500
vt 0.937500 0.625000
vt 0.937500 0.125000
vt 0.937500 0.562500
vt 0.937500 0.062500
vt 0.937500 0.500000
vt 0.953125 1.000000
vt 0.937500 0.937500
vt 0.953125 0.000000
vt 0.937500 0.437500
vt 0.937500 0.875000
vt 0.937500 0.375000
vt 0.937500 0.812500
vt 0.937500 0.312500
vt 0.937500 0.750000
vt 0.937500 0.687500
vt 0.906250 0.375000
vt 0.906250 0.812500
vt 0.906250 0.312500
vt 0.906250 0.750000
vt 0.906250 0.250000
vt 0.906250 0.687500
vt 0.906250 0.187500
vt 0.906250 0.625000
vt 0.906250 0.125000
vt 0.906250 0.562500
vt 0.906250 0.062500
vt 0.906250 0.500000
vt 0.921875 1.000000
vt 0.906250 0.937500
vt 0.921875 0.000000
vt 0.906250 0.437500
vt 0.906250 0.875000
vt 0.875000 0.125000
vt 0.875000 0.625000
vt 0.875000 0.562500
vt 0.875000 0.062500
vt 0.875000 0.500000
vt 0.890625 1.000000
vt 0.875000 0.937500
vt 0.890625 0.000000
vt 0.875000 0.437500
vt 0.875000 0.875000
vt 0.875000 0.375000
vt 0.875000 0.812500
vt 0.875000 0.312500
vt 0.875000 0.750000
vt 0.875000 0.250000
vt 0.875000 0.687500
vt 0.875000 0.187500
vt 0.843750 0.875000
vt 0.843750 0.812500
vt 0.843750 0.375000
vt 0.843750 0.312500
vt 0.843750 0.750000
vt 0.843750 0.250000
vt 0.843750 0.687500
vt 0.843750 0.187500
vt 0.843750 0.625000
vt 0.843750 0.125000
vt 0.843750 0.562500
vt 0.843750 0.062500
vt 0.843750 0.500000
vt 0.859375 1.000000
vt 0.843750 0.937500
vt 0.859375 0.000000
vt 0.843750 0.437500
vt 0.812500 0.625000
vt 0.812500 0.562500
vt 0.812500 0.062500
vt 0.812500 0.500000
vt 0.828125 1.000000
vt 0.812500 0.937500
vt 0.828125 0.000000
vt 0.812500 0.437500
vt 0.812500 0.875000
vt 0.812500 0.375000
vt 0.812500 0.812500
vt 0.812500 0.312500
vt 0.812500 0.750000
vt 0.812500 0.250000
vt 0.812500 0.687500
vt 0.812500 0.187500
vt 0.812500 0.125000
vt 0.781250 0.375000
vt 0.781250 0.312500
vt 0.781250 0.750000
vt 0.781250 0.250000
vt 0.781250 0.687500
vt 0.781250 0.187500
vt 0.781250 0.625000
vt 0.781250 0.125000
vt 0.781250 0.562500
vt 0.781250 0.062500
vt 0.781250 0.500000
vt 0.796875 1.000000
vt 0.781250 0.937500
vt 0.796875 0.000000
vt 0.781250 0.437500
vt 0.781250 0.875000
vt 0.781250 0.812500
vt 0.765625 1.000000
vt 0.765625 0.000000
s 1
usemtl マテリアル
f 3/1/1 12/2/1 13/3/1
f 481/4/2 21/5/2 482/6/2
f 3/1/3 14/7/3 4/8/4
f 474/9/5 82/10/5 7/11/5
f 308/12/6 482/6/6 21/5/6
f 4/8/7 15/13/7 5/14/8
f 475/15/9 7/11/9 8/16/9
f 5/14/10 16/17/10 478/18/10
f 1/19/11 8/16/11 9/20/11
f 478/18/12 17/21/12 6/22/12
f 476/23/13 9/20/13 10/24/13
f 6/22/14 18/25/14 479/26/14
f 2/27/15 10/24/15 11/28/15
f 479/26/16 19/29/16 480/30/17
f 477/31/18 11/28/18 12/2/18
f 480/30/19 20/32/19 481/4/19
f 11/28/20 27/33/20 12/2/20
f 20/32/21 34/34/21 35/35/21
f 13/3/22 27/33/22 28/36/22
f 20/32/23 36/37/23 21/5/23
f 13/3/24 29/38/24 14/7/24
f 7/11/25 82/39/25 22/40/25
f 308/41/26 21/5/26 36/37/26
f 14/7/27 30/42/27 15/13/27
f 7/11/28 23/43/28 8/16/28
f 15/13/29 31/44/29 16/17/29
f 8/16/30 24/45/30 9/20/30
f 16/17/31 32/46/31 17/21/31
f 9/20/32 25/47/32 10/24/32
f 17/21/33 33/48/33 18/25/33
f 10/24/34 26/49/34 11/28/34
f 19/29/35 33/48/35 34/34/35
f 30/42/36 46/50/36 31/44/36
f 23/43/37 39/51/37 24/45/38
f 32/46/39 46/50/39 47/52/39
f 24/45/40 40/53/40 25/47/40
f 33/48/41 47/52/41 48/54/41
f 25/47/42 41/55/42 26/49/42
f 34/34/43 48/54/43 49/56/43
f 26/49/44 42/57/44 27/33/44
f 34/34/45 50/58/45 35/35/45
f 27/33/46 43/59/46 28/36/46
f 35/35/47 51/60/47 36/37/47
f 28/36/48 44/61/48 29/38/48
f 22/40/49 82/62/49 37/63/49
f 308/64/50 36/37/50 51/60/50
f 30/42/51 44/61/51 45/65/51
f 22/40/52 38/66/52 23/43/52
f 49/56/53 65/67/53 50/58/53
f 43/59/54 57/68/54 58/69/54
f 50/58/55 66/70/55 51/60/55
f 44/61/56 58/69/56 59/71/56
f 37/63/57 82/72/57 52/73/57
f 308/74/58 51/60/58 66/70/58
f 44/61/59 60/75/59 45/65/60
f 37/63/61 53/76/61 38/66/61
f 45/65/62 61/77/62 46/50/62
f 38/66/63 54/78/63 39/51/63
f 47/52/64 61/77/64 62/79/64
f 39/51/65 55/80/65 40/53/65
f 47/52/66 63/81/66 48/54/67
f 40/53/68 56/82/68 41/55/68
f 48/54/69 64/83/69 49/56/69
f 41/55/70 57/68/70 42/57/70
f 53/76/71 69/84/71 54/78/71
f 62/79/72 76/85/72 77/86/72
f 54/78/73 70/87/73 55/80/73
f 62/79/74 78/88/74 63/81/75
f 56/82/76 70/87/76 71/89/76
f 63/81/77 79/90/77 64/83/77
f 56/82/78 72/91/78 57/68/78
f 65/67/79 79/90/79 80/92/79
f 58/69/80 72/91/80 73/93/80
f 65/67/81 81/94/81 66/70/81
f 59/71/82 73/93/82 74/95/82
f 52/73/83 82/96/83 67/97/83
f 308/98/84 66/70/84 81/94/84
f 59/71/85 75/99/85 60/75/85
f 52/73/86 68/100/86 53/76/87
f 60/75/88 76/85/88 61/77/88
f 73/93/89 88/101/89 89/102/89
f 81/94/90 96/103/90 97/104/90
f 74/95/91 89/102/91 90/105/92
f 67/97/93 82/106/93 83/107/93
f 308/108/94 81/94/94 97/104/94
f 74/95/95 91/109/95 75/99/96
f 67/97/97 84/110/97 68/100/97
f 75/99/98 92/111/98 76/85/98
f 68/100/99 85/112/99 69/84/100
f 77/86/101 92/111/101 93/113/101
f 69/84/102 86/114/102 70/87/102
f 77/86/103 94/115/103 78/88/103
f 71/89/104 86/114/104 87/116/104
f 78/88/105 95/117/105 79/90/105
f 71/89/106 88/101/106 72/91/106
f 79/90/107 96/103/107 80/92/107
f 93/113/108 107/118/108 108/119/108
f 85/112/109 101/120/109 86/114/109
f 93/113/110 109/121/110 94/115/110
f 87/116/111 101/120/111 102/122/111
f 95/117/112 109/121/112 110/123/112
f 87/116/113 103/124/113 88/101/113
f 96/103/114 110/123/114 111/125/114
f 89/102/115 103/124/115 104/126/115
f 96/103/116 112/127/116 97/104/116
f 90/105/117 104/126/117 105/128/117
f 83/107/118 82/129/118 98/130/118
f 308/131/119 97/104/119 112/127/119
f 90/105/120 106/132/120 91/109/120
f 84/110/121 98/130/121 99/133/121
f 91/109/122 107/118/122 92/111/122
f 84/110/123 100/134/123 85/112/123
f 111/125/124 127/135/124 112/127/125
f 105/128/126 119/136/126 120/137/127
f 98/130/128 82/138/128 113/139/128
f 308/140/129 112/127/129 127/135/129
f 105/128/130 121/141/130 106/132/130
f 99/133/131 113/139/131 114/142/131
f 106/132/132 122/143/132 107/118/132
f 99/133/133 115/144/133 100/134/133
f 108/119/134 122/143/134 123/145/134
f 100/134/135 116/146/135 101/120/135
f 108/119/136 124/147/136 109/121/136
f 102/122/137 116/146/137 117/148/137
f 110/123/138 124/147/138 125/149/138
f 102/122/139 118/150/139 103/124/139
f 110/123/140 126/151/140 111/125/140
f 104/126/141 118/150/141 119/136/141
f 123/145/142 139/152/142 124/147/142
f 117/148/143 131/153/143 132/154/143
f 125/149/144 139/152/144 140/155/144
f 117/148/145 133/156/145 118/150/145
f 125/149/146 141/157/146 126/151/146
f 119/136/147 133/156/147 134/158/147
f 126/151/148 142/159/148 127/135/148
f 120/137/149 134/158/149 135/160/150
f 113/139/151 82/161/151 128/162/151
f 308/163/152 127/135/152 142/159/152
f 120/137/153 136/164/153 121/141/154
f 113/139/155 129/165/155 114/142/155
f 121/141/156 137/166/156 122/143/156
f 114/142/157 130/167/157 115/144/157
f 123/145/158 137/166/158 138/168/158
f 115/144/159 131/153/159 116/146/159
f 128/162/160 82/169/160 143/170/160
f 308/171/161 142/159/161 157/172/161
f 135/160/162 151/173/162 136/164/162
f 128/162/163 144/174/163 129/165/163
f 136/164/164 152/175/164 137/166/164
f 130/167/165 144/174/165 145/176/165
f 138/168/166 152/175/166 153/177/166
f 130/167/167 146/178/167 131/153/167
f 138/168/168 154/179/168 139/152/168
f 132/154/169 146/178/169 147/180/169
f 140/155/170 154/179/170 155/181/170
f 132/154/171 148/182/171 133/156/171
f 140/155/172 156/183/172 141/157/172
f 134/158/173 148/182/173 149/184/173
f 142/159/174 156/183/174 157/172/174
f 135/160/175 149/184/175 150/185/175
f 147/180/176 161/186/176 162/187/176
f 155/181/177 169/188/177 170/189/177
f 147/180/178 163/190/178 148/182/178
f 155/181/179 171/191/179 156/183/179
f 149/184/180 163/190/180 164/192/180
f 156/183/181 172/193/181 157/172/181
f 150/185/182 164/192/182 165/194/182
f 143/170/183 82/195/183 158/196/183
f 308/197/184 157/172/184 172/193/184
f 150/185/185 166/198/185 151/173/185
f 143/170/186 159/199/186 144/174/186
f 151/173/187 167/200/187 152/175/187
f 145/176/188 159/199/188 160/201/189
f 153/177/190 167/200/190 168/202/190
f 145/176/191 161/186/191 146/178/191
f 153/177/192 169/188/192 154/179/192
f 165/194/193 181/203/193 166/198/193
f 158/196/194 174/204/194 159/199/194
f 166/198/195 182/205/195 167/200/195
f 159/199/196 175/206/196 160/201/196
f 168/202/197 182/205/197 183/207/197
f 160/201/198 176/208/198 161/186/198
f 168/202/199 184/209/199 169/188/199
f 162/187/200 176/208/200 177/210/200
f 169/188/201 185/211/201 170/189/201
f 162/187/202 178/212/202 163/190/203
f 171/191/204 185/211/204 186/213/204
f 164/192/205 178/212/205 179/214/205
f 172/193/206 186/213/206 187/215/206
f 165/194/207 179/214/207 180/216/207
f 158/196/208 82/217/208 173/218/208
f 308/219/209 172/193/209 187/215/209
f 185/211/210 199/220/210 200/221/210
f 177/210/211 193/222/211 178/212/211
f 185/211/212 201/223/212 186/213/212
f 179/214/213 193/222/213 194/224/213
f 186/213/214 202/225/214 187/215/214
f 180/216/215 194/224/215 195/226/216
f 173/218/217 82/227/217 188/228/217
f 308/229/218 187/215/218 202/225/218
f 180/216/219 196/230/219 181/203/219
f 174/204/220 188/228/220 189/231/220
f 181/203/221 197/232/221 182/205/221
f 175/206/222 189/231/222 190/233/222
f 183/207/223 197/232/223 198/234/223
f 175/206/224 191/235/224 176/208/224
f 183/207/225 199/220/225 184/209/225
f 177/210/226 191/235/226 192/236/226
f 188/228/227 204/237/227 189/231/227
f 196/230/228 212/238/228 197/232/228
f 189/231/229 205/239/229 190/233/230
f 198/234/231 212/238/231 213/240/231
f 190/233/232 206/241/232 191/235/232
f 198/234/233 214/242/233 199/220/233
f 192/236/234 206/241/234 207/243/234
f 200/221/235 214/242/235 215/244/235
f 192/236/236 208/245/236 193/222/236
f 200/221/237 216/246/237 201/223/237
f 194/224/238 208/245/238 209/247/238
f 201/223/239 217/248/239 202/225/239
f 195/226/240 209/247/240 210/249/240
f 188/228/241 82/250/241 203/251/241
f 308/252/242 202/225/242 217/248/242
f 195/226/243 211/253/243 196/230/243
f 207/243/244 223/254/244 208/245/244
f 215/244/245 231/255/245 216/246/245
f 209/247/246 223/254/246 224/256/246
f 216/246/247 232/257/247 217/248/247
f 210/249/248 224/256/248 225/258/248
f 203/251/249 82/259/249 218/260/249
f 308/261/250 217/248/250 232/257/250
f 210/249/251 226/262/251 211/253/251
f 203/251/252 219/263/252 204/237/252
f 211/253/253 227/264/253 212/238/253
f 204/237/254 220/265/254 205/239/254
f 213/240/255 227/264/255 228/266/255
f 205/239/256 221/267/256 206/241/256
f 213/240/257 229/268/257 214/242/257
f 207/243/258 221/267/258 222/269/258
f 215/244/259 229/268/259 230/270/259
f 226/262/260 242/271/260 227/264/260
f 220/265/261 234/272/261 235/273/261
f 228/266/262 242/271/262 243/274/262
f 220/265/263 236/275/263 221/267/263
f 228/266/264 244/276/264 229/268/264
f 222/269/265 236/275/265 237/277/265
f 230/270/266 244/276/266 245/278/266
f 222/269/267 238/279/267 223/254/267
f 230/270/268 246/280/268 231/255/268
f 224/256/269 238/279/269 239/281/269
f 232/257/270 246/280/270 247/282/270
f 225/258/271 239/281/271 240/283/272
f 218/260/273 82/284/273 233/285/273
f 308/286/274 232/257/274 247/282/274
f 225/258/275 241/287/275 226/262/275
f 218/260/276 234/272/276 219/263/276
f 245/278/277 261/288/277 246/280/277
f 239/281/278 253/289/278 254/290/278
f 246/280/279 262/291/279 247/282/279
f 240/283/280 254/290/280 255/292/281
f 233/285/282 82/293/282 248/294/282
f 308/295/283 247/282/283 262/291/283
f 240/283/284 256/296/284 241/287/285
f 233/285/286 249/297/286 234/272/286
f 241/287/287 257/298/287 242/271/287
f 234/272/288 250/299/288 235/273/288
f 243/274/289 257/298/289 258/300/289
f 235/273/290 251/301/290 236/275/290
f 243/274/291 259/302/291 244/276/291
f 237/277/292 251/301/292 252/303/292
f 245/278/293 259/302/293 260/304/293
f 237/277/294 253/289/294 238/279/294
f 258/300/295 272/305/295 273/306/295
f 250/299/296 266/307/296 251/301/296
f 258/300/297 274/308/297 259/302/297
f 252/303/298 266/307/298 267/309/298
f 260/304/299 274/308/299 275/310/299
f 252/303/300 268/311/300 253/289/300
f 260/304/301 276/312/301 261/288/301
f 254/290/302 268/311/302 269/313/302
f 261/288/303 277/314/303 262/291/303
f 255/292/304 269/313/304 270/315/304
f 248/294/305 82/316/305 263/317/305
f 308/318/306 262/291/306 277/314/306
f 255/292/307 271/319/307 256/296/307
f 249/297/308 263/317/308 264/320/308
f 256/296/309 272/305/309 257/298/309
f 249/297/310 265/321/310 250/299/310
f 277/314/311 291/322/311 292/323/311
f 270/315/312 284/324/312 285/325/312
f 263/317/313 82/326/313 278/327/313
f 308/328/314 277/314/314 292/323/314
f 270/315/315 286/329/315 271/319/315
f 264/320/316 278/327/316 279/330/316
f 271/319/317 287/331/317 272/305/317
f 264/320/318 280/332/318 265/321/319
f 273/306/320 287/331/320 288/333/320
f 265/321/321 281/334/321 266/307/321
f 273/306/322 289/335/322 274/308/322
f 267/309/323 281/334/323 282/336/323
f 275/310/324 289/335/324 290/337/324
f 267/309/325 283/338/325 268/311/325
f 275/310/326 291/322/326 276/312/326
f 269/313/327 283/338/327 284/324/327
f 280/332/328 296/339/328 281/334/328
f 288/333/329 304/340/329 289/335/329
f 282/336/330 296/339/330 297/341/331
f 290/337/332 304/340/332 305/342/332
f 282/336/333 298/343/333 283/338/333
f 290/337/334 306/344/334 291/322/334
f 284/324/335 298/343/335 299/345/335
f 292/323/336 306/344/336 307/346/336
f 285/325/337 299/345/337 300/347/337
f 278/327/338 82/348/338 293/349/338
f 308/350/339 292/323/339 307/346/339
f 285/325/340 301/351/340 286/329/340
f 278/327/341 294/352/341 279/330/341
f 286/329/342 302/353/342 287/331/342
f 279/330/343 295/354/343 280/332/343
f 288/333/344 302/353/344 303/355/344
f 300/347/345 315/356/345 316/357/345
f 293/349/346 82/358/346 309/359/346
f 308/360/347 307/346/347 323/361/347
f 300/347/348 317/362/348 301/351/349
f 293/349/350 310/363/350 294/352/351
f 301/351/352 318/364/352 302/353/352
f 294/352/353 311/365/353 295/354/353
f 303/355/354 318/364/354 319/366/354
f 295/354/355 312/367/355 296/339/355
f 303/355/356 320/368/356 304/340/356
f 297/341/357 312/367/357 313/369/357
f 305/342/358 320/368/358 321/370/358
f 297/341/359 314/371/359 298/343/359
f 305/342/360 322/372/360 306/344/360
f 299/345/361 314/371/361 315/356/361
f 306/344/362 323/361/362 307/346/362
f 319/366/363 335/373/363 320/368/363
f 312/367/364 328/374/364 313/369/364
f 321/370/365 335/373/365 336/375/365
f 313/369/366 329/376/366 314/371/366
f 321/370/367 337/377/367 322/372/367
f 315/356/368 329/376/368 330/378/368
f 322/372/369 338/379/369 323/361/369
f 316/357/370 330/378/370 331/380/370
f 309/359/371 82/381/371 324/382/371
f 308/383/372 323/361/372 338/379/372
f 316/357/373 332/384/373 317/362/373
f 309/359/374 325/385/374 310/363/374
f 317/362/375 333/386/375 318/364/375
f 310/363/376 326/387/376 311/365/377
f 319/366/378 333/386/378 334/388/378
f 311/365/379 327/389/379 312/367/379
f 324/382/380 82/390/380 339/391/380
f 308/392/381 338/379/381 353/393/381
f 331/380/382 347/394/382 332/384/382
f 324/382/383 340/395/383 325/385/383
f 332/384/384 348/396/384 333/386/384
f 325/385/385 341/397/385 326/387/385
f 334/388/386 348/396/386 349/398/386
f 326/387/387 342/399/387 327/389/387
f 334/388/388 350/400/388 335/373/388
f 328/374/389 342/399/389 343/401/389
f 336/375/390 350/400/390 351/402/390
f 328/374/391 344/403/391 329/376/391
f 336/375/392 352/404/392 337/377/392
f 330/378/393 344/403/393 345/405/393
f 337/377/394 353/393/394 338/379/394
f 331/380/395 345/405/395 346/406/395
f 343/401/396 357/407/396 358/408/396
f 351/402/397 365/409/397 366/410/397
f 343/401/398 359/411/398 344/403/398
f 351/402/399 367/412/399 352/404/399
f 345/405/400 359/411/400 360/413/400
f 352/404/401 368/414/401 353/393/402
f 346/406/403 360/413/403 361/415/404
f 339/391/405 82/416/405 354/417/405
f 308/418/406 353/393/406 368/414/406
f 346/406/407 362/419/407 347/394/408
f 339/391/409 355/420/409 340/395/409
f 347/394/410 363/421/410 348/396/410
f 341/397/411 355/420/411 356/422/411
f 349/398/412 363/421/412 364/423/412
f 341/397/413 357/407/413 342/399/413
f 349/398/414 365/409/414 350/400/414
f 361/424/415 377/425/415 362/426/416
f 354/427/417 370/428/417 355/429/417
f 362/426/418 378/430/418 363/431/418
f 356/432/419 370/428/419 371/433/419
f 364/434/420 378/430/420 379/435/420
f 356/432/421 372/436/421 357/437/421
f 364/434/422 380/438/422 365/439/422
f 358/440/423 372/436/423 373/441/423
f 366/442/424 380/438/424 381/443/424
f 358/440/425 374/444/425 359/445/425
f 366/442/426 382/446/426 367/447/426
f 360/448/427 374/444/427 375/449/427
f 367/447/428 383/450/428 368/451/428
f 361/424/429 375/449/429 376/452/430
f 354/427/431 82/453/431 369/454/431
f 308/455/432 368/451/432 383/450/432
f 381/443/433 395/456/433 396/457/433
f 373/441/434 389/458/434 374/444/434
f 381/443/435 397/459/435 382/446/435
f 375/449/436 389/458/436 390/460/436
f 382/446/437 398/461/437 383/450/437
f 376/452/438 390/460/438 391/462/438
f 369/454/439 82/463/439 384/464/439
f 308/465/440 383/450/440 398/461/440
f 376/452/441 392/466/441 377/425/441
f 369/454/442 385/467/442 370/428/442
f 377/425/443 393/468/443 378/430/443
f 371/433/444 385/467/444 386/469/444
f 379/435/445 393/468/445 394/470/445
f 371/433/446 387/471/446 372/436/446
f 379/435/447 395/456/447 380/438/447
f 373/441/448 387/471/448 388/472/448
f 392/466/449 408/473/449 393/468/449
f 385/467/450 401/474/450 386/469/451
f 394/470/452 408/473/452 409/475/452
f 386/469/453 402/476/453 387/471/453
f 394/470/454 410/477/454 395/456/454
f 388/472/455 402/476/455 403/478/455
f 396/457/456 410/477/456 411/479/456
f 388/472/457 404/480/457 389/458/457
f 397/459/458 411/479/458 412/481/458
f 390/460/459 404/480/459 405/482/459
f 397/459/460 413/483/460 398/461/460
f 391/462/461 405/482/461 406/484/461
f 384/464/462 82/485/462 399/486/462
f 308/487/463 398/461/463 413/483/463
f 391/462/464 407/488/464 392/466/464
f 385/467/465 399/486/465 400/489/465
f 411/479/466 427/490/466 412/481/466
f 405/482/467 419/491/467 420/492/467
f 412/481/468 428/493/468 413/483/468
f 406/484/469 420/492/469 421/494/469
f 399/486/470 82/495/470 414/496/470
f 308/497/471 413/483/471 428/493/471
f 406/484/472 422/498/472 407/488/473
f 399/486/474 415/499/474 400/489/474
f 407/488/475 423/500/475 408/473/475
f 401/474/476 415/499/476 416/501/476
f 409/475/477 423/500/477 424/502/477
f 401/474/478 417/503/478 402/476/478
f 409/475/479 425/504/479 410/477/479
f 403/478/480 417/503/480 418/505/481
f 411/479/482 425/504/482 426/506/482
f 403/478/483 419/491/483 404/480/483
f 416/501/484 430/507/484 431/508/484
f 424/502/485 438/509/485 439/510/485
f 416/501/486 432/511/486 417/503/486
f 424/502/487 440/512/487 425/504/487
f 418/505/488 432/511/488 433/513/488
f 426/506/489 440/512/489 441/514/489
f 418/505/490 434/515/490 419/491/490
f 426/506/491 442/516/491 427/490/491
f 420/492/492 434/515/492 435/517/492
f 427/490/493 443/518/493 428/493/493
f 421/494/494 435/517/494 436/519/494
f 414/496/495 82/520/495 429/521/495
f 308/522/496 428/493/496 443/518/496
f 421/494/497 437/523/497 422/498/498
f 414/496/499 430/507/499 415/499/500
f 422/498/501 438/509/501 423/500/501
f 435/517/502 449/524/502 450/525/502
f 442/516/503 458/526/503 443/518/503
f 436/519/504 450/525/504 451/527/504
f 429/521/505 82/528/505 444/529/505
f 308/530/506 443/518/506 458/526/506
f 436/519/507 452/531/507 437/523/507
f 430/507/508 444/529/508 445/532/508
f 437/523/509 453/533/509 438/509/509
f 430/507/510 446/534/510 431/508/510
f 439/510/511 453/533/511 454/535/511
f 431/508/512 447/536/512 432/511/512
f 439/510/513 455/537/513 440/512/513
f 433/513/514 447/536/514 448/538/514
f 441/514/515 455/537/515 456/539/515
f 433/513/516 449/524/516 434/515/516
f 441/514/517 457/540/517 442/516/517
f 454/535/518 468/541/518 469/542/518
f 446/534/519 462/543/519 447/536/519
f 454/535/520 470/544/520 455/537/520
f 448/538/521 462/543/521 463/545/521
f 456/539/522 470/544/522 471/546/522
f 448/538/523 464/547/523 449/524/523
f 456/539/524 472/548/524 457/540/524
f 450/525/525 464/547/525 465/549/525
f 458/526/526 472/548/526 473/550/526
f 451/527/527 465/549/527 466/551/527
f 444/529/528 82/552/528 459/553/528
f 308/554/529 458/526/529 473/550/529
f 451/527/530 467/555/530 452/531/530
f 444/529/531 460/556/531 445/532/531
f 452/531/532 468/541/532 453/533/532
f 446/534/533 460/556/533 461/557/533
f 472/548/534 482/6/534 473/550/535
f 466/551/536 3/1/536 4/8/537
f 459/553/538 82/558/538 474/9/538
f 308/559/539 473/550/539 482/6/539
f 466/551/540 5/14/540 467/555/540
f 460/556/541 474/9/541 475/15/541
f 467/555/542 478/18/542 468/541/542
f 461/557/543 475/15/543 1/19/543
f 468/541/544 6/22/544 469/542/544
f 462/543/545 1/19/545 476/23/545
f 469/542/546 479/26/546 470/544/546
f 463/545/547 476/23/547 2/27/547
f 471/546/548 479/26/548 480/30/549
f 464/547/550 2/27/550 477/31/550
f 471/546/551 481/4/551 472/548/551
f 465/549/552 477/31/552 3/1/552
f 3/1/1 477/31/1 12/2/1
f 481/4/2 20/32/2 21/5/2
f 3/1/3 13/3/3 14/7/3
f 4/8/7 14/7/553 15/13/7
f 475/15/9 474/9/9 7/11/9
f 5/14/10 15/13/10 16/17/10
f 1/19/11 475/15/11 8/16/11
f 478/18/12 16/17/12 17/21/12
f 476/23/13 1/19/13 9/20/13
f 6/22/14 17/21/14 18/25/14
f 2/27/15 476/23/15 10/24/15
f 479/26/16 18/25/554 19/29/16
f 477/31/18 2/27/18 11/28/18
f 480/30/19 19/29/19 20/32/19
f 11/28/20 26/49/20 27/33/20
f 20/32/21 19/29/21 34/34/21
f 13/3/22 12/2/22 27/33/22
f 20/32/23 35/35/23 36/37/23
f 13/3/24 28/36/24 29/38/24
f 14/7/27 29/38/27 30/42/27
f 7/11/28 22/40/28 23/43/28
f 15/13/29 30/42/29 31/44/29
f 8/16/30 23/43/30 24/45/30
f 16/17/31 31/44/31 32/46/31
f 9/20/32 24/45/32 25/47/32
f 17/21/33 32/46/33 33/48/33
f 10/24/34 25/47/34 26/49/34
f 19/29/35 18/25/35 33/48/35
f 30/42/36 45/65/36 46/50/36
f 23/43/37 38/66/37 39/51/37
f 32/46/39 31/44/39 46/50/39
f 24/45/40 39/51/40 40/53/40
f 33/48/41 32/46/41 47/52/41
f 25/47/42 40/53/42 41/55/42
f 34/34/43 33/48/43 48/54/43
f 26/49/44 41/55/44 42/57/44
f 34/34/45 49/56/555 50/58/45
f 27/33/46 42/57/46 43/59/46
f 35/35/47 50/58/47 51/60/47
f 28/36/48 43/59/48 44/61/48
f 30/42/51 29/38/51 44/61/51
f 22/40/52 37/63/52 38/66/52
f 49/56/53 64/83/53 65/67/53
f 43/59/54 42/57/54 57/68/54
f 50/58/55 65/67/556 66/70/55
f 44/61/56 43/59/56 58/69/56
f 44/61/59 59/71/59 60/75/59
f 37/63/61 52/73/61 53/76/61
f 45/65/62 60/75/62 61/77/62
f 38/66/63 53/76/63 54/78/63
f 47/52/64 46/50/64 61/77/64
f 39/51/65 54/78/65 55/80/65
f 47/52/66 62/79/66 63/81/66
f 40/53/68 55/80/557 56/82/68
f 48/54/69 63/81/69 64/83/69
f 41/55/70 56/82/70 57/68/70
f 53/76/71 68/100/71 69/84/71
f 62/79/72 61/77/72 76/85/72
f 54/78/73 69/84/73 70/87/73
f 62/79/74 77/86/74 78/88/74
f 56/82/76 55/80/558 70/87/76
f 63/81/77 78/88/77 79/90/77
f 56/82/78 71/89/78 72/91/78
f 65/67/79 64/83/79 79/90/79
f 58/69/80 57/68/80 72/91/80
f 65/67/81 80/92/81 81/94/81
f 59/71/82 58/69/82 73/93/82
f 59/71/85 74/95/85 75/99/85
f 52/73/86 67/97/86 68/100/86
f 60/75/88 75/99/88 76/85/88
f 73/93/89 72/91/89 88/101/89
f 81/94/90 80/92/90 96/103/90
f 74/95/91 73/93/559 89/102/91
f 74/95/95 90/105/560 91/109/95
f 67/97/97 83/107/97 84/110/97
f 75/99/98 91/109/98 92/111/98
f 68/100/99 84/110/99 85/112/99
f 77/86/101 76/85/101 92/111/101
f 69/84/102 85/112/102 86/114/102
f 77/86/103 93/113/103 94/115/103
f 71/89/104 70/87/104 86/114/104
f 78/88/105 94/115/105 95/117/105
f 71/89/106 87/116/106 88/101/106
f 79/90/107 95/117/107 96/103/107
f 93/113/108 92/111/108 107/118/108
f 85/112/109 100/134/109 101/120/109
f 93/113/110 108/119/110 109/121/110
f 87/116/111 86/114/111 101/120/111
f 95/117/112 94/115/112 109/121/112
f 87/116/113 102/122/113 103/124/113
f 96/103/114 95/117/114 110/123/114
f 89/102/115 88/101/115 103/124/115
f 96/103/116 111/125/116 112/127/116
f 90/105/117 89/102/117 104/126/117
f 90/105/120 105/128/120 106/132/120
f 84/110/121 83/107/121 98/130/121
f 91/109/122 106/132/122 107/118/122
f 84/110/123 99/133/123 100/134/123
f 111/125/124 126/151/124 127/135/124
f 105/128/126 104/126/126 119/136/126
f 105/128/130 120/137/561 121/141/130
f 99/133/131 98/130/562 113/139/131
f 106/132/132 121/141/132 122/143/132
f 99/133/133 114/142/133 115/144/133
f 108/119/134 107/118/134 122/143/134
f 100/134/135 115/144/135 116/146/135
f 108/119/136 123/145/136 124/147/136
f 102/122/137 101/120/137 116/146/137
f 110/123/138 109/121/138 124/147/138
f 102/122/139 117/148/139 118/150/139
f 110/123/140 125/149/140 126/151/140
f 104/126/141 103/124/141 118/150/141
f 123/145/142 138/168/142 139/152/142
f 117/148/143 116/146/143 131/153/143
f 125/149/144 124/147/144 139/152/144
f 117/148/145 132/154/145 133/156/145
f 125/149/146 140/155/146 141/157/146
f 119/136/147 118/150/147 133/156/147
f 126/151/148 141/157/148 142/159/148
f 120/137/149 119/136/563 134/158/149
f 120/137/153 135/160/564 136/164/153
f 113/139/155 128/162/565 129/165/155
f 121/141/156 136/164/156 137/166/156
f 114/142/157 129/165/157 130/167/157
f 123/145/158 122/143/158 137/166/158
f 115/144/159 130/167/159 131/153/159
f 135/160/162 150/185/162 151/173/162
f 128/162/163 143/170/163 144/174/163
f 136/164/164 151/173/164 152/175/164
f 130/167/165 129/165/165 144/174/165
f 138/168/166 137/166/166 152/175/166
f 130/167/167 145/176/167 146/178/167
f 138/168/168 153/177/168 154/179/168
f 132/154/169 131/153/169 146/178/169
f 140/155/170 139/152/170 154/179/170
f 132/154/171 147/180/171 148/182/171
f 140/155/172 155/181/172 156/183/172
f 134/158/173 133/156/173 148/182/173
f 142/159/174 141/157/174 156/183/174
f 135/160/175 134/158/175 149/184/175
f 147/180/176 146/178/176 161/186/176
f 155/181/177 154/179/177 169/188/177
f 147/180/178 162/187/178 163/190/178
f 155/181/179 170/189/566 171/191/179
f 149/184/180 148/182/180 163/190/180
f 156/183/181 171/191/181 172/193/181
f 150/185/182 149/184/182 164/192/182
f 150/185/185 165/194/185 166/198/185
f 143/170/186 158/196/186 159/199/186
f 151/173/187 166/198/187 167/200/187
f 145/176/188 144/174/188 159/199/188
f 153/177/190 152/175/190 167/200/190
f 145/176/191 160/201/191 161/186/191
f 153/177/192 168/202/192 169/188/192
f 165/194/193 180/216/193 181/203/193
f 158/196/194 173/218/194 174/204/194
f 166/198/195 181/203/195 182/205/195
f 159/199/196 174/204/196 175/206/196
f 168/202/197 167/200/567 182/205/197
f 160/201/198 175/206/198 176/208/198
f 168/202/199 183/207/199 184/209/199
f 162/187/200 161/186/200 176/208/200
f 169/188/201 184/209/201 185/211/201
f 162/187/202 177/210/202 178/212/202
f 171/191/204 170/189/204 185/211/204
f 164/192/205 163/190/205 178/212/205
f 172/193/206 171/191/206 186/213/206
f 165/194/207 164/192/568 179/214/207
f 185/211/210 184/209/210 199/220/210
f 177/210/211 192/236/211 193/222/211
f 185/211/212 200/221/212 201/223/212
f 179/214/213 178/212/213 193/222/213
f 186/213/214 201/223/214 202/225/214
f 180/216/215 179/214/215 194/224/215
f 180/216/219 195/226/219 196/230/219
f 174/204/220 173/218/220 188/228/220
f 181/203/221 196/230/221 197/232/221
f 175/206/222 174/204/222 189/231/222
f 183/207/223 182/205/223 197/232/223
f 175/206/224 190/233/224 191/235/224
f 183/207/225 198/234/225 199/220/225
f 177/210/226 176/208/226 191/235/226
f 188/228/227 203/251/227 204/237/227
f 196/230/228 211/253/228 212/238/228
f 189/231/229 204/237/229 205/239/229
f 198/234/231 197/232/231 212/238/231
f 190/233/232 205/239/232 206/241/232
f 198/234/233 213/240/233 214/242/233
f 192/236/234 191/235/234 206/241/234
f 200/221/235 199/220/235 214/242/235
f 192/236/236 207/243/236 208/245/236
f 200/221/237 215/244/569 216/246/237
f 194/224/238 193/222/238 208/245/238
f 201/223/239 216/246/239 217/248/239
f 195/226/240 194/224/240 209/247/240
f 195/226/243 210/249/243 211/253/243
f 207/243/244 222/269/244 223/254/244
f 215/244/245 230/270/245 231/255/245
f 209/247/246 208/245/246 223/254/246
f 216/246/247 231/255/247 232/257/247
f 210/249/248 209/247/248 224/256/248
f 210/249/251 225/258/251 226/262/251
f 203/251/252 218/260/252 219/263/252
f 211/253/253 226/262/253 227/264/253
f 204/237/254 219/263/254 220/265/254
f 213/240/255 212/238/255 227/264/255
f 205/239/256 220/265/256 221/267/256
f 213/240/257 228/266/257 229/268/257
f 207/243/258 206/241/258 221/267/258
f 215/244/259 214/242/259 229/268/259
f 226/262/260 241/287/260 242/271/260
f 220/265/261 219/263/261 234/272/261
f 228/266/262 227/264/262 242/271/262
f 220/265/263 235/273/263 236/275/263
f 228/266/264 243/274/264 244/276/264
f 222/269/265 221/267/265 236/275/265
f 230/270/266 229/268/266 244/276/266
f 222/269/267 237/277/267 238/279/267
f 230/270/268 245/278/268 246/280/268
f 224/256/269 223/254/269 238/279/269
f 232/257/270 231/255/270 246/280/270
f 225/258/271 224/256/271 239/281/271
f 225/258/275 240/283/570 241/287/275
f 218/260/276 233/285/276 234/272/276
f 245/278/277 260/304/277 261/288/277
f 239/281/278 238/279/278 253/289/278
f 246/280/279 261/288/279 262/291/279
f 240/283/280 239/281/571 254/290/280
f 240/283/284 255/292/572 256/296/284
f 233/285/286 248/294/573 249/297/286
f 241/287/287 256/296/287 257/298/287
f 234/272/288 249/297/288 250/299/288
f 243/274/289 242/271/289 257/298/289
f 235/273/290 250/299/290 251/301/290
f 243/274/291 258/300/291 259/302/291
f 237/277/292 236/275/292 251/301/292
f 245/278/293 244/276/293 259/302/293
f 237/277/294 252/303/294 253/289/294
f 258/300/295 257/298/295 272/305/295
f 250/299/296 265/321/296 266/307/296
f 258/300/297 273/306/297 274/308/297
f 252/303/298 251/301/298 266/307/298
f 260/304/299 259/302/299 274/308/299
f 252/303/300 267/309/300 268/311/300
f 260/304/301 275/310/301 276/312/301
f 254/290/302 253/289/302 268/311/302
f 261/288/303 276/312/303 277/314/303
f 255/292/304 254/290/304 269/313/304
f 255/292/307 270/315/307 271/319/307
f 249/297/308 248/294/308 263/317/308
f 256/296/309 271/319/309 272/305/309
f 249/297/310 264/320/310 265/321/310
f 277/314/311 276/312/311 291/322/311
f 270/315/312 269/313/312 284/324/312
f 270/315/315 285/325/315 286/329/315
f 264/320/316 263/317/316 278/327/316
f 271/319/317 286/329/317 287/331/317
f 264/320/318 279/330/318 280/332/318
f 273/306/320 272/305/320 287/331/320
f 265/321/321 280/332/321 281/334/321
f 273/306/322 288/333/322 289/335/322
f 267/309/323 266/307/323 281/334/323
f 275/310/324 274/308/324 289/335/324
f 267/309/325 282/336/325 283/338/325
f 275/310/326 290/337/574 291/322/326
f 269/313/327 268/311/327 283/338/327
f 280/332/328 295/354/328 296/339/328
f 288/333/329 303/355/575 304/340/329
f 282/336/330 281/334/330 296/339/330
f 290/337/332 289/335/332 304/340/332
f 282/336/333 297/341/333 298/343/333
f 290/337/334 305/342/334 306/344/334
f 284/324/335 283/338/335 298/343/335
f 292/323/336 291/322/336 306/344/336
f 285/325/337 284/324/576 299/345/337
f 285/325/340 300/347/340 301/351/340
f 278/327/341 293/349/341 294/352/341
f 286/329/342 301/351/342 302/353/342
f 279/330/343 294/352/343 295/354/343
f 288/333/344 287/331/344 302/353/344
f 300/347/345 299/345/577 315/356/345
f 300/347/348 316/357/348 317/362/348
f 293/349/350 309/359/350 310/363/350
f 301/351/352 317/362/352 318/364/352
f 294/352/353 310/363/353 311/365/353
f 303/355/354 302/353/354 318/364/354
f 295/354/355 311/365/355 312/367/355
f 303/355/356 319/366/356 320/368/356
f 297/341/357 296/339/357 312/367/357
f 305/342/358 304/340/358 320/368/358
f 297/341/359 313/369/359 314/371/359
f 305/342/360 321/370/360 322/372/360
f 299/345/361 298/343/361 314/371/361
f 306/344/362 322/372/362 323/361/362
f 319/366/363 334/388/363 335/373/363
f 312/367/364 327/389/364 328/374/364
f 321/370/365 320/368/365 335/373/365
f 313/369/366 328/374/366 329/376/366
f 321/370/367 336/375/367 337/377/367
f 315/356/368 314/371/368 329/376/368
f 322/372/369 337/377/369 338/379/369
f 316/357/370 315/356/370 330/378/370
f 316/357/373 331/380/373 332/384/373
f 309/359/374 324/382/374 325/385/374
f 317/362/375 332/384/375 333/386/375
f 310/363/376 325/385/376 326/387/376
f 319/366/378 318/364/378 333/386/378
f 311/365/379 326/387/379 327/389/379
f 331/380/382 346/406/382 347/394/382
f 324/382/383 339/391/383 340/395/383
f 332/384/384 347/394/384 348/396/384
f 325/385/385 340/395/385 341/397/385
f 334/388/386 333/386/386 348/396/386
f 326/387/387 341/397/387 342/399/387
f 334/388/388 349/398/388 350/400/388
f 328/374/389 327/389/389 342/399/389
f 336/375/390 335/373/390 350/400/390
f 328/374/391 343/401/391 344/403/391
f 336/375/392 351/402/392 352/404/392
f 330/378/393 329/376/393 344/403/393
f 337/377/394 352/404/394 353/393/394
f 331/380/395 330/378/395 345/405/395
f 343/401/396 342/399/396 357/407/396
f 351/402/397 350/400/397 365/409/397
f 343/401/398 358/408/398 359/411/398
f 351/402/399 366/410/399 367/412/399
f 345/405/400 344/403/400 359/411/400
f 352/404/401 367/412/401 368/414/401
f 346/406/403 345/405/578 360/413/403
f 346/406/407 361/415/579 362/419/407
f 339/391/409 354/417/409 355/420/409
f 347/394/410 362/419/410 363/421/410
f 341/397/411 340/395/411 355/420/411
f 349/398/412 348/396/412 363/421/412
f 341/397/413 356/422/413 357/407/413
f 349/398/414 364/423/414 365/409/414
f 361/424/415 376/452/580 377/425/415
f 354/427/417 369/454/581 370/428/417
f 362/426/418 377/425/418 378/430/418
f 356/432/419 355/429/419 370/428/419
f 364/434/420 363/431/420 378/430/420
f 356/432/421 371/433/421 372/436/421
f 364/434/422 379/435/422 380/438/422
f 358/440/423 357/437/423 372/436/423
f 366/442/424 365/439/424 380/438/424
f 358/440/425 373/441/425 374/444/425
f 366/442/426 381/443/426 382/446/426
f 360/448/427 359/445/427 374/444/427
f 367/447/428 382/446/428 383/450/428
f 361/424/429 360/448/582 375/449/429
f 381/443/433 380/438/433 395/456/433
f 373/441/434 388/472/434 389/458/434
f 381/443/435 396/457/435 397/459/435
f 375/449/436 374/444/436 389/458/436
f 382/446/437 397/459/437 398/461/437
f 376/452/438 375/449/438 390/460/438
f 376/452/441 391/462/441 392/466/441
f 369/454/442 384/464/442 385/467/442
f 377/425/443 392/466/443 393/468/443
f 371/433/444 370/428/444 385/467/444
f 379/435/445 378/430/445 393/468/445
f 371/433/446 386/469/446 387/471/446
f 379/435/447 394/470/447 395/456/447
f 373/441/448 372/436/448 387/471/448
f 392/466/449 407/488/449 408/473/449
f 385/467/450 400/489/450 401/474/450
f 394/470/452 393/468/452 408/473/452
f 386/469/453 401/474/453 402/476/453
f 394/470/454 409/475/454 410/477/454
f 388/472/455 387/471/455 402/476/455
f 396/457/456 395/456/456 410/477/456
f 388/472/457 403/478/457 404/480/457
f 397/459/458 396/457/458 411/479/458
f 390/460/459 389/458/459 404/480/459
f 397/459/460 412/481/460 413/483/460
f 391/462/461 390/460/461 405/482/461
f 391/462/464 406/484/464 407/488/464
f 385/467/465 384/464/465 399/486/465
f 411/479/466 426/506/466 427/490/466
f 405/482/467 404/480/467 419/491/467
f 412/481/468 427/490/583 428/493/468
f 406/484/469 405/482/584 420/492/469
f 406/484/472 421/494/472 422/498/472
f 399/486/474 414/496/474 415/499/474
f 407/488/475 422/498/475 423/500/475
f 401/474/476 400/489/476 415/499/476
f 409/475/477 408/473/477 423/500/477
f 401/474/478 416/501/478 417/503/478
f 409/475/479 424/502/585 425/504/479
f 403/478/480 402/476/480 417/503/480
f 411/479/482 410/477/482 425/504/482
f 403/478/483 418/505/483 419/491/483
f 416/501/484 415/499/484 430/507/484
f 424/502/485 423/500/485 438/509/485
f 416/501/486 431/508/486 432/511/486
f 424/502/487 439/510/487 440/512/487
f 418/505/488 417/503/488 432/511/488
f 426/506/489 425/504/489 440/512/489
f 418/505/490 433/513/490 434/515/490
f 426/506/491 441/514/491 442/516/491
f 420/492/492 419/491/492 434/515/492
f 427/490/493 442/516/493 443/518/493
f 421/494/494 420/492/586 435/517/494
f 421/494/497 436/519/497 437/523/497
f 414/496/499 429/521/499 430/507/499
f 422/498/501 437/523/501 438/509/501
f 435/517/502 434/515/502 449/524/502
f 442/516/503 457/540/503 458/526/503
f 436/519/504 435/517/504 450/525/504
f 436/519/507 451/527/507 452/531/507
f 430/507/508 429/521/508 444/529/508
f 437/523/509 452/531/509 453/533/509
f 430/507/510 445/532/510 446/534/510
f 439/510/511 438/509/511 453/533/511
f 431/508/512 446/534/512 447/536/512
f 439/510/513 454/535/513 455/537/513
f 433/513/514 432/511/514 447/536/514
f 441/514/515 440/512/515 455/537/515
f 433/513/516 448/538/516 449/524/516
f 441/514/517 456/539/517 457/540/517
f 454/535/518 453/533/518 468/541/518
f 446/534/519 461/557/519 462/543/519
f 454/535/520 469/542/520 470/544/520
f 448/538/521 447/536/521 462/543/521
f 456/539/522 455/537/522 470/544/522
f 448/538/523 463/545/523 464/547/523
f 456/539/524 471/546/524 472/548/524
f 450/525/525 449/524/525 464/547/525
f 458/526/526 457/540/526 472/548/526
f 451/527/527 450/525/527 465/549/527
f 451/527/530 466/551/530 467/555/530
f 444/529/531 459/553/531 460/556/531
f 452/531/532 467/555/532 468/541/532
f 446/534/533 445/532/533 460/556/533
f 472/548/534 481/4/534 482/6/534
f 466/551/536 465/549/536 3/1/536
f 466/551/540 4/8/587 5/14/540
f 460/556/541 459/553/588 474/9/541
f 467/555/542 5/14/542 478/18/542
f 461/557/543 460/556/543 475/15/543
f 468/541/544 478/18/544 6/22/544
f 462/543/545 461/557/545 1/19/545
f 469/542/546 6/22/546 479/26/546
f 463/545/547 462/543/547 476/23/547
f 471/546/548 470/544/589 479/26/548
f 464/547/550 463/545/550 2/27/550
f 471/546/551 480/30/551 481/4/551
f 465/549/552 464/547/552 477/31/552
