# Blender 4.4.1
# www.blender.org
mtllib attack.mtl
o 平面
v 0.000000 -0.385121 -0.110694
v 0.000000 -0.385121 1.489306
v -0.000000 0.884881 -0.110695
v 0.000000 0.884881 1.489306
vn -1.0000 -0.0000 -0.0000
vt 1.000000 0.000000
vt 0.000000 1.000000
vt 0.000000 0.000000
vt 1.000000 1.000000
s 0
usemtl マテリアル.003
f 2/1/1 3/2/1 1/3/1
f 2/1/1 4/4/1 3/2/1
o 平面.001
v -0.000000 -0.382880 -0.110694
v 0.000000 -0.382880 1.489306
v -0.000000 0.884881 -0.110695
v 0.000000 0.884881 1.489306
vn 1.0000 -0.0000 -0.0000
vt 1.000000 0.000000
vt 0.000000 1.000000
vt 0.000000 0.000000
vt 1.000000 1.000000
s 0
usemtl マテリアル.004
f 6/5/2 5/7/2 7/6/2
f 6/5/2 7/6/2 8/8/2
