# Blender 4.4.1
# www.blender.org
mtllib backGround.mtl
o Cube
v -15.000001 28.789997 8.919999
v -15.000001 -1.209998 8.919999
v -15.000001 28.789997 3.120000
v -15.000001 -1.209998 3.120000
v 15.000001 28.789997 8.919999
v 15.000001 -1.209998 8.919999
v 15.000001 28.789997 3.120000
v 15.000001 -1.209998 3.120000
v -15.000001 11.878223 4.947584
v 15.000001 11.872895 4.947584
v -15.000001 7.714989 4.947584
v 15.000001 7.711355 4.947584
v 11.608791 20.286003 8.919999
v 11.608791 27.204393 8.919999
v 2.868802 27.204393 8.919999
v 2.868802 20.286003 8.919999
v 11.608791 18.847191 4.194139
v 11.608791 25.545275 3.470533
v 2.868802 25.545275 3.470533
v 2.868802 18.847191 4.194139
v -11.272263 27.204393 8.919999
v -2.532273 27.204393 8.919999
v -11.272263 20.286003 8.919999
v -2.532273 20.286003 8.919999
v -2.532273 18.847219 4.194234
v -11.272263 18.847269 4.194397
v -11.272263 25.545286 3.470570
v -2.532273 25.545275 3.470533
vn -0.0000 1.0000 -0.0000
vn -0.0000 -0.0000 -1.0000
vn 1.0000 -0.0000 -0.0000
vn -0.0000 -1.0000 -0.0000
vn -1.0000 -0.0000 -0.0000
vn -0.0000 -0.0000 1.0000
vn -0.0000 0.2007 -0.9797
vn -0.0000 -0.1074 -0.9942
vn -0.0000 0.9566 -0.2913
vn -0.0000 -0.9566 0.2913
vn -0.0000 0.2006 -0.9797
vt 0.926784 0.913455
vt 0.581204 0.709653
vt 0.631638 0.652592
vt 0.377446 0.495637
vt 0.136824 0.836374
vt 0.096793 0.799186
vt 0.911656 0.346585
vt 0.605649 0.066567
vt 0.733727 0.109319
vt 0.325631 0.372574
vt 0.007626 0.162599
vt 0.058216 0.110898
vt 0.420007 0.535948
vt 0.793260 0.301800
vt 0.711681 0.390950
vt 0.275045 0.424269
vt 0.007626 0.718010
vt 0.297110 0.993169
vt 0.234166 0.868627
vt 0.297879 0.931108
vt 0.380351 0.848037
vt 0.315632 0.784584
vt 0.366425 0.731951
vt 0.195878 0.156500
vt 0.266003 0.082591
vt 0.269678 0.113259
vt 0.305107 0.089419
vt 0.384592 0.214452
vt 0.298749 0.115725
vt 0.384592 0.007534
vt 0.216949 0.018014
vt 0.792229 0.740694
vt 0.867394 0.625293
vt 0.876082 0.652238
vt 0.984746 0.698270
vt 0.909446 0.620984
vt 0.960780 0.555686
vt 0.907966 0.654359
vt 0.792229 0.539811
vt 0.451595 0.646322
vt 0.515584 0.713183
vt 0.731837 0.510618
vt 0.782250 0.455526
vt 0.876350 0.970517
vt 0.776176 0.148162
vt 0.965793 0.287424
vt 0.659786 0.007406
vt 0.579689 0.535192
vt 0.650258 0.599768
vt 0.863829 0.366376
vt 0.661268 0.446042
vt 0.431620 0.796550
s 0
usemtl Material
f 5/1/1 3/2/1 1/3/1
f 11/4/2 10/5/2 12/6/2
f 5/7/3 6/8/3 12/9/3
f 2/10/4 8/11/4 6/12/4
f 2/10/5 3/2/5 9/13/5
f 2/10/6 13/14/6 16/15/6
f 4/16/7 12/6/7 8/17/7
f 7/18/8 17/19/8 18/20/8
f 3/2/8 18/20/8 19/21/8
f 20/22/8 10/5/8 25/23/8
f 13/24/5 18/25/5 17/26/5
f 19/27/3 16/28/3 20/29/3
f 16/28/9 17/26/9 20/29/9
f 15/30/10 18/25/10 14/31/10
f 24/32/5 28/33/5 25/34/5
f 23/35/3 27/36/3 21/37/3
f 26/38/9 24/32/9 25/34/9
f 22/39/10 27/36/10 28/33/10
f 26/40/8 3/2/8 27/41/8
f 1/3/6 22/42/6 15/43/6
f 5/1/1 7/44/1 3/2/1
f 11/4/2 9/13/2 10/5/2
f 10/45/3 7/46/3 5/7/3
f 6/8/3 8/47/3 12/9/3
f 12/9/3 10/45/3 5/7/3
f 2/10/4 4/16/4 8/11/4
f 11/4/5 4/16/5 2/10/5
f 2/10/5 1/3/5 3/2/5
f 9/13/5 11/4/5 2/10/5
f 23/48/6 21/49/6 1/3/6
f 6/8/6 5/7/6 14/50/6
f 6/8/6 14/50/6 13/14/6
f 23/48/6 1/3/6 2/10/6
f 24/51/6 23/48/6 2/10/6
f 2/10/6 6/8/6 13/14/6
f 16/15/6 24/51/6 2/10/6
f 4/16/11 11/4/11 12/6/11
f 7/18/8 10/5/8 17/19/8
f 28/52/8 27/41/8 3/2/8
f 3/2/8 7/18/8 18/20/8
f 19/21/8 28/52/8 3/2/8
f 28/52/8 19/21/8 20/22/8
f 20/22/8 17/19/8 10/5/8
f 10/5/8 9/13/8 26/40/8
f 25/23/8 28/52/8 20/22/8
f 10/5/8 26/40/8 25/23/8
f 13/24/5 14/31/5 18/25/5
f 19/27/3 15/30/3 16/28/3
f 16/28/9 13/24/9 17/26/9
f 15/30/10 19/27/10 18/25/10
f 24/32/5 22/39/5 28/33/5
f 23/35/3 26/38/3 27/36/3
f 26/38/9 23/35/9 24/32/9
f 22/39/10 21/37/10 27/36/10
f 26/40/8 9/13/8 3/2/8
f 14/50/6 5/7/6 1/3/6
f 1/3/6 21/49/6 22/42/6
f 22/42/6 24/51/6 16/15/6
f 15/43/6 14/50/6 1/3/6
f 22/42/6 16/15/6 15/43/6
