# Blender 4.4.1
# www.blender.org
mtllib door.mtl
o Cube
v -0.550000 0.850000 0.150000
v -0.550000 -0.450000 0.150000
v -0.388289 0.782727 -0.150000
v -0.388289 -0.382727 -0.150000
v 0.550000 0.850000 0.150000
v 0.550000 -0.450000 0.150000
v 0.388289 0.782727 -0.150000
v 0.388289 -0.382727 -0.150000
v 0.550000 -0.450000 -0.150000
v 0.550000 0.850000 -0.150000
v -0.550000 0.850000 -0.150000
v -0.550000 -0.450000 -0.150000
vn -0.0000 1.0000 -0.0000
vn -0.0000 -0.0000 -1.0000
vn 1.0000 -0.0000 -0.0000
vn -0.0000 -1.0000 -0.0000
vn -1.0000 -0.0000 -0.0000
vn -0.0000 -0.0000 1.0000
vt 0.906701 0.650146
vt 0.606836 0.950011
vt 0.606836 0.650146
vt 0.218482 0.275834
vt 0.006783 0.007004
vt 0.218482 0.007004
vt 0.606836 0.050416
vt 0.306971 0.350281
vt 0.306971 0.050416
vt 0.306971 0.650146
vt 0.007106 0.950011
vt 0.007106 0.650146
vt 0.306971 0.950011
vt 0.606836 0.350281
vt 0.591318 0.006333
vt 0.322489 0.006333
vt 0.591318 0.994094
vt 0.650919 0.965529
vt 0.906701 0.950011
vt 0.862618 0.965529
vt 0.051189 0.965529
vt 0.262888 0.965529
vt 0.006783 0.275834
vt 0.322489 0.994094
s 0
usemtl Material
f 5/1/1 11/2/1 1/3/1
f 3/4/2 8/5/2 4/6/2
f 10/7/3 6/8/3 9/9/3
f 2/10/4 9/11/4 6/12/4
f 1/3/5 12/13/5 2/10/5
f 5/14/6 2/10/6 6/8/6
f 7/15/2 9/9/2 8/16/2
f 3/17/2 12/13/2 11/2/2
f 3/18/2 10/19/2 7/20/2
f 8/21/2 12/13/2 4/22/2
f 5/1/1 10/19/1 11/2/1
f 3/4/2 7/23/2 8/5/2
f 10/7/3 5/14/3 6/8/3
f 2/10/4 12/13/4 9/11/4
f 1/3/5 11/2/5 12/13/5
f 5/14/6 1/3/6 2/10/6
f 7/15/2 10/7/2 9/9/2
f 3/17/2 4/24/2 12/13/2
f 3/18/2 11/2/2 10/19/2
f 8/21/2 9/11/2 12/13/2
