# Blender 4.4.1
# www.blender.org
mtllib Skydome.mtl
o 球
v 0.000000 207.867447 138.892563
v 0.000000 138.892609 207.867432
v 0.000000 48.772636 245.196396
v 0.000000 0.000057 250.000092
v 0.000000 -48.772522 245.196396
v 0.000000 -138.892517 207.867523
v 9.515064 245.196320 47.835388
v 18.664473 230.969879 93.832565
v 27.096613 207.867447 136.223785
v 34.487442 176.776733 173.379990
v 40.552944 138.892609 203.873306
v 45.060013 95.670906 226.531937
v 47.835457 48.772636 240.485016
v 48.772610 0.000057 245.196396
v 47.835457 -48.772522 240.485016
v 45.060013 -95.670815 226.531937
v 40.552944 -138.892517 203.873398
v 34.487442 -176.776642 173.380081
v 27.096613 -207.867355 136.223877
v 18.664473 -230.969879 93.832657
v 9.515064 -245.196320 47.835503
v 18.664469 245.196320 45.059944
v 36.611675 230.969879 88.388344
v 53.151917 207.867447 128.319977
v 67.649551 176.776733 163.320374
v 79.547455 138.892609 192.044434
v 88.388390 95.670906 213.388412
v 93.832626 48.772625 226.531937
v 95.670914 0.000051 230.969940
v 93.832626 -48.772533 226.531937
v 88.388390 -95.670815 213.388412
v 79.547455 -138.892517 192.044525
v 67.649551 -176.776642 163.320465
v 53.151917 -207.867355 128.320068
v 36.611675 -230.969879 88.388435
v 18.664469 -245.196320 45.060059
v 27.096609 245.196320 40.552872
v 53.151917 230.969879 79.547394
v 77.164612 207.867447 115.484917
v 98.211929 176.776733 146.984451
v 115.484993 138.892609 172.835419
v 128.320053 95.670906 192.044495
v 136.223862 48.772625 203.873352
v 138.892639 0.000048 207.867447
v 136.223862 -48.772533 203.873352
v 128.320053 -95.670815 192.044495
v 115.484993 -138.892517 172.835510
v 98.211929 -176.776642 146.984543
v 77.164612 -207.867355 115.485008
v 53.151917 -230.969879 79.547485
v 27.096609 -245.196320 40.552986
v 34.487438 245.196320 34.487370
v 67.649551 230.969879 67.649483
v 98.211922 207.867401 98.211838
v 125.000076 176.776733 125.000000
v 146.984512 138.892609 146.984421
v 163.320450 95.670906 163.320419
v 173.380081 48.772614 173.380020
v 176.776794 0.000039 176.776718
v 173.380081 -48.772545 173.380020
v 163.320450 -95.670815 163.320419
v 146.984512 -138.892517 146.984512
v 125.000076 -176.776642 125.000092
v 98.211922 -207.867401 98.211929
v 67.649551 -230.969879 67.649574
v 34.487438 -245.196320 34.487484
v 40.552940 245.196320 27.096540
v 79.547462 230.969879 53.151836
v 115.485001 207.867401 77.164536
v 146.984528 176.776688 98.211861
v 172.835510 138.892609 115.484924
v 192.044525 95.670883 128.320038
v 203.873398 48.772614 136.223801
v 207.867508 0.000030 138.892548
v 203.873398 -48.772545 136.223801
v 192.044525 -95.670837 128.320038
v 172.835510 -138.892517 115.484970
v 146.984528 -176.776688 98.211952
v 115.485001 -207.867401 77.164627
v 79.547462 -230.969879 53.151951
v 40.552940 -245.196320 27.096655
v 0.000000 250.000000 -0.000057
v 45.060005 245.196320 18.664402
v 88.388390 230.969879 36.611603
v 128.320053 207.867401 53.151836
v 163.320465 176.776688 67.649490
v 192.044525 138.892563 79.547379
v 213.388458 95.670883 88.388367
v 226.531967 48.772602 93.832573
v 230.969986 0.000021 95.670837
v 226.531967 -48.772556 93.832573
v 213.388458 -95.670837 88.388412
v 192.044525 -138.892563 79.547424
v 163.320465 -176.776688 67.649582
v 128.320053 -207.867401 53.151928
v 88.388390 -230.969879 36.611717
v 45.060005 -245.196320 18.664516
v 47.835445 245.196320 9.515001
v 93.832619 230.969879 18.664408
v 136.223846 207.867401 27.096542
v 173.380081 176.776688 34.487404
v 203.873367 138.892563 40.552872
v 226.531967 95.670860 45.059990
v 240.485062 48.772591 47.835407
v 245.196411 0.000012 48.772549
v 240.485062 -48.772568 47.835430
v 226.531967 -95.670860 45.060036
v 203.873367 -138.892563 40.552940
v 173.380081 -176.776688 34.487473
v 136.223846 -207.867401 27.096634
v 93.832619 -230.969879 18.664511
v 47.835445 -245.196320 9.515111
v 48.772594 245.196320 -0.000060
v 95.670906 230.969879 -0.000057
v 138.892609 207.867401 -0.000061
v 176.776779 176.776688 -0.000035
v 207.867477 138.892563 -0.000052
v 230.970001 95.670860 -0.000010
v 245.196426 48.772579 -0.000034
v 250.000076 -0.000000 -0.000041
v 245.196426 -48.772579 -0.000010
v 230.970001 -95.670860 0.000032
v 207.867477 -138.892563 0.000008
v 176.776779 -176.776688 0.000043
v 138.892609 -207.867401 0.000035
v 95.670906 -230.969879 0.000045
v 48.772594 -245.196320 0.000054
v 47.835442 245.196320 -9.515115
v 93.832619 230.969879 -18.664520
v 136.223831 207.867401 -27.096657
v 173.380066 176.776688 -34.487461
v 203.873352 138.892563 -40.552982
v 226.531967 95.670860 -45.060013
v 240.485046 48.772568 -47.835472
v 245.196365 -0.000012 -48.772625
v 240.485046 -48.772591 -47.835449
v 226.531967 -95.670860 -45.059967
v 203.873352 -138.892563 -40.552914
v 173.380066 -176.776688 -34.487392
v 136.223831 -207.867401 -27.096565
v 93.832619 -230.969879 -18.664417
v 47.835442 -245.196320 -9.515007
v 45.059998 245.196320 -18.664518
v 88.388390 230.969879 -36.611725
v 128.320023 207.867401 -53.151947
v 163.320450 176.776688 -67.649567
v 192.044495 138.892563 -79.547462
v 213.388458 95.670837 -88.388382
v 226.531937 48.772556 -93.832611
v 230.969910 -0.000021 -95.670898
v 226.531937 -48.772602 -93.832611
v 213.388458 -95.670883 -88.388336
v 192.044495 -138.892563 -79.547417
v 163.320450 -176.776688 -67.649475
v 128.320023 -207.867401 -53.151855
v 88.388390 -230.969879 -36.611610
v 45.059998 -245.196320 -18.664404
v 40.552925 245.196320 -27.096651
v 79.547447 230.969879 -53.151955
v 115.484962 207.867401 -77.164635
v 146.984512 176.776688 -98.211937
v 172.835464 138.892517 -115.484985
v 192.044525 95.670837 -128.320007
v 203.873352 48.772545 -136.223816
v 207.867401 -0.000030 -138.892593
v 203.873352 -48.772614 -136.223816
v 192.044525 -95.670883 -128.320007
v 172.835464 -138.892609 -115.484940
v 146.984512 -176.776688 -98.211845
v 115.484962 -207.867401 -77.164543
v 79.547447 -230.969879 -53.151840
v 40.552925 -245.196320 -27.096537
v 34.487427 245.196320 -34.487476
v 67.649536 230.969879 -67.649574
v 98.211876 207.867401 -98.211937
v 125.000061 176.776642 -125.000076
v 146.984467 138.892517 -146.984512
v 163.320450 95.670815 -163.320389
v 173.380035 48.772545 -173.380020
v 176.776672 -0.000039 -176.776733
v 173.380035 -48.772614 -173.380020
v 163.320450 -95.670906 -163.320389
v 146.984467 -138.892609 -146.984421
v 125.000061 -176.776733 -124.999985
v 98.211876 -207.867401 -98.211845
v 67.649536 -230.969879 -67.649483
v 34.487427 -245.196320 -34.487362
v 27.096596 245.196320 -40.552971
v 53.151894 230.969879 -79.547478
v 77.164574 207.867355 -115.485001
v 98.211914 176.776642 -146.984528
v 115.484955 138.892517 -172.835495
v 128.320053 95.670815 -192.044464
v 136.223801 48.772533 -203.873322
v 138.892517 -0.000048 -207.867416
v 136.223801 -48.772625 -203.873322
v 128.320053 -95.670906 -192.044464
v 115.484955 -138.892609 -172.835403
v 98.211914 -176.776733 -146.984436
v 77.164574 -207.867447 -115.484909
v 53.151894 -230.969879 -79.547386
v 27.096596 -245.196320 -40.552856
v 18.664457 245.196320 -45.060040
v 36.611652 230.969879 -88.388412
v 53.151871 207.867355 -128.320038
v 67.649536 176.776642 -163.320450
v 79.547409 138.892517 -192.044495
v 88.388390 95.670815 -213.388367
v 93.832565 48.772533 -226.531891
v 95.670799 -0.000051 -230.969864
v 93.832565 -48.772625 -226.531891
v 88.388390 -95.670906 -213.388367
v 79.547409 -138.892609 -192.044403
v 67.649536 -176.776733 -163.320358
v 53.151871 -207.867447 -128.319946
v 36.611652 -230.969879 -88.388321
v 18.664457 -245.196320 -45.059925
v 9.515057 245.196320 -47.835472
v 18.664452 230.969879 -93.832626
v 27.096575 207.867355 -136.223816
v 34.487434 176.776642 -173.380066
v 40.552906 138.892517 -203.873337
v 45.060013 95.670815 -226.531891
v 47.835407 48.772522 -240.484955
v 48.772507 -0.000057 -245.196289
v 47.835407 -48.772636 -240.484955
v 45.060013 -95.670906 -226.531891
v 40.552906 -138.892609 -203.873245
v 34.487434 -176.776733 -173.379974
v 27.096575 -207.867447 -136.223724
v 18.664452 -230.969879 -93.832535
v 9.515057 -245.196320 -47.835358
v -0.000002 245.196320 -48.772621
v -0.000013 230.969879 -95.670914
v -0.000024 207.867355 -138.892578
v -0.000004 176.776642 -176.776779
v -0.000026 138.892517 -207.867447
v 0.000007 95.670815 -230.969894
v -0.000034 48.772522 -245.196335
v -0.000082 -0.000057 -249.999924
v -0.000034 -48.772636 -245.196335
v 0.000007 -95.670906 -230.969894
v -0.000026 -138.892609 -207.867355
v -0.000004 -176.776733 -176.776688
v -0.000024 -207.867447 -138.892487
v -0.000013 -230.969879 -95.670822
v -0.000002 -245.196320 -48.772507
v -9.515059 245.196320 -47.835468
v -18.664478 230.969879 -93.832626
v -27.096621 207.867355 -136.223801
v -34.487438 176.776642 -173.380051
v -40.552956 138.892517 -203.873322
v -45.059994 95.670815 -226.531876
v -47.835476 48.772522 -240.484940
v -48.772659 -0.000057 -245.196228
v -47.835476 -48.772636 -240.484940
v -45.059994 -95.670906 -226.531876
v -40.552956 -138.892609 -203.873230
v -34.487438 -176.776733 -173.379959
v -27.096621 -207.867447 -136.223709
v -18.664478 -230.969879 -93.832535
v -9.515059 -245.196320 -47.835354
v -18.664457 245.196320 -45.060032
v -36.611675 230.969879 -88.388405
v -53.151909 207.867355 -128.319992
v -67.649536 176.776642 -163.320435
v -79.547455 138.892517 -192.044464
v -88.388359 95.670815 -213.388351
v -93.832626 48.772533 -226.531845
v -95.670929 -0.000051 -230.969772
v -93.832626 -48.772625 -226.531845
v -88.388359 -95.670906 -213.388351
v -79.547455 -138.892609 -192.044373
v -67.649536 -176.776733 -163.320343
v -53.151909 -207.867447 -128.319901
v -36.611675 -230.969879 -88.388313
v -18.664457 -245.196320 -45.059917
v -27.096592 245.196320 -40.552959
v -53.151909 230.969879 -79.547455
v -77.164597 207.867355 -115.484940
v -98.211914 176.776642 -146.984512
v -115.484978 138.892517 -172.835449
v -128.320007 95.670815 -192.044449
v -136.223846 48.772533 -203.873260
v -138.892609 -0.000048 -207.867264
v -136.223846 -48.772625 -203.873260
v -128.320007 -95.670906 -192.044449
v -115.484978 -138.892609 -172.835358
v -98.211914 -176.776733 -146.984421
v -77.164597 -207.867447 -115.484848
v -53.151909 -230.969879 -79.547363
v -27.096592 -245.196320 -40.552845
v -34.487419 245.196320 -34.487461
v -67.649536 230.969879 -67.649551
v -98.211884 207.867401 -98.211861
v -125.000053 176.776642 -125.000061
v -146.984482 138.892517 -146.984451
v -163.320404 95.670815 -163.320374
v -173.380051 48.772545 -173.379944
v -176.776718 -0.000039 -176.776550
v -173.380051 -48.772614 -173.379944
v -163.320404 -95.670906 -163.320374
v -146.984482 -138.892609 -146.984360
v -125.000053 -176.776733 -124.999969
v -98.211884 -207.867401 -98.211769
v -67.649536 -230.969879 -67.649460
v -34.487419 -245.196320 -34.487347
v 0.000000 -250.000000 0.000057
v -40.552914 245.196320 -27.096636
v -79.547440 230.969879 -53.151932
v -115.484947 207.867401 -77.164558
v -146.984497 176.776688 -98.211922
v -172.835464 138.892517 -115.484924
v -192.044479 95.670837 -128.319992
v -203.873352 48.772545 -136.223724
v -207.867401 -0.000030 -138.892410
v -203.873352 -48.772614 -136.223724
v -192.044479 -95.670883 -128.319992
v -172.835464 -138.892609 -115.484879
v -146.984497 -176.776688 -98.211830
v -115.484947 -207.867401 -77.164467
v -79.547440 -230.969879 -53.151817
v -40.552914 -245.196320 -27.096521
v -45.059978 245.196320 -18.664503
v -88.388367 230.969879 -36.611698
v -128.319977 207.867401 -53.151875
v -163.320435 176.776688 -67.649559
v -192.044464 138.892563 -79.547386
v -213.388397 95.670837 -88.388374
v -226.531921 48.772556 -93.832504
v -230.969849 -0.000021 -95.670708
v -226.531921 -48.772602 -93.832504
v -213.388397 -95.670883 -88.388329
v -192.044464 -138.892563 -79.547340
v -163.320435 -176.776688 -67.649467
v -128.319977 -207.867401 -53.151783
v -88.388367 -230.969879 -36.611584
v -45.059978 -245.196320 -18.664389
v -47.835415 245.196320 -9.515103
v -93.832588 230.969879 -18.664497
v -136.223755 207.867401 -27.096594
v -173.380051 176.776688 -34.487453
v -203.873306 138.892563 -40.552906
v -226.531906 95.670860 -45.060009
v -240.485001 48.772568 -47.835377
v -245.196259 -0.000012 -48.772442
v -240.485001 -48.772591 -47.835354
v -226.531906 -95.670860 -45.059963
v -203.873306 -138.892563 -40.552837
v -173.380051 -176.776688 -34.487385
v -136.223755 -207.867401 -27.096502
v -93.832588 -230.969879 -18.664394
v -47.835415 -245.196320 -9.514995
v -48.772568 245.196320 -0.000052
v -95.670868 230.969879 -0.000038
v -138.892532 207.867401 -0.000011
v -176.776749 176.776688 -0.000032
v -207.867416 138.892563 0.000011
v -230.969925 95.670860 -0.000017
v -245.196365 48.772579 0.000055
v -249.999908 0.000000 0.000112
v -245.196365 -48.772579 0.000079
v -230.969925 -95.670860 0.000025
v -207.867416 -138.892563 0.000071
v -176.776749 -176.776688 0.000046
v -138.892532 -207.867401 0.000085
v -95.670868 -230.969879 0.000064
v -48.772568 -245.196320 0.000062
v -47.835411 245.196320 9.515003
v -93.832581 230.969879 18.664417
v -136.223740 207.867401 27.096573
v -173.380035 176.776688 34.487400
v -203.873276 138.892563 40.552921
v -226.531891 95.670860 45.059967
v -240.484955 48.772591 47.835480
v -245.196213 0.000012 48.772663
v -240.484955 -48.772568 47.835503
v -226.531891 -95.670860 45.060013
v -203.873276 -138.892563 40.552990
v -173.380035 -176.776688 34.487469
v -136.223740 -207.867401 27.096664
v -93.832581 -230.969879 18.664520
v -47.835411 -245.196320 9.515112
v -45.059975 245.196320 18.664396
v -88.388359 230.969879 36.611603
v -128.319931 207.867401 53.151844
v -163.320419 176.776688 67.649475
v -192.044418 138.892563 79.547409
v -213.388382 95.670883 88.388321
v -226.531845 48.772602 93.832619
v -230.969742 0.000021 95.670906
v -226.531845 -48.772556 93.832619
v -213.388382 -95.670837 88.388367
v -192.044418 -138.892563 79.547455
v -163.320419 -176.776688 67.649567
v -128.319931 -207.867401 53.151936
v -88.388359 -230.969879 36.611717
v -45.059975 -245.196320 18.664511
v -40.552902 245.196320 27.096525
v -79.547409 230.969879 53.151825
v -115.484871 207.867401 77.164520
v -146.984482 176.776688 98.211838
v -172.835403 138.892609 115.484924
v -192.044464 95.670883 128.319977
v -203.873260 48.772614 136.223816
v -207.867249 0.000030 138.892563
v -203.873260 -48.772545 136.223816
v -192.044464 -95.670837 128.319977
v -172.835403 -138.892517 115.484970
v -146.984482 -176.776688 98.211929
v -115.484871 -207.867401 77.164612
v -79.547409 -230.969879 53.151939
v -40.552902 -245.196320 27.096640
v -34.487408 245.196320 34.487347
v -67.649513 230.969879 67.649460
v -98.211792 207.867401 98.211800
v -125.000031 176.776733 124.999969
v -146.984406 138.892609 146.984390
v -163.320389 95.670906 163.320343
v -173.379944 48.772614 173.379990
v -176.776535 0.000039 176.776657
v -173.379944 -48.772545 173.379990
v -163.320389 -95.670815 163.320343
v -146.984406 -138.892517 146.984482
v -125.000031 -176.776642 125.000061
v -98.211792 -207.867401 98.211891
v -67.649513 -230.969879 67.649551
v -34.487408 -245.196320 34.487461
v -27.096579 245.196320 40.552837
v -53.151875 230.969879 79.547356
v -77.164497 207.867447 115.484856
v -98.211884 176.776733 146.984421
v -115.484886 138.892609 172.835358
v -128.319992 95.670906 192.044418
v -136.223724 48.772625 203.873276
v -138.892395 0.000048 207.867310
v -136.223724 -48.772533 203.873276
v -128.319992 -95.670815 192.044418
v -115.484886 -138.892517 172.835449
v -98.211884 -176.776642 146.984512
v -77.164497 -207.867355 115.484947
v -53.151875 -230.969879 79.547447
v -27.096579 -245.196320 40.552952
v -18.664446 245.196320 45.059902
v -36.611641 230.969879 88.388298
v -53.151806 207.867447 128.319870
v -67.649521 176.776733 163.320343
v -79.547348 138.892609 192.044342
v -88.388351 95.670906 213.388321
v -93.832504 48.772625 226.531830
v -95.670700 0.000051 230.969742
v -93.832504 -48.772533 226.531830
v -88.388351 -95.670815 213.388321
v -79.547348 -138.892517 192.044434
v -67.649521 -176.776642 163.320435
v -53.151806 -207.867355 128.319962
v -36.611641 -230.969879 88.388390
v -18.664446 -245.196320 45.060017
v -9.515050 245.196320 47.835335
v -18.664444 230.969879 93.832512
v -27.096527 207.867447 136.223633
v -34.487415 176.776733 173.379959
v -40.552856 138.892609 203.873169
v -45.059978 95.670906 226.531830
v -47.835361 48.772636 240.484894
v -48.772434 0.000057 245.196136
v -47.835361 -48.772522 240.484894
v -45.059978 -95.670815 226.531830
v -40.552856 -138.892517 203.873260
v -34.487415 -176.776642 173.380051
v -27.096527 -207.867355 136.223724
v -18.664444 -230.969879 93.832603
v -9.515050 -245.196320 47.835449
v 0.000004 245.196320 48.772484
v 0.000017 230.969879 95.670792
v 0.000022 176.776733 176.776672
v 0.000015 95.670906 230.969849
v 0.000015 -95.670815 230.969849
v 0.000022 -176.776642 176.776764
v 0.000054 -207.867355 138.892487
v 0.000017 -230.969879 95.670883
v 0.000004 -245.196320 48.772598
vn -0.0097 0.9951 -0.0980
vn -0.0976 0.0975 -0.9904
vn -0.0975 0.0975 -0.9904
vn -0.0286 -0.9565 -0.2902
vn -0.0938 0.2890 -0.9527
vn -0.0464 -0.8810 -0.4709
vn -0.0865 0.4696 -0.8786
vn -0.0624 -0.7715 -0.6332
vn -0.0759 0.6326 -0.7708
vn -0.0759 -0.6326 -0.7708
vn -0.0624 0.7715 -0.6332
vn -0.0865 -0.4696 -0.8786
vn -0.0464 0.8810 -0.4709
vn -0.0938 -0.2890 -0.9527
vn -0.0286 0.9565 -0.2902
vn -0.0976 -0.0975 -0.9904
vn -0.0976 -0.0976 -0.9904
vn -0.0097 -0.9951 -0.0980
vn -0.0846 0.9565 -0.2790
vn -0.2889 -0.0975 -0.9524
vn -0.0286 -0.9951 -0.0942
vn -0.0286 0.9951 -0.0942
vn -0.2889 0.0975 -0.9524
vn -0.0846 -0.9565 -0.2790
vn -0.2779 0.2890 -0.9161
vn -0.1374 -0.8810 -0.4528
vn -0.2563 0.4696 -0.8448
vn -0.1847 -0.7715 -0.6088
vn -0.2248 0.6326 -0.7412
vn -0.2248 -0.6326 -0.7412
vn -0.1847 0.7715 -0.6088
vn -0.2563 -0.4696 -0.8448
vn -0.1374 0.8810 -0.4528
vn -0.2779 -0.2890 -0.9161
vn -0.2999 -0.7715 -0.5611
vn -0.3651 0.6326 -0.6831
vn -0.3651 -0.6326 -0.6831
vn -0.2999 0.7715 -0.5611
vn -0.4162 -0.4696 -0.7786
vn -0.2231 0.8810 -0.4173
vn -0.4513 -0.2890 -0.8443
vn -0.1374 0.9565 -0.2571
vn -0.4691 -0.0975 -0.8777
vn -0.0464 -0.9951 -0.0869
vn -0.0464 0.9951 -0.0869
vn -0.4691 0.0975 -0.8777
vn -0.1374 -0.9565 -0.2571
vn -0.1374 -0.9566 -0.2571
vn -0.4513 0.2890 -0.8443
vn -0.2230 -0.8810 -0.4173
vn -0.4162 0.4696 -0.7786
vn -0.6314 -0.0975 -0.7693
vn -0.0625 -0.9951 -0.0761
vn -0.0625 0.9951 -0.0761
vn -0.6314 0.0975 -0.7693
vn -0.1850 -0.9565 -0.2254
vn -0.6073 0.2890 -0.7400
vn -0.3002 -0.8810 -0.3658
vn -0.5601 0.4696 -0.6825
vn -0.4036 -0.7715 -0.4918
vn -0.4913 0.6326 -0.5987
vn -0.4913 -0.6326 -0.5987
vn -0.4036 0.7715 -0.4918
vn -0.5601 -0.4696 -0.6825
vn -0.3002 0.8810 -0.3658
vn -0.6073 -0.2890 -0.7400
vn -0.1850 0.9565 -0.2254
vn -0.5987 0.6326 -0.4913
vn -0.5987 -0.6326 -0.4913
vn -0.4918 0.7715 -0.4036
vn -0.6825 -0.4696 -0.5601
vn -0.3658 0.8810 -0.3002
vn -0.7400 -0.2890 -0.6073
vn -0.2254 0.9565 -0.1850
vn -0.7693 -0.0975 -0.6314
vn -0.0761 -0.9951 -0.0625
vn -0.0761 0.9951 -0.0625
vn -0.7693 0.0975 -0.6314
vn -0.2254 -0.9565 -0.1850
vn -0.7400 0.2890 -0.6073
vn -0.3658 -0.8810 -0.3002
vn -0.6825 0.4696 -0.5601
vn -0.4918 -0.7715 -0.4036
vn -0.0869 0.9951 -0.0464
vn -0.8777 0.0975 -0.4691
vn -0.2571 -0.9565 -0.1374
vn -0.8443 0.2890 -0.4513
vn -0.4173 -0.8810 -0.2230
vn -0.7786 0.4696 -0.4162
vn -0.5611 -0.7715 -0.2999
vn -0.6831 0.6326 -0.3651
vn -0.6831 -0.6326 -0.3651
vn -0.5611 0.7715 -0.2999
vn -0.7786 -0.4696 -0.4162
vn -0.4173 0.8810 -0.2231
vn -0.4173 0.8810 -0.2230
vn -0.8443 -0.2890 -0.4513
vn -0.2571 0.9565 -0.1374
vn -0.8777 -0.0975 -0.4691
vn -0.0869 -0.9951 -0.0464
vn -0.6088 0.7715 -0.1847
vn -0.8448 -0.4696 -0.2563
vn -0.4528 0.8810 -0.1374
vn -0.9161 -0.2890 -0.2779
vn -0.2790 0.9565 -0.0846
vn -0.9524 -0.0975 -0.2889
vn -0.9524 -0.0976 -0.2889
vn -0.0942 -0.9951 -0.0286
vn -0.0942 0.9951 -0.0286
vn -0.9524 0.0975 -0.2889
vn -0.2790 -0.9565 -0.0846
vn -0.9161 0.2890 -0.2779
vn -0.4528 -0.8810 -0.1374
vn -0.8448 0.4696 -0.2563
vn -0.6088 -0.7715 -0.1847
vn -0.7412 0.6326 -0.2248
vn -0.7412 -0.6326 -0.2248
vn -0.2902 -0.9565 -0.0286
vn -0.9527 0.2890 -0.0938
vn -0.4709 -0.8810 -0.0464
vn -0.8786 0.4696 -0.0865
vn -0.6332 -0.7715 -0.0624
vn -0.7708 0.6326 -0.0759
vn -0.7708 -0.6326 -0.0759
vn -0.6332 0.7715 -0.0624
vn -0.8786 -0.4696 -0.0865
vn -0.4709 0.8810 -0.0464
vn -0.9527 -0.2890 -0.0938
vn -0.2902 0.9565 -0.0286
vn -0.9904 -0.0975 -0.0975
vn -0.0980 -0.9951 -0.0097
vn -0.0980 0.9951 -0.0097
vn -0.9904 0.0975 -0.0975
vn -0.8786 -0.4696 0.0865
vn -0.4709 0.8810 0.0464
vn -0.9527 -0.2890 0.0938
vn -0.2902 0.9565 0.0286
vn -0.9904 -0.0975 0.0976
vn -0.9904 -0.0975 0.0975
vn -0.0980 -0.9951 0.0097
vn -0.0980 0.9951 0.0097
vn -0.9904 0.0975 0.0975
vn -0.2902 -0.9565 0.0286
vn -0.9527 0.2890 0.0938
vn -0.4709 -0.8810 0.0464
vn -0.8786 0.4696 0.0865
vn -0.6332 -0.7715 0.0624
vn -0.7708 0.6326 0.0759
vn -0.7708 -0.6326 0.0759
vn -0.6332 0.7715 0.0624
vn -0.9161 0.2890 0.2779
vn -0.4528 -0.8810 0.1374
vn -0.8448 0.4696 0.2563
vn -0.6088 -0.7715 0.1847
vn -0.7412 0.6326 0.2248
vn -0.7412 -0.6326 0.2248
vn -0.6088 0.7715 0.1847
vn -0.8448 -0.4696 0.2563
vn -0.4528 0.8810 0.1374
vn -0.9161 -0.2890 0.2779
vn -0.2790 0.9565 0.0846
vn -0.9524 -0.0975 0.2889
vn -0.0942 -0.9951 0.0286
vn -0.0942 0.9951 0.0286
vn -0.9524 0.0975 0.2889
vn -0.2790 -0.9565 0.0846
vn -0.4173 0.8810 0.2230
vn -0.8443 -0.2890 0.4513
vn -0.2571 0.9565 0.1374
vn -0.8777 -0.0975 0.4691
vn -0.0869 -0.9951 0.0464
vn -0.0869 0.9951 0.0464
vn -0.8777 0.0975 0.4691
vn -0.2571 -0.9565 0.1374
vn -0.8443 0.2890 0.4513
vn -0.4173 -0.8810 0.2230
vn -0.7786 0.4696 0.4162
vn -0.5611 -0.7715 0.2999
vn -0.6831 0.6326 0.3651
vn -0.6831 -0.6326 0.3651
vn -0.5611 0.7715 0.2999
vn -0.7786 -0.4696 0.4162
vn -0.3658 -0.8810 0.3002
vn -0.6825 0.4696 0.5601
vn -0.4918 -0.7715 0.4036
vn -0.5987 0.6326 0.4913
vn -0.5987 -0.6326 0.4913
vn -0.4918 0.7715 0.4036
vn -0.6825 -0.4696 0.5601
vn -0.3658 0.8810 0.3002
vn -0.7400 -0.2890 0.6073
vn -0.2254 0.9565 0.1850
vn -0.7693 -0.0975 0.6314
vn -0.0761 -0.9951 0.0625
vn -0.0761 0.9951 0.0625
vn -0.7693 0.0975 0.6314
vn -0.2254 -0.9565 0.1850
vn -0.7400 0.2890 0.6073
vn -0.6073 -0.2890 0.7400
vn -0.1850 0.9565 0.2254
vn -0.6314 -0.0975 0.7693
vn -0.0625 -0.9951 0.0761
vn -0.0625 0.9951 0.0761
vn -0.6314 0.0975 0.7693
vn -0.1850 -0.9565 0.2254
vn -0.6073 0.2890 0.7400
vn -0.3002 -0.8810 0.3658
vn -0.5601 0.4696 0.6825
vn -0.4036 -0.7715 0.4918
vn -0.4913 0.6326 0.5987
vn -0.4913 -0.6326 0.5987
vn -0.4036 0.7715 0.4918
vn -0.5601 -0.4696 0.6825
vn -0.3002 0.8810 0.3658
vn -0.4162 0.4696 0.7786
vn -0.2999 -0.7715 0.5611
vn -0.3651 0.6326 0.6831
vn -0.3651 -0.6326 0.6831
vn -0.2999 0.7715 0.5611
vn -0.4162 -0.4696 0.7786
vn -0.2230 0.8810 0.4173
vn -0.4513 -0.2890 0.8443
vn -0.1374 0.9565 0.2571
vn -0.4691 -0.0975 0.8777
vn -0.0464 -0.9951 0.0869
vn -0.0464 0.9951 0.0869
vn -0.4691 0.0975 0.8777
vn -0.1374 -0.9565 0.2571
vn -0.4513 0.2890 0.8443
vn -0.2231 -0.8810 0.4173
vn -0.2230 -0.8810 0.4173
vn -0.0846 0.9565 0.2790
vn -0.2889 -0.0975 0.9524
vn -0.0286 -0.9951 0.0942
vn -0.0286 0.9951 0.0942
vn -0.2889 0.0975 0.9524
vn -0.0846 -0.9565 0.2790
vn -0.2779 0.2890 0.9161
vn -0.1374 -0.8810 0.4528
vn -0.2563 0.4696 0.8448
vn -0.1847 -0.7715 0.6088
vn -0.2248 0.6326 0.7412
vn -0.2248 -0.6326 0.7412
vn -0.1847 0.7715 0.6088
vn -0.2563 -0.4696 0.8448
vn -0.1374 0.8810 0.4528
vn -0.2779 -0.2890 0.9161
vn -0.0759 0.6326 0.7708
vn -0.0759 -0.6326 0.7708
vn -0.0624 0.7715 0.6332
vn -0.0865 -0.4696 0.8786
vn -0.0464 0.8810 0.4709
vn -0.0938 -0.2890 0.9527
vn -0.0286 0.9565 0.2902
vn -0.0975 -0.0975 0.9904
vn -0.0097 -0.9951 0.0980
vn -0.0097 0.9951 0.0980
vn -0.0975 0.0975 0.9904
vn -0.0286 -0.9565 0.2902
vn -0.0938 0.2890 0.9527
vn -0.0464 -0.8810 0.4709
vn -0.0865 0.4696 0.8786
vn -0.0624 -0.7715 0.6332
vn 0.0097 -0.9951 0.0980
vn 0.0097 0.9951 0.0980
vn 0.0976 0.0975 0.9904
vn 0.0286 -0.9565 0.2902
vn 0.0938 0.2890 0.9527
vn 0.0464 -0.8810 0.4709
vn 0.0865 0.4696 0.8786
vn 0.0624 -0.7715 0.6332
vn 0.0759 0.6326 0.7708
vn 0.0759 -0.6326 0.7708
vn 0.0624 0.7715 0.6332
vn 0.0865 -0.4696 0.8786
vn 0.0464 0.8810 0.4709
vn 0.0938 -0.2890 0.9527
vn 0.0286 0.9565 0.2902
vn 0.0976 -0.0975 0.9904
vn 0.2248 -0.6326 0.7412
vn 0.1847 0.7715 0.6088
vn 0.2563 -0.4696 0.8448
vn 0.1374 0.8810 0.4528
vn 0.2779 -0.2890 0.9161
vn 0.0846 0.9565 0.2790
vn 0.2889 -0.0975 0.9524
vn 0.0286 -0.9951 0.0942
vn 0.0286 0.9951 0.0942
vn 0.2889 0.0975 0.9524
vn 0.0846 -0.9565 0.2790
vn 0.2779 0.2890 0.9161
vn 0.1374 -0.8810 0.4528
vn 0.2563 0.4696 0.8448
vn 0.1847 -0.7715 0.6088
vn 0.2248 0.6326 0.7412
vn 0.4691 0.0975 0.8777
vn 0.1374 -0.9565 0.2571
vn 0.4513 0.2890 0.8443
vn 0.2231 -0.8810 0.4173
vn 0.4162 0.4696 0.7786
vn 0.2999 -0.7715 0.5611
vn 0.3651 0.6326 0.6831
vn 0.3651 -0.6326 0.6831
vn 0.2999 0.7715 0.5611
vn 0.4162 -0.4696 0.7786
vn 0.2231 0.8810 0.4173
vn 0.2230 0.8810 0.4173
vn 0.4513 -0.2890 0.8443
vn 0.1374 0.9565 0.2571
vn 0.4691 -0.0975 0.8777
vn 0.0464 -0.9951 0.0869
vn 0.0464 0.9951 0.0869
vn 0.4036 0.7715 0.4918
vn 0.5601 -0.4696 0.6825
vn 0.3002 0.8810 0.3658
vn 0.6073 -0.2890 0.7400
vn 0.1850 0.9565 0.2254
vn 0.6314 -0.0975 0.7693
vn 0.0625 -0.9951 0.0761
vn 0.0625 0.9951 0.0761
vn 0.6314 0.0975 0.7693
vn 0.1850 -0.9565 0.2254
vn 0.6073 0.2890 0.7400
vn 0.3002 -0.8810 0.3658
vn 0.5601 0.4696 0.6825
vn 0.4036 -0.7715 0.4918
vn 0.4913 0.6326 0.5987
vn 0.4913 -0.6326 0.5987
vn 0.2254 -0.9565 0.1850
vn 0.7400 0.2890 0.6073
vn 0.3658 -0.8810 0.3002
vn 0.6825 0.4696 0.5601
vn 0.4918 -0.7715 0.4036
vn 0.5987 0.6326 0.4913
vn 0.5987 -0.6326 0.4913
vn 0.4918 0.7715 0.4036
vn 0.6825 -0.4696 0.5601
vn 0.3658 0.8810 0.3002
vn 0.7400 -0.2890 0.6073
vn 0.2254 0.9565 0.1850
vn 0.7693 -0.0975 0.6314
vn 0.0761 -0.9951 0.0625
vn 0.0761 0.9951 0.0625
vn 0.7693 0.0975 0.6314
vn 0.7786 -0.4696 0.4162
vn 0.4173 0.8810 0.2230
vn 0.8443 -0.2890 0.4513
vn 0.2571 0.9565 0.1374
vn 0.8777 -0.0975 0.4691
vn 0.0869 -0.9951 0.0464
vn 0.0869 0.9951 0.0464
vn 0.8777 0.0975 0.4691
vn 0.2571 -0.9565 0.1374
vn 0.8443 0.2890 0.4513
vn 0.4173 -0.8810 0.2231
vn 0.4173 -0.8810 0.2230
vn 0.7786 0.4696 0.4162
vn 0.5611 -0.7715 0.2999
vn 0.6831 0.6326 0.3651
vn 0.6831 -0.6326 0.3651
vn 0.5611 0.7715 0.2999
vn 0.9161 0.2890 0.2779
vn 0.4528 -0.8810 0.1374
vn 0.8448 0.4696 0.2563
vn 0.6088 -0.7715 0.1847
vn 0.7412 0.6326 0.2248
vn 0.7412 -0.6326 0.2248
vn 0.6088 0.7715 0.1847
vn 0.8448 -0.4696 0.2563
vn 0.4528 0.8810 0.1374
vn 0.9161 -0.2890 0.2779
vn 0.2790 0.9565 0.0846
vn 0.9524 -0.0975 0.2889
vn 0.0942 -0.9951 0.0286
vn 0.0942 0.9951 0.0286
vn 0.9524 0.0975 0.2889
vn 0.2790 -0.9565 0.0846
vn 0.4709 0.8810 0.0464
vn 0.9527 -0.2890 0.0938
vn 0.2902 0.9565 0.0286
vn 0.9904 -0.0975 0.0975
vn 0.0980 -0.9951 0.0097
vn 0.0980 0.9951 0.0097
vn 0.9904 0.0975 0.0975
vn 0.2902 -0.9565 0.0286
vn 0.9527 0.2890 0.0938
vn 0.4709 -0.8810 0.0464
vn 0.8786 0.4696 0.0865
vn 0.6332 -0.7715 0.0624
vn 0.7708 0.6326 0.0759
vn 0.7708 -0.6326 0.0759
vn 0.6332 0.7715 0.0624
vn 0.8786 -0.4696 0.0865
vn 0.8786 0.4696 -0.0865
vn 0.6332 -0.7715 -0.0624
vn 0.7708 0.6326 -0.0759
vn 0.7708 -0.6326 -0.0759
vn 0.6332 0.7715 -0.0624
vn 0.8786 -0.4696 -0.0865
vn 0.4709 0.8810 -0.0464
vn 0.9527 -0.2890 -0.0938
vn 0.2902 0.9565 -0.0286
vn 0.9904 -0.0975 -0.0976
vn 0.0980 -0.9951 -0.0097
vn 0.0980 0.9951 -0.0097
vn 0.9904 0.0975 -0.0976
vn 0.2902 -0.9565 -0.0286
vn 0.9527 0.2890 -0.0938
vn 0.4709 -0.8810 -0.0464
vn 0.2790 0.9565 -0.0846
vn 0.9524 -0.0975 -0.2889
vn 0.0942 -0.9951 -0.0286
vn 0.0942 0.9951 -0.0286
vn 0.9524 0.0975 -0.2889
vn 0.2790 -0.9565 -0.0846
vn 0.9161 0.2890 -0.2779
vn 0.4528 -0.8810 -0.1374
vn 0.8448 0.4696 -0.2563
vn 0.6088 -0.7715 -0.1847
vn 0.7412 0.6326 -0.2248
vn 0.7412 -0.6326 -0.2248
vn 0.6088 0.7715 -0.1847
vn 0.8448 -0.4696 -0.2563
vn 0.4528 0.8810 -0.1374
vn 0.9161 -0.2890 -0.2779
vn 0.5611 -0.7715 -0.2999
vn 0.6831 0.6326 -0.3651
vn 0.6831 -0.6326 -0.3651
vn 0.5611 0.7715 -0.2999
vn 0.7786 -0.4696 -0.4162
vn 0.4173 0.8810 -0.2231
vn 0.8443 -0.2890 -0.4513
vn 0.2571 0.9565 -0.1374
vn 0.8777 -0.0975 -0.4691
vn 0.0869 -0.9951 -0.0464
vn 0.0869 0.9951 -0.0464
vn 0.8777 0.0975 -0.4691
vn 0.2571 -0.9565 -0.1374
vn 0.8443 0.2890 -0.4513
vn 0.4173 -0.8810 -0.2231
vn 0.7786 0.4696 -0.4162
vn 0.7693 -0.0975 -0.6314
vn 0.0761 -0.9951 -0.0625
vn 0.0761 0.9951 -0.0625
vn 0.7693 0.0975 -0.6314
vn 0.2254 -0.9565 -0.1850
vn 0.7400 0.2890 -0.6073
vn 0.3658 -0.8810 -0.3002
vn 0.6825 0.4696 -0.5601
vn 0.4918 -0.7715 -0.4036
vn 0.5987 0.6326 -0.4913
vn 0.5987 -0.6326 -0.4913
vn 0.4918 0.7715 -0.4036
vn 0.6825 -0.4696 -0.5601
vn 0.3658 0.8810 -0.3002
vn 0.7400 -0.2890 -0.6073
vn 0.2254 0.9565 -0.1850
vn 0.4913 0.6326 -0.5987
vn 0.4913 -0.6326 -0.5987
vn 0.4036 0.7715 -0.4918
vn 0.5601 -0.4696 -0.6825
vn 0.3002 0.8810 -0.3658
vn 0.6073 -0.2890 -0.7400
vn 0.1850 0.9565 -0.2254
vn 0.6314 -0.0975 -0.7693
vn 0.0625 -0.9951 -0.0761
vn 0.0625 0.9951 -0.0761
vn 0.6314 0.0975 -0.7693
vn 0.1850 -0.9565 -0.2254
vn 0.6073 0.2890 -0.7400
vn 0.3002 -0.8810 -0.3658
vn 0.5601 0.4696 -0.6825
vn 0.4036 -0.7715 -0.4918
vn 0.0464 -0.9951 -0.0869
vn 0.0464 0.9951 -0.0869
vn 0.4691 0.0975 -0.8777
vn 0.1374 -0.9565 -0.2571
vn 0.4513 0.2890 -0.8443
vn 0.2230 -0.8810 -0.4173
vn 0.2231 -0.8810 -0.4173
vn 0.4162 0.4696 -0.7786
vn 0.2999 -0.7715 -0.5611
vn 0.3651 0.6326 -0.6831
vn 0.3651 -0.6326 -0.6831
vn 0.2999 0.7715 -0.5611
vn 0.4162 -0.4696 -0.7786
vn 0.2231 0.8810 -0.4173
vn 0.2230 0.8810 -0.4173
vn 0.4513 -0.2890 -0.8443
vn 0.1374 0.9565 -0.2571
vn 0.4691 -0.0975 -0.8777
vn 0.2248 -0.6326 -0.7412
vn 0.1847 0.7715 -0.6088
vn 0.2563 -0.4696 -0.8448
vn 0.1374 0.8810 -0.4528
vn 0.2779 -0.2890 -0.9161
vn 0.0846 0.9565 -0.2790
vn 0.0846 0.9566 -0.2790
vn 0.2889 -0.0975 -0.9524
vn 0.0286 -0.9951 -0.0942
vn 0.0286 0.9951 -0.0942
vn 0.2889 0.0975 -0.9524
vn 0.0846 -0.9565 -0.2790
vn 0.2779 0.2890 -0.9161
vn 0.1374 -0.8810 -0.4528
vn 0.2563 0.4696 -0.8448
vn 0.1847 -0.7715 -0.6088
vn 0.2248 0.6326 -0.7412
vn 0.0976 0.0975 -0.9904
vn 0.0286 -0.9565 -0.2902
vn 0.0938 0.2890 -0.9527
vn 0.0464 -0.8810 -0.4709
vn 0.0865 0.4696 -0.8786
vn 0.0624 -0.7715 -0.6332
vn 0.0759 0.6326 -0.7708
vn 0.0759 -0.6326 -0.7708
vn 0.0624 0.7715 -0.6332
vn 0.0865 -0.4696 -0.8786
vn 0.0464 0.8810 -0.4709
vn 0.0938 -0.2890 -0.9527
vn 0.0286 0.9565 -0.2902
vn 0.0976 -0.0975 -0.9904
vn 0.0097 -0.9951 -0.0980
vn 0.0097 0.9951 -0.0980
vn -0.9904 0.0975 0.0976
vn -0.4173 0.8810 0.2231
vt 0.734375 0.000000
vt 0.750000 0.062500
vt 0.718750 0.062500
vt 0.718750 0.437500
vt 0.750000 0.437500
vt 0.750000 0.500000
vt 0.750000 0.875000
vt 0.750000 0.937500
vt 0.718750 0.937500
vt 0.718750 0.375000
vt 0.750000 0.375000
vt 0.750000 0.812500
vt 0.718750 0.875000
vt 0.718750 0.312500
vt 0.750000 0.312500
vt 0.750000 0.750000
vt 0.718750 0.812500
vt 0.750000 0.250000
vt 0.718750 0.687500
vt 0.750000 0.687500
vt 0.718750 0.187500
vt 0.750000 0.187500
vt 0.750000 0.625000
vt 0.718750 0.125000
vt 0.750000 0.125000
vt 0.718750 0.562500
vt 0.750000 0.562500
vt 0.718750 0.500000
vt 0.734375 1.000000
vt 0.687500 0.062500
vt 0.687500 0.500000
vt 0.703125 1.000000
vt 0.687500 0.937500
vt 0.703125 0.000000
vt 0.687500 0.437500
vt 0.687500 0.875000
vt 0.687500 0.375000
vt 0.687500 0.812500
vt 0.687500 0.750000
vt 0.718750 0.750000
vt 0.687500 0.250000
vt 0.718750 0.250000
vt 0.687500 0.687500
vt 0.687500 0.625000
vt 0.718750 0.625000
vt 0.687500 0.125000
vt 0.687500 0.562500
vt 0.656250 0.812500
vt 0.656250 0.250000
vt 0.687500 0.312500
vt 0.656250 0.687500
vt 0.687500 0.187500
vt 0.656250 0.125000
vt 0.656250 0.625000
vt 0.656250 0.062500
vt 0.656250 0.500000
vt 0.671875 1.000000
vt 0.656250 0.937500
vt 0.671875 0.000000
vt 0.656250 0.437500
vt 0.656250 0.875000
vt 0.656250 0.375000
vt 0.656250 0.312500
vt 0.625000 0.500000
vt 0.656250 0.562500
vt 0.640625 1.000000
vt 0.625000 0.937500
vt 0.640625 0.000000
vt 0.625000 0.062500
vt 0.625000 0.437500
vt 0.625000 0.875000
vt 0.625000 0.375000
vt 0.656250 0.750000
vt 0.625000 0.812500
vt 0.625000 0.312500
vt 0.625000 0.687500
vt 0.625000 0.187500
vt 0.656250 0.187500
vt 0.625000 0.625000
vt 0.625000 0.125000
vt 0.593750 0.250000
vt 0.625000 0.250000
vt 0.593750 0.687500
vt 0.625000 0.750000
vt 0.593750 0.625000
vt 0.593750 0.125000
vt 0.625000 0.562500
vt 0.593750 0.062500
vt 0.593750 0.562500
vt 0.609375 1.000000
vt 0.593750 0.937500
vt 0.609375 0.000000
vt 0.593750 0.437500
vt 0.593750 0.375000
vt 0.593750 0.812500
vt 0.593750 0.750000
vt 0.578125 0.000000
vt 0.562500 0.062500
vt 0.562500 0.437500
vt 0.593750 0.500000
vt 0.562500 0.875000
vt 0.593750 0.875000
vt 0.562500 0.375000
vt 0.562500 0.812500
vt 0.593750 0.312500
vt 0.562500 0.750000
vt 0.562500 0.250000
vt 0.593750 0.187500
vt 0.562500 0.625000
vt 0.562500 0.187500
vt 0.562500 0.125000
vt 0.562500 0.562500
vt 0.578125 1.000000
vt 0.562500 0.937500
vt 0.531250 0.250000
vt 0.531250 0.625000
vt 0.562500 0.687500
vt 0.531250 0.125000
vt 0.531250 0.062500
vt 0.562500 0.500000
vt 0.531250 0.562500
vt 0.546875 1.000000
vt 0.531250 0.937500
vt 0.546875 0.000000
vt 0.531250 0.437500
vt 0.531250 0.875000
vt 0.531250 0.375000
vt 0.562500 0.312500
vt 0.531250 0.750000
vt 0.500000 0.875000
vt 0.500000 0.375000
vt 0.500000 0.812500
vt 0.531250 0.812500
vt 0.531250 0.312500
vt 0.500000 0.750000
vt 0.500000 0.250000
vt 0.531250 0.687500
vt 0.531250 0.187500
vt 0.500000 0.625000
vt 0.500000 0.187500
vt 0.500000 0.062500
vt 0.531250 0.500000
vt 0.500000 0.562500
vt 0.515625 1.000000
vt 0.500000 0.937500
vt 0.515625 0.000000
vt 0.500000 0.437500
vt 0.468750 0.625000
vt 0.500000 0.687500
vt 0.468750 0.125000
vt 0.500000 0.125000
vt 0.468750 0.062500
vt 0.500000 0.500000
vt 0.468750 0.562500
vt 0.484375 1.000000
vt 0.468750 0.937500
vt 0.484375 0.000000
vt 0.468750 0.437500
vt 0.468750 0.375000
vt 0.468750 0.875000
vt 0.500000 0.312500
vt 0.468750 0.750000
vt 0.468750 0.250000
vt 0.468750 0.187500
vt 0.437500 0.375000
vt 0.468750 0.812500
vt 0.437500 0.875000
vt 0.468750 0.312500
vt 0.437500 0.750000
vt 0.437500 0.250000
vt 0.468750 0.687500
vt 0.437500 0.625000
vt 0.437500 0.187500
vt 0.437500 0.062500
vt 0.468750 0.500000
vt 0.437500 0.562500
vt 0.453125 1.000000
vt 0.437500 0.937500
vt 0.453125 0.000000
vt 0.437500 0.437500
vt 0.406250 0.125000
vt 0.437500 0.125000
vt 0.406250 0.625000
vt 0.437500 0.500000
vt 0.406250 0.562500
vt 0.421875 1.000000
vt 0.406250 0.937500
vt 0.421875 0.000000
vt 0.406250 0.062500
vt 0.406250 0.437500
vt 0.406250 0.875000
vt 0.406250 0.375000
vt 0.406250 0.812500
vt 0.437500 0.812500
vt 0.437500 0.312500
vt 0.406250 0.750000
vt 0.406250 0.250000
vt 0.437500 0.687500
vt 0.375000 0.812500
vt 0.406250 0.312500
vt 0.375000 0.375000
vt 0.375000 0.750000
vt 0.375000 0.250000
vt 0.375000 0.687500
vt 0.406250 0.687500
vt 0.406250 0.187500
vt 0.375000 0.625000
vt 0.375000 0.187500
vt 0.375000 0.125000
vt 0.406250 0.500000
vt 0.375000 0.562500
vt 0.390625 1.000000
vt 0.375000 0.937500
vt 0.390625 0.000000
vt 0.375000 0.062500
vt 0.375000 0.437500
vt 0.375000 0.875000
vt 0.343750 0.625000
vt 0.343750 0.062500
vt 0.375000 0.500000
vt 0.343750 0.562500
vt 0.359375 1.000000
vt 0.343750 0.937500
vt 0.359375 0.000000
vt 0.343750 0.437500
vt 0.343750 0.875000
vt 0.343750 0.375000
vt 0.343750 0.812500
vt 0.375000 0.312500
vt 0.343750 0.750000
vt 0.343750 0.250000
vt 0.343750 0.125000
vt 0.343750 0.312500
vt 0.312500 0.375000
vt 0.312500 0.750000
vt 0.312500 0.250000
vt 0.312500 0.687500
vt 0.343750 0.687500
vt 0.343750 0.187500
vt 0.312500 0.625000
vt 0.312500 0.187500
vt 0.312500 0.125000
vt 0.343750 0.500000
vt 0.312500 0.562500
vt 0.328125 1.000000
vt 0.312500 0.937500
vt 0.328125 0.000000
vt 0.312500 0.062500
vt 0.312500 0.437500
vt 0.312500 0.875000
vt 0.312500 0.812500
vt 0.281250 0.125000
vt 0.312500 0.500000
vt 0.281250 0.562500
vt 0.296875 1.000000
vt 0.281250 0.937500
vt 0.296875 0.000000
vt 0.281250 0.062500
vt 0.281250 0.437500
vt 0.281250 0.875000
vt 0.281250 0.375000
vt 0.281250 0.812500
vt 0.312500 0.312500
vt 0.281250 0.750000
vt 0.281250 0.250000
vt 0.281250 0.625000
vt 0.250000 0.250000
vt 0.281250 0.312500
vt 0.281250 0.687500
vt 0.250000 0.750000
vt 0.281250 0.187500
vt 0.250000 0.625000
vt 0.250000 0.125000
vt 0.250000 0.062500
vt 0.281250 0.500000
vt 0.250000 0.562500
vt 0.265625 1.000000
vt 0.250000 0.937500
vt 0.265625 0.000000
vt 0.250000 0.437500
vt 0.250000 0.875000
vt 0.250000 0.375000
vt 0.250000 0.812500
vt 0.234375 1.000000
vt 0.218750 0.937500
vt 0.234375 0.000000
vt 0.218750 0.062500
vt 0.218750 0.437500
vt 0.250000 0.500000
vt 0.218750 0.375000
vt 0.218750 0.875000
vt 0.250000 0.312500
vt 0.218750 0.750000
vt 0.218750 0.250000
vt 0.250000 0.687500
vt 0.250000 0.187500
vt 0.218750 0.625000
vt 0.218750 0.125000
vt 0.218750 0.562500
vt 0.218750 0.687500
vt 0.187500 0.750000
vt 0.218750 0.187500
vt 0.187500 0.250000
vt 0.187500 0.625000
vt 0.187500 0.125000
vt 0.187500 0.062500
vt 0.218750 0.500000
vt 0.187500 0.562500
vt 0.203125 1.000000
vt 0.187500 0.937500
vt 0.203125 0.000000
vt 0.187500 0.437500
vt 0.187500 0.875000
vt 0.187500 0.375000
vt 0.218750 0.812500
vt 0.218750 0.312500
vt 0.156250 0.437500
vt 0.187500 0.500000
vt 0.156250 0.875000
vt 0.156250 0.375000
vt 0.187500 0.812500
vt 0.187500 0.312500
vt 0.156250 0.750000
vt 0.156250 0.250000
vt 0.187500 0.687500
vt 0.156250 0.187500
vt 0.187500 0.187500
vt 0.156250 0.625000
vt 0.156250 0.125000
vt 0.156250 0.062500
vt 0.156250 0.562500
vt 0.171875 1.000000
vt 0.156250 0.937500
vt 0.171875 0.000000
vt 0.125000 0.250000
vt 0.125000 0.625000
vt 0.156250 0.687500
vt 0.125000 0.125000
vt 0.125000 0.062500
vt 0.156250 0.500000
vt 0.125000 0.562500
vt 0.140625 1.000000
vt 0.125000 0.937500
vt 0.140625 0.000000
vt 0.125000 0.437500
vt 0.125000 0.875000
vt 0.125000 0.375000
vt 0.156250 0.812500
vt 0.156250 0.312500
vt 0.125000 0.750000
vt 0.093750 0.875000
vt 0.093750 0.375000
vt 0.125000 0.812500
vt 0.125000 0.312500
vt 0.093750 0.750000
vt 0.093750 0.250000
vt 0.125000 0.687500
vt 0.125000 0.187500
vt 0.093750 0.625000
vt 0.093750 0.125000
vt 0.093750 0.062500
vt 0.125000 0.500000
vt 0.093750 0.562500
vt 0.109375 1.000000
vt 0.093750 0.937500
vt 0.109375 0.000000
vt 0.093750 0.437500
vt 0.062500 0.625000
vt 0.093750 0.687500
vt 0.062500 0.125000
vt 0.093750 0.187500
vt 0.093750 0.500000
vt 0.062500 0.562500
vt 0.078125 1.000000
vt 0.062500 0.937500
vt 0.078125 0.000000
vt 0.062500 0.062500
vt 0.062500 0.437500
vt 0.062500 0.875000
vt 0.062500 0.375000
vt 0.093750 0.812500
vt 0.093750 0.312500
vt 0.062500 0.750000
vt 0.062500 0.250000
vt 0.031250 0.375000
vt 0.062500 0.812500
vt 0.031250 0.875000
vt 0.062500 0.312500
vt 0.031250 0.750000
vt 0.031250 0.250000
vt 0.062500 0.687500
vt 0.062500 0.187500
vt 0.031250 0.625000
vt 0.031250 0.125000
vt 0.031250 0.062500
vt 0.062500 0.500000
vt 0.031250 0.562500
vt 0.046875 1.000000
vt 0.031250 0.937500
vt 0.046875 0.000000
vt 0.031250 0.437500
vt 0.000000 0.125000
vt 0.031250 0.187500
vt 0.000000 0.625000
vt 0.000000 0.062500
vt 0.031250 0.500000
vt 0.000000 0.562500
vt 0.015625 1.000000
vt 0.000000 0.937500
vt 0.015625 0.000000
vt 0.000000 0.437500
vt 0.000000 0.875000
vt 0.000000 0.375000
vt 0.000000 0.812500
vt 0.031250 0.812500
vt 0.031250 0.312500
vt 0.000000 0.750000
vt 0.000000 0.250000
vt 0.031250 0.687500
vt 1.000000 0.312500
vt 1.000000 0.375000
vt 0.968750 0.375000
vt 0.968750 0.750000
vt 1.000000 0.750000
vt 1.000000 0.812500
vt 0.968750 0.250000
vt 1.000000 0.250000
vt 1.000000 0.687500
vt 1.000000 0.187500
vt 0.968750 0.625000
vt 1.000000 0.625000
vt 0.968750 0.125000
vt 1.000000 0.125000
vt 1.000000 0.562500
vt 1.000000 0.062500
vt 1.000000 0.500000
vt 0.968750 0.562500
vt 1.000000 0.937500
vt 0.984375 1.000000
vt 0.968750 0.937500
vt 0.984375 0.000000
vt 0.968750 0.062500
vt 0.968750 0.437500
vt 1.000000 0.437500
vt 0.968750 0.875000
vt 1.000000 0.875000
vt 0.937500 0.062500
vt 0.968750 0.500000
vt 0.937500 0.562500
vt 0.953125 1.000000
vt 0.937500 0.937500
vt 0.953125 0.000000
vt 0.937500 0.437500
vt 0.937500 0.375000
vt 0.937500 0.812500
vt 0.968750 0.812500
vt 0.968750 0.312500
vt 0.937500 0.750000
vt 0.937500 0.250000
vt 0.968750 0.687500
vt 0.968750 0.187500
vt 0.937500 0.625000
vt 0.937500 0.125000
vt 0.906250 0.750000
vt 0.906250 0.250000
vt 0.937500 0.312500
vt 0.937500 0.687500
vt 0.937500 0.187500
vt 0.906250 0.625000
vt 0.906250 0.187500
vt 0.906250 0.062500
vt 0.937500 0.500000
vt 0.906250 0.562500
vt 0.921875 1.000000
vt 0.906250 0.937500
vt 0.921875 0.000000
vt 0.906250 0.437500
vt 0.906250 0.875000
vt 0.937500 0.875000
vt 0.906250 0.375000
vt 0.906250 0.812500
vt 0.906250 0.500000
vt 0.875000 0.562500
vt 0.890625 1.000000
vt 0.875000 0.937500
vt 0.890625 0.000000
vt 0.875000 0.062500
vt 0.875000 0.437500
vt 0.875000 0.875000
vt 0.875000 0.375000
vt 0.906250 0.312500
vt 0.875000 0.750000
vt 0.875000 0.250000
vt 0.906250 0.687500
vt 0.875000 0.625000
vt 0.875000 0.125000
vt 0.906250 0.125000
vt 0.843750 0.250000
vt 0.875000 0.312500
vt 0.875000 0.687500
vt 0.843750 0.750000
vt 0.875000 0.187500
vt 0.843750 0.625000
vt 0.843750 0.125000
vt 0.875000 0.500000
vt 0.843750 0.562500
vt 0.859375 1.000000
vt 0.843750 0.937500
vt 0.859375 0.000000
vt 0.843750 0.062500
vt 0.843750 0.437500
vt 0.843750 0.875000
vt 0.843750 0.375000
vt 0.875000 0.812500
vt 0.828125 1.000000
vt 0.812500 0.937500
vt 0.828125 0.000000
vt 0.812500 0.062500
vt 0.812500 0.437500
vt 0.843750 0.500000
vt 0.812500 0.875000
vt 0.812500 0.375000
vt 0.843750 0.812500
vt 0.843750 0.312500
vt 0.812500 0.750000
vt 0.812500 0.250000
vt 0.843750 0.687500
vt 0.843750 0.187500
vt 0.812500 0.625000
vt 0.812500 0.125000
vt 0.812500 0.562500
vt 0.812500 0.687500
vt 0.781250 0.750000
vt 0.812500 0.187500
vt 0.781250 0.250000
vt 0.781250 0.625000
vt 0.781250 0.125000
vt 0.781250 0.062500
vt 0.812500 0.500000
vt 0.781250 0.562500
vt 0.796875 1.000000
vt 0.781250 0.937500
vt 0.796875 0.000000
vt 0.781250 0.437500
vt 0.781250 0.875000
vt 0.781250 0.375000
vt 0.781250 0.812500
vt 0.812500 0.812500
vt 0.812500 0.312500
vt 0.781250 0.500000
vt 0.781250 0.312500
vt 0.781250 0.687500
vt 0.781250 0.187500
vt 0.765625 1.000000
vt 0.765625 0.000000
vt 0.000000 0.187500
vt 0.000000 0.500000
vt 0.000000 0.312500
vt 0.000000 0.687500
s 1
usemtl マテリアル.001
f 308/1/1 482/2/1 21/3/1
f 15/4/2 5/5/3 4/6/2
f 475/7/4 474/8/4 7/9/4
f 16/10/5 478/11/5 5/5/5
f 1/12/6 475/7/6 8/13/6
f 17/14/7 6/15/7 478/11/7
f 476/16/8 1/12/8 9/17/8
f 479/18/9 6/15/9 17/14/9
f 11/19/10 2/20/10 476/16/10
f 19/21/11 480/22/11 479/18/11
f 477/23/12 2/20/12 11/19/12
f 20/24/13 481/25/13 480/22/13
f 13/26/14 3/27/14 477/23/14
f 21/3/15 482/2/15 481/25/15
f 14/28/16 4/6/17 3/27/16
f 474/8/18 82/29/18 7/9/18
f 36/30/19 21/3/19 20/24/19
f 29/31/20 14/28/20 13/26/20
f 7/9/21 82/32/21 22/33/21
f 308/34/22 21/3/22 36/30/22
f 30/35/23 15/4/23 14/28/23
f 23/36/24 8/13/24 7/9/24
f 31/37/25 16/10/25 15/4/25
f 24/38/26 9/17/26 8/13/26
f 17/14/27 16/10/27 31/37/27
f 25/39/28 10/40/28 9/17/28
f 33/41/29 18/42/29 17/14/29
f 26/43/30 11/19/30 10/40/30
f 19/21/31 18/42/31 33/41/31
f 27/44/32 12/45/32 11/19/32
f 35/46/33 20/24/33 19/21/33
f 28/47/34 13/26/34 12/45/34
f 25/39/35 24/38/35 39/48/35
f 48/49/36 33/41/36 32/50/36
f 41/51/37 26/43/37 25/39/37
f 34/52/38 33/41/38 48/49/38
f 27/44/39 26/43/39 41/51/39
f 50/53/40 35/46/40 34/52/40
f 28/47/41 27/44/41 42/54/41
f 51/55/42 36/30/42 35/46/42
f 44/56/43 29/31/43 28/47/43
f 22/33/44 82/57/44 37/58/44
f 308/59/45 36/30/45 51/55/45
f 45/60/46 30/35/46 29/31/46
f 38/61/47 23/36/47 22/33/48
f 46/62/49 31/37/49 30/35/49
f 39/48/50 24/38/50 23/36/50
f 47/63/51 32/50/51 31/37/51
f 59/64/52 44/56/52 43/65/52
f 37/58/53 82/66/53 52/67/53
f 308/68/54 51/55/54 66/69/54
f 60/70/55 45/60/55 44/56/55
f 53/71/56 38/61/56 37/58/56
f 61/72/57 46/62/57 45/60/57
f 39/48/58 38/61/58 53/71/58
f 47/63/59 46/62/59 61/72/59
f 40/73/60 39/48/60 54/74/60
f 48/49/61 47/63/61 62/75/61
f 56/76/62 41/51/62 40/73/62
f 64/77/63 49/78/63 48/49/63
f 57/79/64 42/54/64 41/51/64
f 65/80/65 50/53/65 49/78/65
f 43/65/66 42/54/66 57/79/66
f 51/55/67 50/53/67 65/80/67
f 78/81/68 63/82/68 62/75/68
f 71/83/69 56/76/69 55/84/69
f 64/77/70 63/82/70 78/81/70
f 72/85/71 57/79/71 56/76/71
f 80/86/72 65/80/72 64/77/72
f 58/87/73 57/79/73 72/85/73
f 81/88/74 66/69/74 65/80/74
f 59/64/75 58/87/75 73/89/75
f 52/67/76 82/90/76 67/91/76
f 308/92/77 66/69/77 81/88/77
f 75/93/78 60/70/78 59/64/78
f 53/71/79 52/67/79 67/91/79
f 76/94/80 61/72/80 60/70/80
f 69/95/81 54/74/81 53/71/81
f 62/75/82 61/72/82 76/94/82
f 70/96/83 55/84/83 54/74/83
f 308/97/84 81/88/84 97/98/84
f 91/99/85 75/93/85 74/100/85
f 84/101/86 68/102/86 67/91/86
f 92/103/87 76/94/87 75/93/87
f 85/104/88 69/95/88 68/102/88
f 77/105/89 76/94/89 92/103/89
f 86/106/90 70/96/90 69/95/90
f 94/107/91 78/81/91 77/105/91
f 71/83/92 70/96/92 86/106/92
f 79/108/93 78/81/93 94/107/93
f 88/109/94 72/85/94 71/83/94
f 80/86/95 79/108/96 95/110/96
f 73/89/97 72/85/97 88/109/97
f 81/88/98 80/86/98 96/111/98
f 74/100/99 73/89/99 89/112/99
f 67/91/100 82/113/100 83/114/100
f 95/110/101 94/107/101 109/115/101
f 103/116/102 88/109/102 87/117/102
f 111/118/103 96/111/103 95/110/103
f 89/112/104 88/109/104 103/116/104
f 112/119/105 97/98/105 96/111/105
f 90/120/106 89/112/107 104/121/106
f 83/114/108 82/122/108 98/123/108
f 308/124/109 97/98/109 112/119/109
f 106/125/110 91/99/110 90/120/110
f 99/126/111 84/101/111 83/114/111
f 107/127/112 92/103/112 91/99/112
f 85/104/113 84/101/113 99/126/113
f 93/128/114 92/103/114 107/127/114
f 101/129/115 86/106/115 85/104/115
f 109/115/116 94/107/116 93/128/116
f 87/117/117 86/106/117 101/129/117
f 114/130/118 99/126/118 98/123/118
f 122/131/119 107/127/119 106/125/119
f 115/132/120 100/133/120 99/126/120
f 108/134/121 107/127/121 122/131/121
f 116/135/122 101/129/122 100/133/122
f 124/136/123 109/115/123 108/134/123
f 102/137/124 101/129/124 116/135/124
f 110/138/125 109/115/125 124/136/125
f 118/139/126 103/116/126 102/137/126
f 111/118/127 110/138/127 125/140/127
f 104/121/128 103/116/128 118/139/128
f 127/141/129 112/119/129 111/118/129
f 105/142/130 104/121/130 119/143/130
f 98/123/131 82/144/131 113/145/131
f 308/146/132 112/119/132 127/141/132
f 121/147/133 106/125/133 105/142/133
f 133/148/134 118/139/134 117/149/134
f 141/150/135 126/151/135 125/140/135
f 119/143/136 118/139/136 133/148/136
f 142/152/137 127/141/137 126/151/137
f 120/153/138 119/143/139 134/154/138
f 113/145/140 82/155/140 128/156/140
f 308/157/141 127/141/141 142/152/141
f 136/158/142 121/147/142 120/153/142
f 114/130/143 113/145/143 128/156/143
f 137/159/144 122/131/144 121/147/144
f 115/132/145 114/130/145 129/160/145
f 123/161/146 122/131/146 137/159/146
f 131/162/147 116/135/147 115/132/147
f 139/163/148 124/136/148 123/161/148
f 117/149/149 116/135/149 131/162/149
f 140/164/150 125/140/150 124/136/150
f 152/165/151 137/159/151 136/158/151
f 130/166/152 129/160/152 144/167/152
f 138/168/153 137/159/153 152/165/153
f 146/169/154 131/162/154 130/166/154
f 154/170/155 139/163/155 138/168/155
f 132/171/156 131/162/156 146/169/156
f 140/164/157 139/163/157 154/170/157
f 148/172/158 133/148/158 132/171/158
f 141/150/159 140/164/159 155/173/159
f 134/154/160 133/148/160 148/172/160
f 157/174/161 142/152/161 141/150/161
f 135/175/162 134/154/162 149/176/162
f 128/156/163 82/177/163 143/178/163
f 308/179/164 142/152/164 157/174/164
f 151/180/165 136/158/165 135/175/165
f 144/167/166 129/160/166 128/156/166
f 171/181/167 156/182/167 155/173/167
f 149/176/168 148/172/168 163/183/168
f 157/174/169 156/182/169 171/181/169
f 150/184/170 149/176/170 164/185/170
f 143/178/171 82/186/171 158/187/171
f 308/188/172 157/174/172 172/189/172
f 166/190/173 151/180/173 150/184/173
f 159/191/174 144/167/174 143/178/174
f 167/192/175 152/165/175 151/180/175
f 160/193/176 145/194/176 144/167/176
f 153/195/177 152/165/177 167/192/177
f 161/196/178 146/169/178 145/194/178
f 169/197/179 154/170/179 153/195/179
f 147/198/180 146/169/180 161/196/180
f 155/173/181 154/170/181 169/197/181
f 163/183/182 148/172/182 147/198/182
f 175/199/183 160/193/183 159/191/183
f 168/200/184 167/192/184 182/201/184
f 176/202/185 161/196/185 160/193/185
f 184/203/186 169/197/186 168/200/186
f 177/204/187 162/205/187 161/196/187
f 170/206/188 169/197/188 184/203/188
f 178/207/189 163/183/189 162/205/189
f 171/181/190 170/206/190 185/208/190
f 164/185/191 163/183/191 178/207/191
f 172/189/192 171/181/192 186/209/192
f 165/210/193 164/185/193 179/211/193
f 158/187/194 82/212/194 173/213/194
f 308/214/195 172/189/195 187/215/195
f 181/216/196 166/190/196 165/210/196
f 174/217/197 159/191/197 158/187/197
f 182/201/198 167/192/198 166/190/198
f 179/211/199 178/207/199 193/218/199
f 202/219/200 187/215/200 186/209/200
f 180/220/201 179/211/201 194/221/201
f 173/213/202 82/222/202 188/223/202
f 308/224/203 187/215/203 202/219/203
f 196/225/204 181/216/204 180/220/204
f 189/226/205 174/217/205 173/213/205
f 197/227/206 182/201/206 181/216/206
f 190/228/207 175/199/207 174/217/207
f 183/229/208 182/201/208 197/227/208
f 191/230/209 176/202/209 175/199/209
f 199/231/210 184/203/210 183/229/210
f 177/204/211 176/202/211 191/230/211
f 185/208/212 184/203/212 199/231/212
f 193/218/213 178/207/213 177/204/213
f 201/232/214 186/209/214 185/208/214
f 198/233/215 197/227/215 212/234/215
f 206/235/216 191/230/216 190/228/216
f 214/236/217 199/231/217 198/233/217
f 207/237/218 192/238/218 191/230/218
f 200/239/219 199/231/219 214/236/219
f 208/240/220 193/218/220 192/238/220
f 201/232/221 200/239/221 215/241/221
f 194/221/222 193/218/222 208/240/222
f 202/219/223 201/232/223 216/242/223
f 195/243/224 194/221/224 209/244/224
f 188/223/225 82/245/225 203/246/225
f 308/247/226 202/219/226 217/248/226
f 211/249/227 196/225/227 195/243/227
f 204/250/228 189/226/228 188/223/228
f 212/234/229 197/227/229 196/225/229
f 205/251/230 190/228/230 189/226/231
f 217/248/232 216/242/232 231/252/232
f 210/253/233 209/244/233 224/254/233
f 203/246/234 82/255/234 218/256/234
f 308/257/235 217/248/235 232/258/235
f 226/259/236 211/249/236 210/253/236
f 219/260/237 204/250/237 203/246/237
f 227/261/238 212/234/238 211/249/238
f 220/262/239 205/251/239 204/250/239
f 213/263/240 212/234/240 227/261/240
f 221/264/241 206/235/241 205/251/241
f 229/265/242 214/236/242 213/263/242
f 207/237/243 206/235/243 221/264/243
f 215/241/244 214/236/244 229/265/244
f 223/266/245 208/240/245 207/237/245
f 231/252/246 216/242/246 215/241/246
f 209/244/247 208/240/247 223/266/247
f 244/267/248 229/265/248 228/268/248
f 222/269/249 221/264/249 236/270/249
f 230/271/250 229/265/250 244/267/250
f 238/272/251 223/266/251 222/269/251
f 246/273/252 231/252/252 230/271/252
f 224/254/253 223/266/253 238/272/253
f 247/274/254 232/258/254 231/252/254
f 225/275/255 224/254/255 239/276/255
f 218/256/256 82/277/256 233/278/256
f 308/279/257 232/258/257 247/274/257
f 241/280/258 226/259/258 225/275/258
f 234/281/259 219/260/259 218/256/259
f 242/282/260 227/261/260 226/259/260
f 235/283/261 220/262/261 219/260/261
f 228/268/262 227/261/262 242/282/262
f 236/270/263 221/264/263 220/262/263
f 233/278/264 82/284/264 248/285/264
f 308/286/265 247/274/265 262/287/265
f 256/288/266 241/280/266 240/289/266
f 234/281/267 233/278/267 248/285/267
f 257/290/268 242/282/268 241/280/268
f 235/283/269 234/281/269 249/291/269
f 243/292/270 242/282/270 257/290/270
f 251/293/271 236/270/271 235/283/271
f 259/294/272 244/267/272 243/292/272
f 237/295/273 236/270/273 251/293/273
f 245/296/274 244/267/274 259/294/274
f 253/297/275 238/272/275 237/295/275
f 261/298/276 246/273/276 245/296/276
f 239/276/277 238/272/277 253/297/277
f 262/287/278 247/274/278 246/273/278
f 240/289/279 239/276/279 254/299/279
f 252/300/280 251/293/280 266/301/280
f 260/302/281 259/294/281 274/303/281
f 268/304/282 253/297/282 252/300/282
f 276/305/283 261/298/283 260/302/283
f 254/299/284 253/297/284 268/304/284
f 277/306/285 262/287/285 261/298/285
f 255/307/286 254/299/286 269/308/286
f 248/285/287 82/309/287 263/310/287
f 308/311/288 262/287/288 277/306/288
f 271/312/289 256/288/289 255/307/289
f 264/313/290 249/291/290 248/285/290
f 272/314/291 257/290/291 256/288/291
f 250/315/292 249/291/292 264/313/292
f 258/316/293 257/290/293 272/314/293
f 266/301/294 251/293/294 250/315/294
f 274/303/295 259/294/295 258/316/295
f 286/317/296 271/312/296 270/318/296
f 279/319/297 264/313/297 263/310/297
f 287/320/298 272/314/298 271/312/298
f 265/321/299 264/313/299 279/319/299
f 273/322/300 272/314/300 287/320/300
f 281/323/301 266/301/301 265/321/301
f 289/324/302 274/303/302 273/322/302
f 267/325/303 266/301/303 281/323/303
f 290/326/304 275/327/304 274/303/304
f 283/328/305 268/304/305 267/325/305
f 291/329/306 276/305/306 275/327/307
f 269/308/308 268/304/308 283/328/308
f 292/330/309 277/306/309 276/305/309
f 270/318/310 269/308/310 284/331/310
f 263/310/311 82/332/311 278/333/311
f 308/334/312 277/306/312 292/330/312
f 290/326/313 289/324/313 304/335/313
f 298/336/314 283/328/314 282/337/314
f 306/338/315 291/329/315 290/326/315
f 284/331/316 283/328/316 298/336/316
f 307/339/317 292/330/317 291/329/317
f 285/340/318 284/331/318 299/341/318
f 278/333/319 82/342/319 293/343/319
f 308/344/320 292/330/320 307/339/320
f 301/345/321 286/317/321 285/340/321
f 294/346/322 279/319/322 278/333/322
f 302/347/323 287/320/323 286/317/323
f 280/348/324 279/319/324 294/346/324
f 288/349/325 287/320/325 302/347/325
f 296/350/326 281/323/326 280/348/326
f 304/335/327 289/324/327 288/349/327
f 282/337/328 281/323/328 296/350/328
f 310/351/329 294/346/329 293/343/329
f 318/352/330 302/347/330 301/345/330
f 295/353/331 294/346/331 310/351/331
f 303/354/332 302/347/332 318/352/332
f 312/355/333 296/350/333 295/353/333
f 320/356/334 304/335/334 303/354/334
f 297/357/335 296/350/335 312/355/335
f 305/358/336 304/335/336 320/356/336
f 314/359/337 298/336/337 297/357/337
f 322/360/338 306/338/338 305/358/338
f 299/341/339 298/336/339 314/359/339
f 323/361/340 307/339/340 306/338/340
f 300/362/341 299/341/341 315/363/341
f 293/343/342 82/364/342 309/365/342
f 308/366/343 307/339/343 323/361/343
f 317/367/344 301/345/344 300/362/344
f 329/368/345 314/359/345 313/369/345
f 337/370/346 322/360/346 321/371/346
f 315/363/347 314/359/347 329/368/347
f 323/361/348 322/360/348 337/370/348
f 316/372/349 315/363/349 330/373/349
f 309/365/350 82/374/350 324/375/350
f 308/376/351 323/361/351 338/377/351
f 332/378/352 317/367/352 316/372/352
f 325/379/353 310/351/353 309/365/353
f 333/380/354 318/352/354 317/367/354
f 311/381/355 310/351/356 325/379/356
f 319/382/357 318/352/357 333/380/357
f 327/383/358 312/355/358 311/381/358
f 335/384/359 320/356/359 319/382/359
f 313/369/360 312/355/360 327/383/360
f 321/371/361 320/356/361 335/384/361
f 348/385/362 333/380/362 332/378/362
f 326/386/363 325/379/363 340/387/363
f 334/388/364 333/380/364 348/385/364
f 342/389/365 327/383/365 326/386/365
f 350/390/366 335/384/366 334/388/366
f 328/391/367 327/383/367 342/389/367
f 336/392/368 335/384/368 350/390/368
f 344/393/369 329/368/369 328/391/369
f 352/394/370 337/370/370 336/392/370
f 330/373/371 329/368/371 344/393/371
f 353/395/372 338/377/372 337/370/372
f 331/396/373 330/373/373 345/397/373
f 324/375/374 82/398/374 339/399/374
f 308/400/375 338/377/375 353/395/375
f 347/401/376 332/378/376 331/396/376
f 340/387/377 325/379/377 324/375/377
f 367/402/378 352/394/378 351/403/378
f 345/397/379 344/393/379 359/404/379
f 368/405/380 353/395/380 352/394/380
f 346/406/381 345/397/381 360/407/381
f 339/399/382 82/408/382 354/409/382
f 308/410/383 353/395/383 368/405/383
f 362/411/384 347/401/384 346/406/384
f 355/412/385 340/387/385 339/399/385
f 363/413/386 348/385/386 347/401/386
f 356/414/387 341/415/387 340/387/387
f 349/416/388 348/385/388 363/413/388
f 357/417/389 342/389/389 341/415/389
f 365/418/390 350/390/390 349/416/390
f 343/419/391 342/389/391 357/417/391
f 351/403/392 350/390/392 365/418/392
f 359/404/393 344/393/393 343/419/393
f 364/420/394 363/421/394 378/422/394
f 372/423/395 357/424/395 356/425/395
f 380/426/396 365/427/396 364/420/396
f 358/428/397 357/424/397 372/423/397
f 366/429/398 365/427/398 380/426/398
f 374/430/399 359/431/399 358/428/399
f 382/432/400 367/433/400 366/429/400
f 360/434/401 359/431/401 374/430/401
f 368/435/402 367/433/402 382/432/402
f 361/436/403 360/434/403 375/437/403
f 354/438/404 82/439/404 369/440/404
f 308/441/405 368/435/405 383/442/405
f 377/443/406 362/444/406 361/436/406
f 370/445/407 355/446/407 354/438/407
f 378/422/408 363/421/408 362/444/408
f 356/425/409 355/446/409 370/445/409
f 398/447/410 383/442/410 382/432/410
f 376/448/411 375/437/411 390/449/411
f 369/440/412 82/450/412 384/451/412
f 308/452/413 383/442/413 398/447/413
f 392/453/414 377/443/414 376/448/414
f 370/445/415 369/440/415 384/451/415
f 393/454/416 378/422/416 377/443/416
f 386/455/417 371/456/417 370/445/417
f 379/457/418 378/422/418 393/454/418
f 387/458/419 372/423/419 371/456/419
f 395/459/420 380/426/420 379/457/420
f 373/460/421 372/423/421 387/458/421
f 381/461/422 380/426/422 395/459/422
f 389/462/423 374/430/423 373/460/423
f 397/463/424 382/432/424 381/461/424
f 375/437/425 374/430/425 389/462/425
f 402/464/426 387/458/426 386/455/426
f 410/465/427 395/459/427 394/466/427
f 388/467/428 387/458/428 402/464/428
f 396/468/429 395/459/429 410/465/429
f 404/469/430 389/462/430 388/467/430
f 397/463/431 396/468/431 411/470/431
f 390/449/432 389/462/432 404/469/432
f 413/471/433 398/447/433 397/463/433
f 391/472/434 390/449/434 405/473/434
f 384/451/435 82/474/435 399/475/435
f 308/476/436 398/447/436 413/471/436
f 407/477/437 392/453/437 391/472/437
f 400/478/438 385/479/438 384/451/438
f 408/480/439 393/454/439 392/453/439
f 401/481/440 386/455/440 385/479/440
f 394/466/441 393/454/441 408/480/441
f 406/482/442 405/473/442 420/483/442
f 399/475/443 82/484/443 414/485/443
f 308/486/444 413/471/444 428/487/444
f 422/488/445 407/477/445 406/482/445
f 415/489/446 400/478/446 399/475/446
f 423/490/447 408/480/447 407/477/447
f 401/481/448 400/478/448 415/489/448
f 409/491/449 408/480/449 423/490/449
f 417/492/450 402/464/450 401/481/450
f 425/493/451 410/465/451 409/491/451
f 403/494/452 402/464/452 417/492/452
f 411/470/453 410/465/453 425/493/453
f 419/495/454 404/469/454 403/494/454
f 427/496/455 412/497/455 411/470/455
f 405/473/456 404/469/456 419/495/456
f 428/487/457 413/471/457 412/497/457
f 440/498/458 425/493/458 424/499/458
f 418/500/459 417/492/459 432/501/459
f 426/502/460 425/493/460 440/498/460
f 434/503/461 419/495/461 418/500/461
f 442/504/462 427/496/462 426/502/462
f 420/483/463 419/495/463 434/503/463
f 428/487/464 427/496/464 442/504/464
f 421/505/465 420/483/465 435/506/465
f 414/485/466 82/507/466 429/508/466
f 308/509/467 428/487/467 443/510/467
f 437/511/468 422/488/468 421/505/468
f 430/512/469 415/489/469 414/485/469
f 438/513/470 423/490/470 422/488/470
f 416/514/471 415/489/471 430/512/471
f 424/499/472 423/490/472 438/513/472
f 432/501/473 417/492/473 416/514/473
f 429/508/474 82/515/474 444/516/474
f 308/517/475 443/510/475 458/518/475
f 452/519/476 437/511/476 436/520/476
f 445/521/477 430/512/477 429/508/477
f 453/522/478 438/513/478 437/511/478
f 431/523/479 430/512/480 445/521/479
f 439/524/481 438/513/481 453/522/481
f 447/525/482 432/501/482 431/523/482
f 455/526/483 440/498/483 439/524/483
f 433/527/484 432/501/484 447/525/484
f 441/528/485 440/498/485 455/526/485
f 449/529/486 434/503/486 433/527/486
f 457/530/487 442/504/487 441/528/488
f 435/506/489 434/503/489 449/529/489
f 458/518/490 443/510/490 442/504/490
f 436/520/491 435/506/491 450/531/491
f 448/532/492 447/525/492 462/533/492
f 456/534/493 455/526/493 470/535/493
f 464/536/494 449/529/494 448/532/494
f 472/537/495 457/530/495 456/534/495
f 450/531/496 449/529/496 464/536/496
f 473/538/497 458/518/498 457/530/497
f 451/539/499 450/531/499 465/540/499
f 444/516/500 82/541/500 459/542/500
f 308/543/501 458/518/501 473/538/501
f 467/544/502 452/519/502 451/539/502
f 460/545/503 445/521/503 444/516/503
f 468/546/504 453/522/504 452/519/504
f 461/547/505 446/548/505 445/521/505
f 454/549/506 453/522/506 468/546/506
f 462/533/507 447/525/507 446/548/507
f 470/535/508 455/526/508 454/549/508
f 5/5/509 467/544/509 466/550/509
f 475/7/510 460/545/510 459/542/510
f 478/11/511 468/546/511 467/544/511
f 461/547/512 460/545/512 475/7/512
f 6/15/513 469/551/513 468/546/513
f 462/533/514 461/547/514 1/12/514
f 479/18/515 470/535/515 469/551/515
f 463/552/516 462/533/516 476/16/516
f 471/553/517 470/535/517 479/18/517
f 464/536/518 463/552/518 2/20/518
f 481/25/519 472/537/519 471/553/519
f 465/540/520 464/536/520 477/23/520
f 482/2/521 473/538/521 472/537/521
f 466/550/522 465/540/522 3/27/522
f 459/542/523 82/554/523 474/8/523
f 308/555/524 473/538/524 482/2/524
f 15/4/2 4/6/2 14/28/2
f 475/7/4 7/9/4 8/13/4
f 16/10/5 5/5/5 15/4/5
f 1/12/6 8/13/6 9/17/6
f 17/14/7 478/11/7 16/10/7
f 476/16/8 9/17/8 10/40/8
f 479/18/9 17/14/9 18/42/9
f 11/19/10 476/16/10 10/40/10
f 19/21/11 479/18/11 18/42/11
f 477/23/12 11/19/12 12/45/12
f 20/24/13 480/22/13 19/21/13
f 13/26/14 477/23/14 12/45/14
f 21/3/15 481/25/15 20/24/15
f 14/28/16 3/27/16 13/26/16
f 36/30/19 20/24/19 35/46/19
f 29/31/20 13/26/20 28/47/20
f 30/35/23 14/28/23 29/31/23
f 23/36/24 7/9/24 22/33/24
f 31/37/25 15/4/25 30/35/25
f 24/38/26 8/13/26 23/36/26
f 17/14/27 31/37/27 32/50/27
f 25/39/28 9/17/28 24/38/28
f 33/41/29 17/14/29 32/50/29
f 26/43/30 10/40/30 25/39/30
f 19/21/31 33/41/31 34/52/31
f 27/44/32 11/19/32 26/43/32
f 35/46/33 19/21/33 34/52/33
f 28/47/34 12/45/34 27/44/34
f 25/39/35 39/48/35 40/73/35
f 48/49/36 32/50/36 47/63/36
f 41/51/37 25/39/37 40/73/37
f 34/52/38 48/49/38 49/78/38
f 27/44/39 41/51/39 42/54/39
f 50/53/40 34/52/40 49/78/40
f 28/47/41 42/54/41 43/65/41
f 51/55/42 35/46/42 50/53/42
f 44/56/43 28/47/43 43/65/43
f 45/60/46 29/31/46 44/56/46
f 38/61/47 22/33/48 37/58/48
f 46/62/49 30/35/49 45/60/49
f 39/48/50 23/36/50 38/61/50
f 47/63/51 31/37/51 46/62/51
f 59/64/52 43/65/52 58/87/52
f 60/70/55 44/56/55 59/64/55
f 53/71/56 37/58/56 52/67/56
f 61/72/57 45/60/57 60/70/57
f 39/48/58 53/71/58 54/74/58
f 47/63/59 61/72/59 62/75/59
f 40/73/60 54/74/60 55/84/60
f 48/49/61 62/75/61 63/82/61
f 56/76/62 40/73/62 55/84/62
f 64/77/63 48/49/63 63/82/63
f 57/79/64 41/51/64 56/76/64
f 65/80/65 49/78/65 64/77/65
f 43/65/66 57/79/66 58/87/66
f 51/55/67 65/80/67 66/69/67
f 78/81/68 62/75/68 77/105/68
f 71/83/69 55/84/69 70/96/69
f 64/77/70 78/81/70 79/108/70
f 72/85/71 56/76/71 71/83/71
f 80/86/72 64/77/72 79/108/72
f 58/87/73 72/85/73 73/89/73
f 81/88/74 65/80/74 80/86/74
f 59/64/75 73/89/75 74/100/75
f 75/93/78 59/64/78 74/100/78
f 53/71/79 67/91/79 68/102/79
f 76/94/80 60/70/80 75/93/80
f 69/95/81 53/71/81 68/102/81
f 62/75/82 76/94/82 77/105/82
f 70/96/83 54/74/83 69/95/83
f 91/99/85 74/100/85 90/120/85
f 84/101/86 67/91/86 83/114/86
f 92/103/87 75/93/87 91/99/87
f 85/104/88 68/102/88 84/101/88
f 77/105/89 92/103/89 93/128/89
f 86/106/90 69/95/90 85/104/90
f 94/107/91 77/105/91 93/128/91
f 71/83/92 86/106/92 87/117/92
f 79/108/93 94/107/93 95/110/93
f 88/109/94 71/83/94 87/117/94
f 80/86/95 95/110/96 96/111/95
f 73/89/97 88/109/97 89/112/97
f 81/88/98 96/111/98 97/98/98
f 74/100/99 89/112/99 90/120/99
f 95/110/101 109/115/101 110/138/101
f 103/116/102 87/117/102 102/137/102
f 111/118/103 95/110/103 110/138/103
f 89/112/104 103/116/104 104/121/104
f 112/119/105 96/111/105 111/118/105
f 90/120/106 104/121/106 105/142/106
f 106/125/110 90/120/110 105/142/110
f 99/126/111 83/114/111 98/123/111
f 107/127/112 91/99/112 106/125/112
f 85/104/113 99/126/113 100/133/113
f 93/128/114 107/127/114 108/134/114
f 101/129/115 85/104/115 100/133/115
f 109/115/116 93/128/116 108/134/116
f 87/117/117 101/129/117 102/137/117
f 114/130/118 98/123/118 113/145/118
f 122/131/119 106/125/119 121/147/119
f 115/132/120 99/126/120 114/130/120
f 108/134/121 122/131/121 123/161/121
f 116/135/122 100/133/122 115/132/122
f 124/136/123 108/134/123 123/161/123
f 102/137/124 116/135/124 117/149/124
f 110/138/125 124/136/125 125/140/125
f 118/139/126 102/137/126 117/149/126
f 111/118/127 125/140/127 126/151/127
f 104/121/128 118/139/128 119/143/128
f 127/141/129 111/118/129 126/151/129
f 105/142/130 119/143/130 120/153/130
f 121/147/133 105/142/133 120/153/133
f 133/148/134 117/149/134 132/171/134
f 141/150/135 125/140/135 140/164/135
f 119/143/136 133/148/136 134/154/136
f 142/152/137 126/151/137 141/150/137
f 120/153/138 134/154/138 135/175/138
f 136/158/142 120/153/142 135/175/525
f 114/130/143 128/156/143 129/160/143
f 137/159/144 121/147/144 136/158/144
f 115/132/145 129/160/145 130/166/145
f 123/161/146 137/159/146 138/168/146
f 131/162/147 115/132/147 130/166/147
f 139/163/148 123/161/148 138/168/148
f 117/149/149 131/162/149 132/171/149
f 140/164/150 124/136/150 139/163/150
f 152/165/151 136/158/151 151/180/151
f 130/166/152 144/167/152 145/194/152
f 138/168/153 152/165/153 153/195/153
f 146/169/154 130/166/154 145/194/154
f 154/170/155 138/168/155 153/195/155
f 132/171/156 146/169/156 147/198/156
f 140/164/157 154/170/157 155/173/157
f 148/172/158 132/171/158 147/198/158
f 141/150/159 155/173/159 156/182/159
f 134/154/160 148/172/160 149/176/160
f 157/174/161 141/150/161 156/182/161
f 135/175/162 149/176/162 150/184/162
f 151/180/165 135/175/165 150/184/165
f 144/167/166 128/156/166 143/178/166
f 171/181/167 155/173/167 170/206/526
f 149/176/168 163/183/168 164/185/168
f 157/174/169 171/181/169 172/189/169
f 150/184/170 164/185/170 165/210/170
f 166/190/173 150/184/173 165/210/173
f 159/191/174 143/178/174 158/187/174
f 167/192/175 151/180/175 166/190/175
f 160/193/176 144/167/176 159/191/176
f 153/195/177 167/192/177 168/200/177
f 161/196/178 145/194/178 160/193/178
f 169/197/179 153/195/179 168/200/179
f 147/198/180 161/196/180 162/205/180
f 155/173/181 169/197/181 170/206/181
f 163/183/182 147/198/182 162/205/182
f 175/199/183 159/191/183 174/217/183
f 168/200/184 182/201/184 183/229/184
f 176/202/185 160/193/185 175/199/185
f 184/203/186 168/200/186 183/229/186
f 177/204/187 161/196/187 176/202/187
f 170/206/188 184/203/188 185/208/188
f 178/207/189 162/205/189 177/204/189
f 171/181/190 185/208/190 186/209/190
f 164/185/191 178/207/191 179/211/191
f 172/189/192 186/209/192 187/215/192
f 165/210/193 179/211/193 180/220/193
f 181/216/196 165/210/196 180/220/196
f 174/217/197 158/187/197 173/213/197
f 182/201/198 166/190/198 181/216/198
f 179/211/199 193/218/199 194/221/199
f 202/219/200 186/209/200 201/232/200
f 180/220/201 194/221/201 195/243/201
f 196/225/204 180/220/204 195/243/204
f 189/226/205 173/213/205 188/223/205
f 197/227/206 181/216/206 196/225/206
f 190/228/207 174/217/207 189/226/207
f 183/229/208 197/227/208 198/233/208
f 191/230/209 175/199/209 190/228/209
f 199/231/210 183/229/210 198/233/210
f 177/204/211 191/230/211 192/238/211
f 185/208/212 199/231/212 200/239/212
f 193/218/213 177/204/213 192/238/213
f 201/232/214 185/208/214 200/239/214
f 198/233/215 212/234/215 213/263/215
f 206/235/216 190/228/216 205/251/216
f 214/236/217 198/233/217 213/263/217
f 207/237/218 191/230/218 206/235/218
f 200/239/219 214/236/219 215/241/219
f 208/240/220 192/238/220 207/237/220
f 201/232/221 215/241/221 216/242/221
f 194/221/222 208/240/222 209/244/222
f 202/219/223 216/242/223 217/248/223
f 195/243/224 209/244/224 210/253/224
f 211/249/227 195/243/227 210/253/227
f 204/250/228 188/223/228 203/246/228
f 212/234/229 196/225/229 211/249/229
f 205/251/230 189/226/231 204/250/231
f 217/248/232 231/252/232 232/258/232
f 210/253/233 224/254/233 225/275/233
f 226/259/236 210/253/236 225/275/236
f 219/260/237 203/246/237 218/256/237
f 227/261/238 211/249/238 226/259/238
f 220/262/239 204/250/239 219/260/239
f 213/263/240 227/261/240 228/268/240
f 221/264/241 205/251/241 220/262/241
f 229/265/242 213/263/242 228/268/242
f 207/237/243 221/264/243 222/269/243
f 215/241/244 229/265/244 230/271/244
f 223/266/245 207/237/245 222/269/245
f 231/252/246 215/241/246 230/271/246
f 209/244/247 223/266/247 224/254/247
f 244/267/248 228/268/248 243/292/248
f 222/269/249 236/270/249 237/295/249
f 230/271/250 244/267/250 245/296/250
f 238/272/251 222/269/251 237/295/251
f 246/273/252 230/271/252 245/296/252
f 224/254/253 238/272/253 239/276/253
f 247/274/254 231/252/254 246/273/254
f 225/275/255 239/276/255 240/289/255
f 241/280/258 225/275/258 240/289/258
f 234/281/259 218/256/259 233/278/259
f 242/282/260 226/259/260 241/280/260
f 235/283/261 219/260/261 234/281/261
f 228/268/262 242/282/262 243/292/262
f 236/270/263 220/262/263 235/283/263
f 256/288/266 240/289/266 255/307/266
f 234/281/267 248/285/267 249/291/267
f 257/290/268 241/280/268 256/288/268
f 235/283/269 249/291/269 250/315/269
f 243/292/270 257/290/270 258/316/270
f 251/293/271 235/283/271 250/315/271
f 259/294/272 243/292/272 258/316/272
f 237/295/273 251/293/273 252/300/273
f 245/296/274 259/294/274 260/302/274
f 253/297/275 237/295/275 252/300/275
f 261/298/276 245/296/276 260/302/276
f 239/276/277 253/297/277 254/299/277
f 262/287/278 246/273/278 261/298/278
f 240/289/279 254/299/279 255/307/279
f 252/300/280 266/301/280 267/325/280
f 260/302/281 274/303/281 275/327/281
f 268/304/282 252/300/282 267/325/282
f 276/305/283 260/302/283 275/327/283
f 254/299/284 268/304/284 269/308/284
f 277/306/285 261/298/285 276/305/285
f 255/307/286 269/308/286 270/318/286
f 271/312/289 255/307/289 270/318/289
f 264/313/290 248/285/290 263/310/290
f 272/314/291 256/288/291 271/312/291
f 250/315/292 264/313/292 265/321/292
f 258/316/293 272/314/293 273/322/293
f 266/301/294 250/315/294 265/321/294
f 274/303/295 258/316/295 273/322/295
f 286/317/296 270/318/296 285/340/296
f 279/319/297 263/310/297 278/333/297
f 287/320/298 271/312/298 286/317/298
f 265/321/299 279/319/299 280/348/299
f 273/322/300 287/320/300 288/349/300
f 281/323/301 265/321/301 280/348/301
f 289/324/302 273/322/302 288/349/302
f 267/325/303 281/323/303 282/337/303
f 290/326/304 274/303/304 289/324/304
f 283/328/305 267/325/305 282/337/305
f 291/329/306 275/327/307 290/326/307
f 269/308/308 283/328/308 284/331/308
f 292/330/309 276/305/309 291/329/309
f 270/318/310 284/331/310 285/340/310
f 290/326/313 304/335/313 305/358/313
f 298/336/314 282/337/314 297/357/314
f 306/338/315 290/326/315 305/358/315
f 284/331/316 298/336/316 299/341/316
f 307/339/317 291/329/317 306/338/317
f 285/340/318 299/341/318 300/362/318
f 301/345/321 285/340/321 300/362/321
f 294/346/322 278/333/322 293/343/322
f 302/347/323 286/317/323 301/345/323
f 280/348/324 294/346/324 295/353/324
f 288/349/325 302/347/325 303/354/325
f 296/350/326 280/348/326 295/353/326
f 304/335/327 288/349/327 303/354/327
f 282/337/328 296/350/328 297/357/328
f 310/351/329 293/343/329 309/365/329
f 318/352/330 301/345/330 317/367/330
f 295/353/331 310/351/331 311/381/331
f 303/354/332 318/352/332 319/382/332
f 312/355/333 295/353/333 311/381/333
f 320/356/334 303/354/334 319/382/334
f 297/357/335 312/355/335 313/369/335
f 305/358/336 320/356/336 321/371/336
f 314/359/337 297/357/337 313/369/337
f 322/360/338 305/358/338 321/371/338
f 299/341/339 314/359/339 315/363/339
f 323/361/340 306/338/340 322/360/340
f 300/362/341 315/363/341 316/372/341
f 317/367/344 300/362/344 316/372/344
f 329/368/345 313/369/345 328/391/345
f 337/370/346 321/371/346 336/392/346
f 315/363/347 329/368/347 330/373/347
f 323/361/348 337/370/348 338/377/348
f 316/372/349 330/373/349 331/396/349
f 332/378/352 316/372/352 331/396/352
f 325/379/353 309/365/353 324/375/353
f 333/380/354 317/367/354 332/378/354
f 311/381/355 325/379/356 326/386/355
f 319/382/357 333/380/357 334/388/357
f 327/383/358 311/381/358 326/386/358
f 335/384/359 319/382/359 334/388/359
f 313/369/360 327/383/360 328/391/360
f 321/371/361 335/384/361 336/392/361
f 348/385/362 332/378/362 347/401/362
f 326/386/363 340/387/363 341/415/363
f 334/388/364 348/385/364 349/416/364
f 342/389/365 326/386/365 341/415/365
f 350/390/366 334/388/366 349/416/366
f 328/391/367 342/389/367 343/419/367
f 336/392/368 350/390/368 351/403/368
f 344/393/369 328/391/369 343/419/369
f 352/394/370 336/392/370 351/403/370
f 330/373/371 344/393/371 345/397/371
f 353/395/372 337/370/372 352/394/372
f 331/396/373 345/397/373 346/406/373
f 347/401/376 331/396/376 346/406/376
f 340/387/377 324/375/377 339/399/377
f 367/402/378 351/403/378 366/556/378
f 345/397/379 359/404/379 360/407/379
f 368/405/380 352/394/380 367/402/380
f 346/406/381 360/407/381 361/557/381
f 362/411/384 346/406/384 361/557/384
f 355/412/385 339/399/385 354/409/385
f 363/413/386 347/401/386 362/411/386
f 356/414/387 340/387/387 355/412/387
f 349/416/388 363/413/388 364/558/388
f 357/417/389 341/415/389 356/414/389
f 365/418/390 349/416/390 364/558/390
f 343/419/391 357/417/391 358/559/391
f 351/403/392 365/418/392 366/556/392
f 359/404/393 343/419/393 358/559/393
f 364/420/394 378/422/394 379/457/394
f 372/423/395 356/425/395 371/456/395
f 380/426/396 364/420/396 379/457/396
f 358/428/397 372/423/397 373/460/397
f 366/429/398 380/426/398 381/461/398
f 374/430/399 358/428/399 373/460/399
f 382/432/400 366/429/400 381/461/400
f 360/434/401 374/430/401 375/437/401
f 368/435/402 382/432/402 383/442/402
f 361/436/403 375/437/403 376/448/403
f 377/443/406 361/436/406 376/448/406
f 370/445/407 354/438/407 369/440/407
f 378/422/408 362/444/408 377/443/408
f 356/425/409 370/445/409 371/456/409
f 398/447/410 382/432/410 397/463/410
f 376/448/411 390/449/411 391/472/411
f 392/453/414 376/448/414 391/472/414
f 370/445/415 384/451/415 385/479/415
f 393/454/416 377/443/416 392/453/416
f 386/455/417 370/445/417 385/479/417
f 379/457/418 393/454/418 394/466/418
f 387/458/419 371/456/419 386/455/419
f 395/459/420 379/457/420 394/466/420
f 373/460/421 387/458/421 388/467/421
f 381/461/422 395/459/422 396/468/422
f 389/462/423 373/460/423 388/467/423
f 397/463/424 381/461/424 396/468/424
f 375/437/425 389/462/425 390/449/425
f 402/464/426 386/455/426 401/481/426
f 410/465/427 394/466/427 409/491/427
f 388/467/428 402/464/428 403/494/428
f 396/468/429 410/465/429 411/470/429
f 404/469/430 388/467/430 403/494/430
f 397/463/431 411/470/431 412/497/431
f 390/449/432 404/469/432 405/473/432
f 413/471/433 397/463/433 412/497/433
f 391/472/434 405/473/434 406/482/434
f 407/477/437 391/472/437 406/482/437
f 400/478/438 384/451/438 399/475/438
f 408/480/439 392/453/439 407/477/439
f 401/481/440 385/479/440 400/478/440
f 394/466/441 408/480/441 409/491/441
f 406/482/442 420/483/442 421/505/442
f 422/488/445 406/482/445 421/505/445
f 415/489/446 399/475/446 414/485/446
f 423/490/447 407/477/447 422/488/447
f 401/481/448 415/489/448 416/514/448
f 409/491/449 423/490/449 424/499/449
f 417/492/450 401/481/450 416/514/450
f 425/493/451 409/491/451 424/499/451
f 403/494/452 417/492/452 418/500/452
f 411/470/453 425/493/453 426/502/453
f 419/495/454 403/494/454 418/500/454
f 427/496/455 411/470/455 426/502/455
f 405/473/456 419/495/456 420/483/456
f 428/487/457 412/497/457 427/496/457
f 440/498/458 424/499/458 439/524/458
f 418/500/459 432/501/459 433/527/459
f 426/502/460 440/498/460 441/528/460
f 434/503/461 418/500/461 433/527/461
f 442/504/462 426/502/462 441/528/462
f 420/483/463 434/503/463 435/506/463
f 428/487/464 442/504/464 443/510/464
f 421/505/465 435/506/465 436/520/465
f 437/511/468 421/505/468 436/520/468
f 430/512/469 414/485/469 429/508/469
f 438/513/470 422/488/470 437/511/470
f 416/514/471 430/512/471 431/523/471
f 424/499/472 438/513/472 439/524/472
f 432/501/473 416/514/473 431/523/473
f 452/519/476 436/520/476 451/539/476
f 445/521/477 429/508/477 444/516/477
f 453/522/478 437/511/478 452/519/478
f 431/523/479 445/521/479 446/548/479
f 439/524/481 453/522/481 454/549/481
f 447/525/482 431/523/482 446/548/482
f 455/526/483 439/524/483 454/549/483
f 433/527/484 447/525/484 448/532/484
f 441/528/485 455/526/485 456/534/485
f 449/529/486 433/527/486 448/532/486
f 457/530/487 441/528/488 456/534/488
f 435/506/489 449/529/489 450/531/489
f 458/518/490 442/504/490 457/530/490
f 436/520/491 450/531/491 451/539/491
f 448/532/492 462/533/492 463/552/492
f 456/534/493 470/535/493 471/553/493
f 464/536/494 448/532/494 463/552/494
f 472/537/495 456/534/495 471/553/495
f 450/531/496 464/536/496 465/540/496
f 473/538/497 457/530/497 472/537/497
f 451/539/499 465/540/499 466/550/499
f 467/544/502 451/539/502 466/550/502
f 460/545/503 444/516/503 459/542/503
f 468/546/504 452/519/504 467/544/504
f 461/547/505 445/521/505 460/545/505
f 454/549/506 468/546/506 469/551/506
f 462/533/507 446/548/507 461/547/507
f 470/535/508 454/549/508 469/551/508
f 5/5/509 466/550/509 4/6/509
f 475/7/510 459/542/510 474/8/510
f 478/11/511 467/544/511 5/5/511
f 461/547/512 475/7/512 1/12/512
f 6/15/513 468/546/513 478/11/513
f 462/533/514 1/12/514 476/16/514
f 479/18/515 469/551/515 6/15/515
f 463/552/516 476/16/516 2/20/516
f 471/553/517 479/18/517 480/22/517
f 464/536/518 2/20/518 477/23/518
f 481/25/519 471/553/519 480/22/519
f 465/540/520 477/23/520 3/27/520
f 482/2/521 472/537/521 481/25/521
f 466/550/522 3/27/522 4/6/522
