# Blender 4.4.1
# www.blender.org
mtllib moveButton.mtl
o 立方体.001
v 1.000000 -0.300000 -0.050000
v 1.000000 0.300000 -0.050000
v 1.000000 -0.300000 0.050000
v 1.000000 0.300000 0.050000
v -1.000000 -0.300000 -0.050000
v -1.000000 0.300000 -0.050000
v -1.000000 -0.300000 0.050000
v -1.000000 0.300000 0.050000
vn 1.0000 -0.0000 -0.0000
vn -0.0000 -0.0000 1.0000
vn -1.0000 -0.0000 -0.0000
vn -0.0000 -0.0000 -1.0000
vn -0.0000 -1.0000 -0.0000
vn -0.0000 1.0000 -0.0000
vt 0.330667 0.976623
vt 0.653645 0.653645
vt 0.653645 0.976622
vt 0.330667 0.653645
vt 0.653645 0.330667
vt 0.330667 0.330667
vt 0.653645 0.007690
vt 0.993540 0.597822
vt 0.670563 0.420326
vt 0.993540 0.420326
vt 0.976623 0.007690
vt 0.976623 0.330667
vt 0.007690 0.330667
vt 0.330667 0.007690
vt 0.670563 0.597822
vt 0.007690 0.007690
s 1
usemtl マテリアル.002
f 2/1/1 3/2/1 1/3/1
f 4/4/2 7/5/2 3/2/2
f 8/6/3 5/7/3 7/5/3
f 6/8/4 1/9/4 5/10/4
f 7/5/5 1/11/5 3/12/5
f 4/13/6 6/14/6 8/6/6
f 2/1/1 4/4/1 3/2/1
f 4/4/2 8/6/2 7/5/2
f 8/6/3 6/14/3 5/7/3
f 6/8/4 2/15/4 1/9/4
f 7/5/5 5/7/5 1/11/5
f 4/13/6 2/16/6 6/14/6
